{"glyphs":{"0":{"ha":873,"x_min":88,"x_max":795,"o":"m 584 59 q 629 72 613 59 q 645 101 645 85 l 645 578 q 629 612 645 597 q 591 627 613 627 l 302 627 q 256 609 275 627 q 238 564 238 591 l 238 101 q 255 73 238 85 q 302 59 275 59 l 584 59 m 216 -14 q 125 19 163 -14 q 88 101 88 54 l 88 616 q 115 674 88 651 q 179 699 142 699 l 686 699 q 763 671 731 699 q 795 600 795 643 l 795 101 q 761 19 795 54 q 672 -14 725 -14 l 216 -14 z "},"1":{"ha":873,"x_min":252,"x_max":632,"o":"m 338 -14 q 294 0 316 -14 q 271 35 271 14 q 283 69 271 56 q 308 81 294 81 q 332 74 322 81 q 342 59 342 67 q 338 45 342 51 q 362 57 348 46 q 377 85 377 67 l 377 532 l 252 532 l 252 634 q 291 663 268 663 q 322 633 322 663 q 297 603 322 603 l 297 599 q 374 626 338 599 q 409 699 405 653 l 527 699 l 527 85 q 540 56 527 67 q 549 45 552 45 l 562 40 q 559 58 559 49 q 568 72 559 67 q 591 81 575 81 q 619 70 607 81 q 632 40 632 59 q 611 3 632 21 q 565 -14 591 -14 l 338 -14 z "},"2":{"ha":873,"x_min":88,"x_max":795,"o":"m 120 11 q 88 70 88 37 l 88 291 q 115 348 88 321 q 179 370 142 370 l 599 370 q 631 382 618 370 q 645 413 645 393 l 645 600 q 634 618 645 610 q 608 627 624 627 l 276 627 q 249 619 260 627 q 238 600 238 610 q 238 580 227 573 q 257 583 246 583 q 275 574 268 583 q 281 554 281 565 q 267 538 281 543 q 241 532 257 532 l 88 532 l 88 632 q 115 679 88 659 q 179 699 142 699 l 704 699 q 769 680 742 699 q 795 632 795 659 l 795 366 q 771 318 795 338 q 712 299 747 299 l 284 299 q 251 287 263 299 q 238 259 238 276 l 238 85 q 247 66 238 73 q 267 59 255 59 l 626 59 q 653 73 642 59 q 664 99 664 88 q 632 94 653 89 q 611 121 611 104 q 623 149 611 139 q 650 160 634 160 l 795 160 l 795 75 q 766 13 795 40 q 696 -14 738 -14 l 192 -14 q 120 11 153 -14 z "},"3":{"ha":873,"x_min":88,"x_max":795,"o":"m 350 466 q 358 444 358 457 q 345 425 358 431 q 350 422 346 425 q 364 420 353 420 l 599 420 q 631 431 618 420 q 645 460 645 442 l 645 594 q 634 616 645 608 q 608 627 624 627 l 145 627 q 130 619 137 627 q 123 607 123 611 q 140 601 129 607 q 152 585 152 595 q 142 567 152 575 q 117 559 129 559 q 97 569 105 559 q 88 594 88 580 l 88 699 l 678 699 q 760 671 725 699 q 795 600 795 643 l 795 444 q 779 407 795 425 q 754 382 766 388 q 779 361 766 378 q 795 319 795 343 l 795 85 q 765 14 795 45 q 682 -14 731 -14 l 88 -14 l 88 91 q 97 118 88 107 q 117 129 105 129 q 142 121 129 129 q 152 101 152 112 q 140 85 152 89 q 123 80 129 80 q 128 67 123 73 q 145 59 137 59 l 608 59 q 634 69 624 59 q 645 91 645 77 l 645 291 q 632 330 645 313 q 599 346 618 346 l 364 346 q 350 343 353 346 q 346 340 348 340 q 358 326 358 338 q 350 302 358 313 q 328 292 340 292 q 305 303 316 292 q 297 335 297 316 l 297 431 q 305 461 297 449 q 328 474 316 474 q 350 466 340 474 z "},"4":{"ha":873,"x_min":18,"x_max":865,"o":"m 174 198 q 390 231 223 231 q 508 225 477 231 l 508 556 q 455 527 506 554 l 402 503 q 251 374 308 457 q 174 198 192 294 m 865 129 q 769 104 843 104 q 655 118 696 104 l 655 54 q 668 42 655 48 q 691 35 682 37 q 690 44 690 38 q 699 57 690 49 q 720 67 707 67 q 747 56 733 67 q 754 27 754 45 q 736 -2 754 10 q 696 -14 718 -14 l 594 -14 q 532 10 557 -14 q 508 70 508 34 l 508 152 q 364 158 481 158 q 126 93 208 158 l 18 200 q 150 436 54 334 q 374 596 246 538 q 509 699 503 655 l 655 699 l 655 206 q 766 187 690 187 q 801 195 787 187 q 813 208 813 203 l 813 217 l 808 227 q 801 220 806 227 q 785 212 795 212 q 765 223 774 212 q 752 251 752 233 q 766 281 752 268 q 804 295 779 295 q 847 278 829 295 q 865 233 865 260 l 865 129 z "},"5":{"ha":873,"x_min":88,"x_max":795,"o":"m 795 594 q 766 549 795 549 q 737 557 750 549 q 723 578 723 565 q 737 599 723 591 q 760 607 750 607 q 754 619 760 611 q 739 627 749 627 l 311 627 q 284 618 295 627 q 273 594 273 608 l 273 463 l 669 463 q 758 436 720 463 q 795 366 795 409 l 795 85 q 765 14 795 45 q 682 -14 731 -14 l 88 -14 l 88 91 q 118 137 88 137 q 147 128 136 137 q 160 109 160 121 q 152 88 160 97 q 133 80 140 80 q 139 66 133 73 q 155 59 145 59 l 608 59 q 634 69 624 59 q 645 91 645 77 l 645 335 q 632 375 645 358 q 599 391 618 391 l 188 391 q 171 386 179 391 q 193 366 193 382 q 185 340 193 351 q 160 330 174 330 q 136 343 145 330 q 121 374 121 356 l 121 624 q 149 677 121 655 q 216 699 177 699 l 795 699 l 795 594 z "},"6":{"ha":873,"x_min":88,"x_max":795,"o":"m 634 69 q 645 91 645 77 l 645 335 q 632 375 645 358 q 599 391 618 391 l 294 391 q 252 378 268 391 q 238 345 238 364 l 238 101 q 251 71 238 83 q 284 59 263 59 l 602 59 q 634 69 624 59 m 238 453 q 267 463 252 463 l 669 463 q 758 436 720 463 q 795 366 795 409 l 795 85 q 765 14 795 45 q 682 -14 731 -14 l 179 -14 q 115 15 142 -14 q 88 85 88 45 l 88 624 q 115 678 88 655 q 179 699 142 699 l 795 699 l 795 594 q 766 549 795 549 q 737 557 750 549 q 723 578 723 565 q 737 599 723 591 q 760 607 750 607 q 754 619 760 611 q 739 627 749 627 l 276 627 q 249 618 260 627 q 238 594 238 608 l 238 453 z "},"7":{"ha":873,"x_min":88,"x_max":795,"o":"m 174 -6 l 613 533 q 645 596 645 584 q 634 616 645 608 q 608 627 624 627 l 161 627 q 142 618 150 627 q 133 607 133 610 q 150 601 140 607 q 160 583 160 595 q 152 560 160 572 q 125 549 140 549 q 99 563 110 549 q 88 594 88 576 l 88 699 l 678 699 q 760 671 725 699 q 795 604 795 643 q 733 489 795 565 l 338 -14 l 174 -14 l 174 -6 z "},"8":{"ha":873,"x_min":88,"x_max":774,"o":"m 286 402 q 251 413 267 402 q 235 433 235 425 q 262 439 249 433 q 279 458 279 445 q 273 481 279 471 q 255 490 267 490 q 231 487 244 490 q 227 490 222 477 l 227 594 q 238 616 227 608 q 265 627 249 627 l 597 627 q 623 618 613 627 q 634 594 634 608 l 634 437 q 621 413 634 423 q 589 402 608 402 l 286 402 m 286 59 q 251 69 267 59 q 235 86 235 80 q 263 93 249 86 q 279 117 279 104 q 270 136 279 129 q 255 144 267 144 q 231 140 244 144 q 227 147 222 136 l 227 295 q 238 320 227 310 q 265 330 249 330 l 597 330 q 623 320 613 330 q 634 295 634 310 l 634 91 q 623 68 634 77 q 597 59 613 59 l 286 59 m 694 -3 q 752 18 730 -3 q 774 70 774 40 l 774 275 q 757 335 774 310 l 738 361 q 757 391 738 370 q 774 444 774 415 l 774 616 q 752 668 774 648 q 694 688 730 688 l 169 688 q 112 668 136 688 q 88 616 88 648 l 88 444 q 105 391 88 415 l 125 370 q 105 340 125 361 q 88 291 88 318 l 88 70 q 110 18 88 40 q 163 -3 136 -3 l 694 -3 z "},"9":{"ha":873,"x_min":88,"x_max":795,"o":"m 599 326 q 632 335 618 326 q 645 358 645 346 l 645 594 q 634 616 645 608 q 608 627 624 627 l 276 627 q 249 618 260 627 q 238 594 238 608 l 238 413 q 242 405 231 401 q 265 410 252 410 q 283 401 278 410 q 291 380 291 391 q 273 361 291 369 q 246 353 260 353 q 262 336 246 346 q 297 326 278 326 l 599 326 m 645 263 q 616 252 626 252 l 188 252 q 118 279 147 252 q 88 345 88 305 l 88 600 q 121 671 88 643 q 196 699 153 699 l 704 699 q 769 671 742 699 q 795 600 795 643 l 795 62 q 769 6 795 32 q 704 -14 742 -14 l 88 -14 l 88 91 q 118 137 88 137 q 147 128 136 137 q 160 108 160 121 q 147 88 160 94 q 123 80 136 80 q 128 67 123 73 q 145 59 137 59 l 608 59 q 634 69 624 59 q 645 91 645 77 l 645 263 z "}," ":{"ha":351,"x_min":0,"x_max":0,"o":""},"!":{"ha":476,"x_min":142,"x_max":402,"o":"m 402 837 q 383 813 402 813 q 367 819 375 813 q 359 829 359 822 q 347 821 353 829 q 342 805 342 814 l 342 332 q 321 263 342 292 q 271 235 300 235 q 223 263 243 235 q 204 332 204 292 l 204 805 q 199 821 204 814 q 187 829 193 829 q 180 819 187 822 q 165 813 174 813 q 149 820 156 813 q 142 837 142 827 q 153 859 142 848 q 176 865 161 865 l 369 865 q 391 859 383 865 q 402 837 402 848 m 386 115 q 359 133 359 115 q 347 125 353 133 q 342 105 342 117 l 342 53 q 348 34 342 42 q 359 24 353 24 q 386 45 359 45 q 402 26 402 45 q 369 -8 402 -8 l 176 -8 q 152 -1 161 -8 q 142 18 142 6 q 149 38 142 30 q 166 45 156 45 q 187 24 187 45 q 198 34 193 24 q 204 53 204 42 l 204 105 q 199 125 204 117 q 187 133 193 133 q 180 120 187 125 q 166 115 174 115 q 142 140 142 115 q 176 164 142 164 l 369 164 q 402 140 402 164 q 386 115 402 115 z "},"\"":{"ha":589,"x_min":59,"x_max":512,"o":"m 367 744 l 334 876 l 334 936 l 512 936 l 512 876 l 484 744 l 367 744 m 93 744 l 59 876 l 59 936 l 238 936 l 238 876 l 209 744 l 93 744 z "},"#":{"ha":862,"x_min":26,"x_max":789,"o":"m 294 276 l 493 276 l 525 405 l 350 405 l 294 276 m 350 0 l 434 198 l 260 198 l 176 0 l 32 0 l 117 198 l 26 198 l 62 276 l 152 276 l 206 405 l 97 405 l 140 484 l 241 484 l 319 667 l 461 667 l 383 484 l 559 484 l 639 667 l 781 667 l 701 484 l 789 484 l 746 405 l 667 405 l 613 276 l 710 276 l 674 198 l 578 198 l 493 0 l 350 0 z "},"$":{"ha":872,"x_min":145,"x_max":726,"o":"m 399 611 l 364 611 q 299 567 299 611 l 299 490 q 364 445 299 445 l 399 445 l 399 611 m 399 773 l 471 773 l 471 701 l 538 701 q 671 669 616 701 q 726 581 726 637 l 726 516 l 573 516 l 573 567 q 508 611 573 611 l 471 611 l 471 445 l 538 445 q 671 413 616 445 q 726 326 726 382 l 726 152 q 671 65 726 99 q 538 32 616 32 l 471 32 l 471 -35 l 399 -35 l 399 32 l 334 32 q 161 101 211 32 q 145 152 145 123 l 145 241 l 299 241 l 299 166 q 364 121 299 121 l 399 121 l 399 356 l 334 356 q 161 423 209 356 q 145 474 145 445 l 145 581 q 200 668 145 635 q 334 701 255 701 l 399 701 l 399 773 m 573 311 q 508 356 573 356 l 471 356 l 471 121 l 508 121 q 573 166 573 121 l 573 311 z "},"%":{"ha":1121,"x_min":70,"x_max":1049,"o":"m 873 62 q 898 74 888 62 q 908 105 908 86 l 908 235 q 896 259 908 249 q 865 270 883 270 l 829 270 q 799 259 811 270 q 787 235 787 249 l 787 105 q 799 74 787 86 q 829 62 811 62 l 873 62 m 666 11 q 647 62 647 34 l 647 270 q 666 319 647 299 q 717 340 686 340 l 979 340 q 1030 319 1007 340 q 1049 270 1049 299 l 1049 62 q 1030 11 1049 34 q 979 -8 1007 -8 l 717 -8 q 666 11 686 -8 m 805 865 l 934 865 l 401 -8 l 270 -8 l 805 865 m 297 487 q 319 501 311 487 q 330 533 330 516 l 330 664 q 318 688 330 678 q 287 698 305 698 l 252 698 q 222 688 235 698 q 209 664 209 678 l 209 533 q 222 501 209 516 q 252 487 235 487 l 297 487 m 139 418 q 90 439 110 418 q 70 487 70 460 l 70 698 q 89 749 70 728 q 139 768 110 768 l 401 768 q 452 749 431 768 q 471 698 471 728 l 471 487 q 451 439 471 460 q 401 418 431 418 l 139 418 z "},"&":{"ha":653,"x_min":57,"x_max":613,"o":"m 508 48 q 342 -5 452 -5 l 251 -5 q 72 64 118 -5 q 57 115 57 86 l 57 318 q 156 417 57 391 q 228 425 188 425 l 335 425 q 390 458 390 425 l 390 546 q 340 575 390 575 l 270 575 q 235 567 249 575 q 220 546 220 559 l 220 468 l 67 468 l 67 557 q 115 635 67 605 q 238 664 163 664 l 374 664 q 496 634 449 664 q 543 557 543 603 l 543 444 q 442 345 543 370 q 372 337 410 337 l 265 337 q 211 303 211 337 l 211 131 q 283 85 211 85 l 316 85 q 388 118 374 85 l 294 172 l 294 302 l 613 118 l 613 -13 l 508 48 z "},"'":{"ha":295,"x_min":59,"x_max":238,"o":"m 93 744 l 59 951 l 59 1044 l 238 1044 l 238 951 l 209 744 l 93 744 z "},"(":{"ha":509,"x_min":70,"x_max":437,"o":"m 401 771 q 350 797 401 797 l 262 797 q 223 787 239 797 q 209 761 209 776 l 209 -169 q 224 -193 209 -182 q 262 -204 239 -204 l 350 -204 q 386 -195 370 -204 q 401 -177 401 -188 q 382 -169 390 -177 q 375 -153 375 -161 q 396 -134 375 -134 q 427 -144 417 -134 q 437 -169 437 -155 l 437 -275 l 174 -275 q 101 -249 133 -275 q 70 -187 70 -223 l 70 782 q 101 842 70 817 q 174 867 133 867 l 437 867 l 437 761 q 427 738 437 749 q 403 726 417 726 q 382 732 390 726 q 375 744 375 738 q 401 771 375 771 z "},")":{"ha":509,"x_min":70,"x_max":437,"o":"m 105 771 q 133 744 133 771 q 125 732 133 738 q 105 726 118 726 q 81 738 91 726 q 70 761 70 749 l 70 867 l 334 867 q 405 841 375 867 q 437 782 437 817 l 437 -187 q 405 -247 437 -223 q 334 -275 375 -275 l 70 -275 l 70 -169 q 81 -144 70 -155 q 112 -134 91 -134 q 133 -152 133 -134 q 125 -169 133 -161 q 105 -177 118 -177 q 121 -195 105 -188 q 158 -204 137 -204 l 246 -204 q 283 -193 268 -204 q 299 -169 299 -182 l 299 761 q 284 787 299 776 q 246 797 268 797 l 158 797 q 105 771 105 797 z "},"*":{"ha":920,"x_min":70,"x_max":910,"o":"m 263 70 l 275 18 q 261 -25 275 -6 q 231 -43 247 -43 q 193 -18 193 -43 q 202 2 193 -6 q 222 10 211 10 q 193 80 222 45 q 160 162 160 126 q 220 231 160 198 q 393 308 281 265 l 321 372 q 200 434 239 434 q 162 421 187 434 q 119 407 137 407 q 85 417 101 407 q 70 442 70 428 q 77 466 70 457 q 93 476 85 476 q 115 450 115 476 q 156 487 129 450 l 200 528 q 220 548 208 541 q 247 557 230 557 q 330 495 265 557 l 453 382 l 453 476 q 435 568 453 527 q 383 626 417 608 q 350 663 350 647 q 358 687 350 680 q 376 694 366 694 q 393 686 386 694 q 401 669 401 680 q 444 651 439 651 l 532 661 q 572 647 554 661 q 584 608 584 631 l 549 382 q 670 457 626 417 q 717 538 717 501 l 706 591 q 719 633 706 615 q 749 651 733 651 q 776 644 765 651 q 787 626 787 637 q 778 607 787 615 q 758 599 769 599 q 787 528 758 564 q 821 445 821 482 q 760 376 821 409 q 586 300 699 343 l 659 235 q 779 174 744 174 q 818 187 793 174 q 861 200 843 200 q 896 190 880 200 q 910 165 910 179 q 903 142 910 152 q 887 133 896 133 q 872 140 878 133 q 865 158 865 147 q 824 121 851 158 l 779 80 q 741 51 765 51 q 650 112 717 51 l 527 227 l 527 133 q 545 41 527 81 q 597 -18 564 0 q 631 -61 631 -42 q 603 -86 631 -86 q 587 -79 594 -86 q 580 -61 580 -72 q 551 -49 562 -53 q 536 -43 541 -43 l 449 -53 q 409 -38 426 -53 q 396 0 396 -22 l 431 227 q 310 152 354 192 q 263 70 263 107 z "},"+":{"ha":892,"x_min":70,"x_max":821,"o":"m 367 263 l 70 263 l 70 332 l 367 332 l 367 602 l 506 602 l 506 332 l 821 332 l 821 263 l 506 263 l 506 -8 l 367 -8 l 367 263 z "},",":{"ha":404,"x_min":70,"x_max":330,"o":"m 174 -96 q 200 -61 200 -96 l 200 -8 l 104 -8 q 80 -1 89 -8 q 70 18 70 6 q 77 38 70 30 q 93 45 85 45 q 115 24 115 45 q 126 34 121 24 q 133 53 133 42 l 133 105 q 127 125 133 117 q 115 133 121 133 q 109 120 115 125 q 94 115 102 115 q 70 140 70 115 q 104 164 70 164 l 297 164 q 330 140 330 164 q 314 115 330 115 q 287 133 287 115 q 275 125 281 133 q 270 105 270 117 l 270 -88 q 249 -130 270 -112 q 200 -148 228 -148 l 115 -148 q 82 -136 94 -148 q 70 -106 70 -123 q 77 -80 70 -89 q 94 -70 85 -70 q 123 -96 123 -70 l 174 -96 z "},"-":{"ha":578,"x_min":70,"x_max":506,"o":"m 70 340 l 506 340 l 506 270 l 70 270 l 70 340 z "},".":{"ha":404,"x_min":70,"x_max":330,"o":"m 314 115 q 287 133 287 115 q 275 125 281 133 q 270 105 270 117 l 270 53 q 276 34 270 42 q 287 24 281 24 q 314 45 287 45 q 330 26 330 45 q 297 -8 330 -8 l 104 -8 q 80 -1 89 -8 q 70 18 70 6 q 77 38 70 30 q 93 45 85 45 q 115 24 115 45 q 126 34 121 24 q 133 53 133 42 l 133 105 q 127 125 133 117 q 115 133 121 133 q 109 120 115 125 q 94 115 102 115 q 70 140 70 115 q 104 164 70 164 l 297 164 q 330 140 330 164 q 314 115 330 115 z "},"/":{"ha":709,"x_min":70,"x_max":651,"o":"m 70 -6 l 492 872 l 651 872 l 217 -14 l 70 -14 l 70 -6 z "},":":{"ha":404,"x_min":70,"x_max":330,"o":"m 330 490 q 313 461 330 461 q 295 467 303 461 q 287 481 287 473 q 275 472 281 481 q 270 453 270 463 l 270 401 q 276 383 270 390 q 287 375 281 375 q 314 391 287 391 q 330 374 330 391 q 297 340 330 340 l 104 340 q 80 348 89 340 q 70 367 70 356 q 77 385 70 378 q 93 391 85 391 q 115 375 115 391 q 126 383 121 375 q 133 401 133 390 l 133 453 q 127 472 133 463 q 115 481 121 481 q 109 467 115 473 q 93 461 102 461 q 77 469 85 461 q 70 490 70 479 q 104 514 70 514 l 297 514 q 330 490 330 514 m 314 115 q 287 133 287 115 q 275 125 281 133 q 270 105 270 117 l 270 53 q 276 34 270 42 q 287 24 281 24 q 314 45 287 45 q 330 26 330 45 q 297 -8 330 -8 l 104 -8 q 80 -1 89 -8 q 70 18 70 6 q 77 38 70 30 q 93 45 85 45 q 115 24 115 45 q 126 34 121 24 q 133 53 133 42 l 133 105 q 127 125 133 117 q 115 133 121 133 q 109 120 115 125 q 94 115 102 115 q 70 140 70 115 q 104 164 70 164 l 297 164 q 330 140 330 164 q 314 115 330 115 z "},";":{"ha":476,"x_min":142,"x_max":402,"o":"m 402 490 q 383 461 402 461 q 367 467 375 461 q 359 481 359 473 q 347 472 353 481 q 342 453 342 463 l 342 401 q 348 383 342 390 q 359 375 353 375 q 386 391 359 391 q 402 374 402 391 q 369 340 402 340 l 176 340 q 152 348 161 340 q 142 367 142 356 q 148 385 142 378 q 166 391 156 391 q 187 375 187 391 q 198 383 193 375 q 204 401 204 390 l 204 453 q 199 472 204 463 q 187 481 193 481 q 180 467 187 473 q 165 461 174 461 q 148 469 156 461 q 142 490 142 479 q 176 514 142 514 l 369 514 q 402 490 402 514 m 246 -96 q 271 -61 271 -96 l 271 -8 l 176 -8 q 152 -1 161 -8 q 142 18 142 6 q 149 38 142 30 q 166 45 156 45 q 187 24 187 45 q 198 34 193 24 q 204 53 204 42 l 204 105 q 199 125 204 117 q 187 133 193 133 q 180 120 187 125 q 166 115 174 115 q 142 140 142 115 q 176 164 142 164 l 369 164 q 402 140 402 164 q 386 115 402 115 q 359 133 359 115 q 347 125 353 133 q 342 105 342 117 l 342 -88 q 321 -130 342 -112 q 271 -148 300 -148 l 187 -148 q 154 -136 166 -148 q 142 -106 142 -123 q 149 -80 142 -89 q 166 -70 156 -70 q 195 -96 195 -70 l 246 -96 z "},"<":{"ha":848,"x_min":70,"x_max":774,"o":"m 70 212 l 774 460 l 774 413 l 262 171 l 774 -70 l 774 -117 l 70 126 l 70 212 z "},"=":{"ha":666,"x_min":70,"x_max":594,"o":"m 70 332 l 594 332 l 594 287 l 70 287 l 70 332 m 70 177 l 594 177 l 594 133 l 70 133 l 70 177 z "},">":{"ha":848,"x_min":70,"x_max":774,"o":"m 70 -117 l 70 -70 l 584 171 l 70 413 l 70 460 l 774 212 l 774 126 l 70 -117 z "},"?":{"ha":757,"x_min":142,"x_max":683,"o":"m 386 91 q 359 104 359 91 q 347 97 353 104 q 342 83 342 91 l 342 40 q 348 26 342 32 q 359 18 353 18 q 386 34 359 34 q 402 13 402 34 q 369 -8 402 -8 l 176 -8 q 142 13 142 -8 q 149 28 142 22 q 166 34 156 34 q 187 18 187 34 q 198 26 193 18 q 204 40 204 32 l 204 83 q 199 97 204 91 q 187 104 193 104 q 164 91 187 91 q 142 110 142 91 q 176 129 142 129 l 369 129 q 402 110 402 129 q 386 91 402 91 m 307 516 q 324 493 324 516 q 314 485 324 489 q 289 481 303 481 l 142 481 l 142 564 q 166 603 142 587 q 228 619 193 619 l 595 619 q 658 603 632 619 q 683 564 683 587 l 683 375 q 660 330 683 350 q 603 311 637 311 l 402 311 q 366 302 382 311 q 351 278 351 292 l 351 203 l 211 203 l 211 311 q 235 353 211 335 q 299 367 263 367 l 492 367 q 528 378 512 367 q 543 410 543 393 l 543 536 q 530 556 543 548 q 500 564 517 564 l 324 564 q 294 556 307 564 q 281 536 281 548 l 281 503 q 307 516 281 516 z "},"@":{"ha":1552,"x_min":172,"x_max":1379,"o":"m 808 48 q 755 48 808 48 q 690 93 690 48 l 690 140 q 755 185 690 185 l 808 185 q 872 142 868 185 l 872 93 q 808 48 872 48 m 1175 -227 l 1202 -203 q 1379 223 1379 -27 q 1202 650 1379 473 q 776 827 1025 827 q 350 650 527 827 q 172 223 172 473 q 350 -203 172 -26 q 776 -380 527 -380 q 1106 -283 961 -380 l 1007 -166 q 773 -230 904 -230 q 452 -97 584 -230 q 319 223 319 35 q 452 544 319 412 q 773 677 584 677 q 1094 544 961 677 q 1226 223 1226 412 q 1094 -97 1226 35 l 1207 -93 l 1025 38 l 1025 340 q 970 426 1025 394 q 838 458 915 458 l 730 458 q 598 426 653 458 q 543 340 543 394 l 543 308 l 696 308 l 696 324 q 761 369 696 369 l 808 369 q 872 324 872 369 l 872 257 q 801 275 845 275 l 725 275 q 591 242 647 275 q 536 156 536 209 l 536 77 q 552 27 536 49 q 725 -42 602 -42 l 793 -42 q 872 -27 837 -42 l 1175 -227 z "},"A":{"ha":746,"x_min":13,"x_max":722,"o":"m 251 247 l 482 247 l 367 544 l 251 247 m 477 669 l 722 0 l 568 0 l 512 158 l 220 158 l 166 0 l 13 0 l 255 669 l 477 669 z "},"B":{"ha":584,"x_min":51,"x_max":533,"o":"m 361 535 q 297 580 361 580 l 204 580 l 204 401 l 297 401 q 345 413 329 401 q 361 445 361 426 l 361 535 m 380 267 q 319 311 380 308 l 204 311 l 204 89 l 316 89 q 380 134 380 89 l 380 267 m 533 120 q 476 32 533 64 q 346 0 423 0 l 51 0 l 51 669 l 327 669 q 500 600 450 669 q 516 549 516 578 l 516 437 q 489 380 516 405 q 468 364 481 370 q 533 281 533 327 l 533 120 z "},"C":{"ha":589,"x_min":51,"x_max":533,"o":"m 316 89 q 380 134 380 89 l 380 209 l 533 209 l 533 120 q 476 32 533 64 q 346 0 423 0 l 239 0 q 67 69 117 0 q 51 120 51 91 l 51 549 q 106 636 51 603 q 239 669 161 669 l 346 669 q 478 637 423 669 q 533 549 533 605 l 533 460 l 380 460 l 380 535 q 316 580 380 580 l 270 580 q 204 535 204 580 l 204 134 q 270 89 204 89 l 316 89 z "},"D":{"ha":589,"x_min":51,"x_max":546,"o":"m 327 89 q 393 134 393 89 l 393 535 q 327 580 393 580 l 204 580 l 204 89 l 327 89 m 359 669 q 491 637 436 669 q 546 549 546 605 l 546 120 q 489 32 546 64 q 359 0 436 0 l 51 0 l 51 669 l 359 669 z "},"E":{"ha":572,"x_min":51,"x_max":509,"o":"m 509 0 l 51 0 l 51 669 l 509 669 l 509 580 l 204 580 l 204 401 l 444 401 l 444 311 l 204 311 l 204 89 l 509 89 l 509 0 z "},"F":{"ha":575,"x_min":51,"x_max":509,"o":"m 51 0 l 51 669 l 509 669 l 509 580 l 204 580 l 204 401 l 444 401 l 444 311 l 204 311 l 204 0 l 51 0 z "},"G":{"ha":616,"x_min":51,"x_max":552,"o":"m 334 89 q 399 134 399 89 l 399 225 l 283 225 l 283 314 l 552 314 l 552 120 q 495 32 552 64 q 364 0 442 0 l 239 0 q 67 69 117 0 q 51 120 51 91 l 51 549 q 106 636 51 603 q 239 669 161 669 l 364 669 q 497 637 442 669 q 552 549 552 605 l 552 460 l 399 460 l 399 535 q 334 580 399 580 l 270 580 q 204 535 204 580 l 204 134 q 270 89 204 89 l 334 89 z "},"H":{"ha":648,"x_min":51,"x_max":587,"o":"m 433 0 l 433 307 l 204 307 l 204 0 l 51 0 l 51 669 l 204 669 l 204 396 l 433 396 l 433 669 l 587 669 l 587 0 l 433 0 z "},"I":{"ha":286,"x_min":64,"x_max":217,"o":"m 64 0 l 64 669 l 217 669 l 217 0 l 64 0 z "},"J":{"ha":370,"x_min":21,"x_max":303,"o":"m 85 89 q 148 134 148 89 l 148 669 l 303 669 l 303 120 q 248 33 303 65 q 115 0 193 0 l 21 0 l 21 89 l 85 89 z "},"K":{"ha":616,"x_min":51,"x_max":605,"o":"m 51 0 l 51 669 l 204 669 l 204 338 l 445 669 l 605 669 l 361 332 l 605 0 l 445 0 l 204 327 l 204 0 l 51 0 z "},"L":{"ha":567,"x_min":51,"x_max":509,"o":"m 509 0 l 51 0 l 51 669 l 204 669 l 204 89 l 509 89 l 509 0 z "},"M":{"ha":816,"x_min":51,"x_max":747,"o":"m 51 0 l 51 669 l 209 669 l 399 271 l 591 669 l 747 669 l 747 0 l 592 0 l 592 340 l 481 105 l 319 105 l 204 342 l 204 0 l 51 0 z "},"N":{"ha":682,"x_min":51,"x_max":603,"o":"m 51 0 l 51 669 l 209 669 l 449 260 l 449 667 l 603 667 l 603 0 l 442 0 l 204 402 l 204 0 l 51 0 z "},"O":{"ha":631,"x_min":51,"x_max":559,"o":"m 340 89 q 404 134 404 89 l 404 535 q 340 580 404 580 l 270 580 q 204 535 204 580 l 204 134 q 270 89 204 89 l 340 89 m 51 549 q 106 636 51 603 q 239 669 161 669 l 370 669 q 543 600 493 669 q 559 549 559 578 l 559 120 q 504 33 559 65 q 370 0 449 0 l 239 0 q 67 69 117 0 q 51 120 51 91 l 51 549 z "},"P":{"ha":610,"x_min":51,"x_max":546,"o":"m 327 385 q 393 429 393 385 l 393 535 q 327 580 393 580 l 204 580 l 204 385 l 327 385 m 51 0 l 51 669 l 359 669 q 491 637 436 669 q 546 549 546 605 l 546 415 q 491 327 546 359 q 359 295 436 295 l 204 295 l 204 0 l 51 0 z "},"Q":{"ha":631,"x_min":51,"x_max":559,"o":"m 340 91 q 404 136 404 91 l 404 535 q 340 580 404 580 l 270 580 q 204 535 204 580 l 204 136 q 270 91 204 91 l 340 91 m 559 120 q 476 19 559 51 l 552 -54 l 386 -54 l 329 2 l 239 2 q 67 70 117 2 q 51 120 51 91 l 51 551 q 106 636 51 603 q 239 669 161 669 l 370 669 q 543 600 493 669 q 559 551 559 580 l 559 120 z "},"R":{"ha":589,"x_min":51,"x_max":581,"o":"m 327 386 q 393 431 393 386 l 393 535 q 327 580 393 580 l 204 580 l 204 386 l 327 386 m 361 297 l 581 0 l 420 0 l 204 291 l 204 0 l 51 0 l 51 669 l 359 669 q 491 637 436 669 q 546 549 546 605 l 546 417 q 492 329 546 361 q 361 297 437 297 z "},"S":{"ha":616,"x_min":51,"x_max":552,"o":"m 399 279 q 334 324 399 324 l 239 324 q 67 391 115 324 q 51 442 51 413 l 51 549 q 106 636 51 603 q 239 669 161 669 l 364 669 q 497 637 442 669 q 552 549 552 605 l 552 484 l 399 484 l 399 535 q 334 580 399 580 l 270 580 q 204 535 204 580 l 204 458 q 270 413 204 410 l 364 413 q 497 382 442 413 q 552 294 552 350 l 552 120 q 495 32 552 64 q 364 0 442 0 l 239 0 q 67 69 117 0 q 51 120 51 91 l 51 209 l 204 209 l 204 134 q 270 89 204 89 l 334 89 q 399 134 399 89 l 399 279 z "},"T":{"ha":573,"x_min":26,"x_max":544,"o":"m 544 580 l 362 580 l 362 0 l 208 0 l 208 580 l 26 580 l 26 669 l 544 669 l 544 580 z "},"U":{"ha":635,"x_min":57,"x_max":565,"o":"m 346 89 q 410 134 410 89 l 410 669 l 565 669 l 565 120 q 510 33 565 65 q 377 0 455 0 l 246 0 q 73 69 123 0 q 57 120 57 91 l 57 669 l 211 669 l 211 134 q 276 89 211 89 l 346 89 z "},"V":{"ha":653,"x_min":11,"x_max":635,"o":"m 246 0 l 11 669 l 164 669 l 322 219 l 482 669 l 635 669 l 401 0 l 246 0 z "},"W":{"ha":926,"x_min":5,"x_max":923,"o":"m 576 0 l 463 394 l 350 0 l 196 0 l 5 669 l 158 669 l 273 268 l 386 669 l 541 669 l 653 268 l 768 669 l 923 669 l 731 0 l 576 0 z "},"X":{"ha":672,"x_min":10,"x_max":656,"o":"m 163 669 l 332 437 l 503 669 l 656 669 l 410 334 l 656 0 l 503 0 l 332 230 l 163 0 l 10 0 l 255 334 l 10 669 l 163 669 z "},"Y":{"ha":667,"x_min":10,"x_max":656,"o":"m 163 669 l 332 439 l 503 669 l 656 669 l 409 335 l 409 0 l 255 0 l 255 335 l 10 669 l 163 669 z "},"Z":{"ha":572,"x_min":29,"x_max":524,"o":"m 32 669 l 524 669 l 524 586 l 192 89 l 522 89 l 522 0 l 29 0 l 29 83 l 362 580 l 32 580 l 32 669 z "},"[":{"ha":418,"x_min":69,"x_max":372,"o":"m 69 0 l 69 669 l 372 669 l 372 580 l 222 580 l 222 89 l 372 89 l 372 0 l 69 0 z "},"\\":{"ha":655,"x_min":30,"x_max":623,"o":"m 453 0 l 30 669 l 198 669 l 623 0 l 453 0 z "},"]":{"ha":418,"x_min":69,"x_max":372,"o":"m 69 0 l 69 89 l 219 89 l 219 580 l 69 580 l 69 669 l 372 669 l 372 0 l 69 0 z "},"^":{"ha":616,"x_min":13,"x_max":607,"o":"m 13 667 l 246 908 l 380 908 l 607 667 l 441 667 l 310 797 l 180 667 l 13 667 z "},"_":{"ha":669,"x_min":-6,"x_max":670,"o":"m -6 -153 l 670 -153 l 670 -235 l -6 -235 l -6 -153 z "},"`":{"ha":402,"x_min":70,"x_max":329,"o":"m 244 1090 l 329 787 l 278 787 l 70 1090 l 244 1090 z "},"a":{"ha":603,"x_min":51,"x_max":540,"o":"m 322 89 q 386 134 386 89 l 386 184 q 322 227 383 227 l 270 227 q 204 182 204 227 l 204 134 q 270 89 204 89 l 322 89 m 276 410 q 211 366 211 410 l 211 350 l 57 350 l 57 382 q 113 468 57 436 q 244 500 168 500 l 353 500 q 485 468 429 500 q 540 382 540 436 l 540 0 l 386 0 l 386 14 q 308 0 351 0 l 239 0 q 67 69 117 0 q 51 118 51 91 l 51 198 q 106 283 51 251 q 239 316 161 316 l 316 316 q 386 299 359 316 l 386 366 q 322 410 386 410 l 276 410 z "},"b":{"ha":623,"x_min":57,"x_max":559,"o":"m 276 410 q 211 367 214 410 l 211 134 q 276 89 211 89 l 340 89 q 405 134 405 89 l 405 366 q 340 410 405 410 l 276 410 m 559 118 q 501 32 559 64 q 370 0 449 0 l 289 0 q 211 14 246 0 l 211 0 l 57 0 l 57 651 l 211 651 l 211 482 l 225 489 q 283 500 246 500 l 370 500 q 504 468 449 500 q 559 382 559 436 l 559 118 z "},"c":{"ha":597,"x_min":51,"x_max":533,"o":"m 316 89 q 380 134 380 89 l 380 169 l 533 169 l 533 120 q 476 32 533 64 q 346 0 423 0 l 239 0 q 67 69 117 0 q 51 120 51 91 l 51 382 q 106 469 51 436 q 239 501 161 501 l 346 501 q 476 469 423 501 q 533 382 533 437 l 533 330 l 380 330 l 380 367 q 316 412 380 412 l 270 412 q 204 367 204 412 l 204 134 q 270 89 204 89 l 316 89 z "},"d":{"ha":619,"x_min":51,"x_max":552,"o":"m 334 89 q 399 134 399 89 l 399 367 q 334 410 396 410 l 270 410 q 204 366 204 410 l 204 134 q 270 89 204 89 l 334 89 m 51 382 q 106 467 51 434 q 239 500 161 500 l 327 500 q 378 492 364 500 l 399 482 l 399 651 l 552 651 l 552 0 l 399 0 l 399 14 q 321 0 364 0 l 239 0 q 67 69 117 0 q 51 118 51 91 l 51 382 z "},"e":{"ha":599,"x_min":51,"x_max":533,"o":"m 270 412 q 204 367 204 412 l 204 321 l 380 321 l 380 367 q 316 412 380 412 l 270 412 m 316 89 q 380 134 380 89 l 380 166 l 533 166 l 533 120 q 476 32 533 64 q 346 0 423 0 l 239 0 q 67 69 117 0 q 51 120 51 91 l 51 382 q 106 469 51 436 q 239 501 161 501 l 346 501 q 476 469 423 501 q 533 382 533 437 l 533 231 l 204 231 l 204 134 q 270 89 204 89 l 316 89 z "},"f":{"ha":441,"x_min":27,"x_max":421,"o":"m 326 564 q 262 519 262 564 l 262 500 l 346 500 l 346 410 l 262 410 l 262 0 l 107 0 l 107 410 l 27 410 l 27 500 l 107 500 l 107 533 q 162 620 107 587 q 295 653 217 653 l 421 653 l 421 564 l 326 564 z "},"g":{"ha":610,"x_min":51,"x_max":540,"o":"m 322 89 q 386 131 386 89 l 386 366 q 322 410 386 410 l 270 410 q 204 366 204 410 l 204 134 q 270 89 204 89 l 322 89 m 386 18 q 316 0 369 0 l 239 0 q 67 67 117 0 q 51 118 51 89 l 51 382 q 106 467 51 434 q 239 500 161 500 l 308 500 q 386 487 351 500 l 386 501 l 540 501 l 540 -73 q 482 -160 540 -125 q 353 -192 429 -192 l 244 -192 q 115 -160 172 -192 q 57 -73 57 -128 l 57 -43 l 211 -43 l 211 -57 q 276 -102 211 -102 l 322 -102 q 386 -57 386 -102 l 386 18 z "},"h":{"ha":623,"x_min":51,"x_max":552,"o":"m 270 410 q 204 369 208 410 l 204 0 l 51 0 l 51 653 l 204 653 l 204 482 q 276 500 228 500 l 364 500 q 497 468 442 500 q 552 382 552 436 l 552 0 l 399 0 l 399 366 q 334 410 399 410 l 270 410 z "},"i":{"ha":294,"x_min":70,"x_max":223,"o":"m 223 634 l 223 544 l 70 544 l 70 634 l 223 634 m 70 500 l 223 500 l 223 0 l 70 0 l 70 500 z "},"j":{"ha":327,"x_min":8,"x_max":259,"o":"m 259 632 l 259 543 l 105 543 l 105 632 l 259 632 m 42 -49 q 105 -5 105 -49 l 105 500 l 259 500 l 259 -21 q 204 -107 259 -75 q 72 -139 148 -139 l 8 -139 l 8 -49 l 42 -49 z "},"k":{"ha":591,"x_min":51,"x_max":559,"o":"m 51 0 l 51 653 l 204 653 l 204 257 l 396 500 l 559 500 l 364 252 l 559 0 l 396 0 l 204 246 l 204 0 l 51 0 z "},"l":{"ha":287,"x_min":64,"x_max":217,"o":"m 64 0 l 64 640 l 217 640 l 217 0 l 64 0 z "},"m":{"ha":943,"x_min":51,"x_max":875,"o":"m 386 366 q 322 410 386 410 l 294 410 q 232 393 260 410 q 204 350 204 375 l 204 0 l 51 0 l 51 500 l 204 500 l 204 469 q 308 500 257 500 l 353 500 q 503 455 449 500 q 642 500 565 500 l 686 500 q 859 431 809 500 q 875 382 875 410 l 875 0 l 720 0 l 720 366 q 656 410 720 410 l 629 410 q 549 378 576 410 q 540 358 541 369 l 540 0 l 386 0 l 386 366 z "},"n":{"ha":603,"x_min":51,"x_max":552,"o":"m 399 366 q 334 410 399 410 l 294 410 q 232 393 260 410 q 204 350 204 375 l 204 0 l 51 0 l 51 500 l 204 500 l 204 469 q 308 500 241 500 l 364 500 q 497 468 442 500 q 552 382 552 436 l 552 0 l 399 0 l 399 366 z "},"o":{"ha":597,"x_min":51,"x_max":533,"o":"m 316 89 q 380 134 380 89 l 380 367 q 316 412 380 412 l 270 412 q 204 367 204 412 l 204 134 q 270 89 204 89 l 316 89 m 51 382 q 106 469 51 436 q 239 501 161 501 l 346 501 q 476 469 423 501 q 533 382 533 437 l 533 120 q 476 32 533 64 q 346 0 423 0 l 239 0 q 67 69 117 0 q 51 120 51 91 l 51 382 z "},"p":{"ha":610,"x_min":51,"x_max":540,"o":"m 270 410 q 204 366 204 410 l 204 133 q 270 89 208 89 l 322 89 q 386 134 386 89 l 386 366 q 322 410 386 410 l 270 410 m 276 0 q 204 19 230 0 l 204 -148 l 51 -148 l 51 501 l 204 501 l 204 487 q 283 500 239 500 l 353 500 q 482 468 429 500 q 540 382 540 436 l 540 120 q 485 32 540 64 q 353 0 429 0 l 276 0 z "},"q":{"ha":610,"x_min":51,"x_max":540,"o":"m 322 89 q 386 133 383 89 l 386 366 q 322 410 386 410 l 270 410 q 204 366 204 410 l 204 134 q 270 89 204 89 l 322 89 m 51 382 q 106 467 51 434 q 239 500 161 500 l 308 500 q 386 487 351 500 l 386 501 l 540 501 l 540 -148 l 386 -148 l 386 19 q 316 0 367 0 l 239 0 q 67 69 117 0 q 51 120 51 91 l 51 382 z "},"r":{"ha":367,"x_min":51,"x_max":346,"o":"m 204 461 q 319 500 243 500 l 346 500 l 346 410 l 307 410 q 214 370 241 410 q 204 342 204 358 l 204 0 l 51 0 l 51 500 l 204 500 l 204 461 z "},"s":{"ha":618,"x_min":51,"x_max":552,"o":"m 399 184 q 334 228 399 228 l 239 228 q 67 295 115 228 q 51 346 51 318 l 51 382 q 106 469 51 436 q 239 501 161 501 l 364 501 q 495 469 442 501 q 552 382 552 437 l 552 359 l 399 359 l 399 367 q 334 412 399 412 l 270 412 q 204 367 204 412 l 204 362 q 270 318 204 314 l 364 318 q 497 286 442 318 q 552 198 552 254 l 552 120 q 495 32 552 64 q 364 0 442 0 l 239 0 q 67 69 117 0 q 51 120 51 91 l 51 169 l 204 169 l 204 134 q 270 89 204 89 l 334 89 q 399 134 399 89 l 399 184 z "},"t":{"ha":409,"x_min":27,"x_max":378,"o":"m 275 134 q 338 89 275 89 l 378 89 l 378 0 l 308 0 q 136 69 185 0 q 120 120 120 91 l 120 410 l 27 410 l 27 500 l 120 500 l 120 613 l 275 613 l 275 500 l 372 500 l 372 410 l 275 410 l 275 134 z "},"u":{"ha":619,"x_min":51,"x_max":552,"o":"m 204 134 q 270 89 204 89 l 310 89 q 366 102 345 89 q 399 150 399 126 l 399 500 l 552 500 l 552 0 l 399 0 l 399 30 q 297 0 358 0 l 239 0 q 67 69 117 0 q 51 120 51 91 l 51 500 l 204 500 l 204 134 z "},"v":{"ha":616,"x_min":11,"x_max":599,"o":"m 228 0 l 11 501 l 164 501 l 305 179 l 444 501 l 599 501 l 382 0 l 228 0 z "},"w":{"ha":875,"x_min":11,"x_max":854,"o":"m 527 0 l 433 275 l 338 0 l 184 0 l 11 501 l 164 501 l 260 223 l 356 501 l 509 501 l 603 223 l 699 501 l 854 501 l 682 0 l 527 0 z "},"x":{"ha":627,"x_min":10,"x_max":607,"o":"m 163 501 l 308 337 l 453 501 l 607 501 l 385 251 l 607 0 l 452 0 l 308 163 l 163 0 l 10 0 l 231 251 l 10 501 l 163 501 z "},"y":{"ha":613,"x_min":10,"x_max":594,"o":"m 163 501 l 300 316 l 441 501 l 594 501 l 377 216 l 377 0 l 223 0 l 223 216 l 10 501 l 163 501 z "},"z":{"ha":544,"x_min":22,"x_max":492,"o":"m 26 501 l 492 501 l 492 418 l 204 89 l 492 89 l 492 0 l 22 0 l 22 83 l 311 412 l 26 412 l 26 501 z "},"{":{"ha":471,"x_min":26,"x_max":447,"o":"m 26 255 q 156 314 125 255 q 166 348 166 330 l 166 479 q 230 572 166 543 q 421 602 294 602 l 447 602 l 447 512 q 350 504 372 512 q 308 449 308 490 l 308 318 q 275 259 300 284 q 193 211 251 235 q 275 161 255 182 q 311 70 305 126 l 311 -65 q 338 -91 318 -85 q 447 -104 380 -104 l 447 -193 l 421 -193 q 227 -156 289 -193 q 166 -30 166 -120 q 156 99 166 61 q 126 140 142 131 q 26 166 89 163 l 26 255 z "},"|":{"ha":345,"x_min":112,"x_max":238,"o":"m 112 591 l 238 591 l 238 -168 l 112 -168 l 112 591 z "},"}":{"ha":503,"x_min":51,"x_max":473,"o":"m 78 602 q 334 479 334 602 l 334 348 q 367 284 334 313 q 473 255 404 255 l 473 166 q 343 99 361 161 q 334 -6 334 61 q 318 -106 334 -73 q 270 -158 302 -139 q 78 -193 211 -193 l 51 -193 l 51 -104 q 179 -81 153 -104 q 188 -65 185 -75 l 188 70 q 255 185 193 147 q 307 211 276 198 q 192 318 200 254 l 192 449 q 153 503 188 490 q 51 512 129 512 l 51 602 l 78 602 z "},"~":{"ha":709,"x_min":51,"x_max":650,"o":"m 650 415 q 476 362 552 362 q 371 381 434 362 q 278 407 308 399 q 222 415 247 415 q 51 354 153 415 l 51 457 q 228 506 142 506 q 336 489 278 506 q 425 463 394 471 q 477 455 455 455 q 546 463 514 455 q 650 516 573 473 l 650 415 z "}," ":{"ha":351,"x_min":0,"x_max":0,"o":""},"¢":{"ha":597,"x_min":51,"x_max":533,"o":"m 316 89 q 380 134 380 89 l 380 169 l 533 169 l 533 120 q 476 32 533 64 q 356 0 426 2 l 356 -136 l 235 -136 l 235 0 q 67 69 115 2 q 51 120 51 91 l 51 382 q 105 468 51 436 q 235 501 160 500 l 235 647 l 356 647 l 356 501 q 476 469 426 500 q 533 382 533 437 l 533 330 l 380 330 l 380 367 q 316 412 380 412 l 270 412 q 204 367 204 412 l 204 134 q 270 89 204 89 l 316 89 z "},"©":{"ha":918,"x_min":34,"x_max":870,"o":"m 487 239 q 551 284 551 239 l 551 319 l 704 319 l 704 270 q 649 182 704 214 q 517 150 594 150 l 410 150 q 238 219 287 150 q 222 270 222 241 l 222 532 q 277 619 222 586 q 410 651 332 651 l 517 651 q 649 619 594 651 q 704 532 704 587 l 704 481 l 551 481 l 551 517 q 487 562 551 562 l 441 562 q 375 517 375 562 l 375 284 q 441 239 375 239 l 487 239 m 193 669 q 140 615 193 669 q 86 412 86 562 q 193 155 86 262 q 450 48 300 48 q 707 155 600 48 q 814 412 814 262 q 707 669 814 562 q 450 776 600 776 q 193 669 300 776 m 156 117 q 95 178 156 117 q 34 412 34 239 q 156 707 34 584 q 452 830 279 830 q 747 707 624 830 q 870 412 870 584 q 747 117 870 239 q 452 -6 624 -6 q 156 117 279 -6 z "},"®":{"ha":924,"x_min":45,"x_max":881,"o":"m 203 669 q 149 615 203 669 q 96 412 96 562 q 203 155 96 262 q 460 48 310 48 q 717 155 610 48 q 824 412 824 262 q 717 669 824 562 q 460 776 610 776 q 203 669 310 776 m 168 117 q 106 178 168 117 q 45 412 45 239 q 168 707 45 584 q 463 830 291 830 q 758 707 635 830 q 881 412 881 584 q 758 117 881 239 q 463 -6 635 -6 q 168 117 291 -6 m 489 442 q 532 471 532 442 l 532 538 q 489 568 532 568 l 409 568 l 409 442 l 489 442 m 511 383 l 655 190 l 549 190 l 409 380 l 409 190 l 308 190 l 308 626 l 509 626 q 595 605 559 626 q 631 548 631 584 l 631 461 q 595 404 631 425 q 511 383 560 383 z "},"¼":{"ha":1236,"x_min":80,"x_max":1197,"o":"m 1070 -85 q 1098 -120 1098 -85 q 1083 -146 1098 -136 q 1047 -156 1068 -156 l 947 -156 q 892 -136 915 -156 q 870 -81 870 -115 l 870 -10 q 803 -5 848 -5 q 610 -62 682 -5 l 514 32 q 631 239 549 155 q 821 385 733 345 q 915 471 908 425 l 1011 471 l 1011 37 q 1086 21 1042 21 q 1141 28 1130 21 q 1151 40 1151 35 l 1151 48 l 1146 56 q 1140 49 1145 56 q 1128 43 1135 43 q 1109 52 1121 43 q 1097 77 1097 61 q 1110 104 1097 93 q 1142 117 1121 117 q 1181 101 1164 117 q 1197 61 1197 85 l 1197 -30 q 1112 -53 1177 -53 q 1011 -40 1047 -53 l 1011 -96 q 1023 -108 1011 -105 q 1042 -112 1036 -110 q 1042 -105 1042 -110 q 1050 -93 1042 -101 q 1070 -85 1057 -85 m 169 27 q 171 83 142 56 l 1039 926 q 1070 938 1052 943 q 1095 925 1087 932 q 1105 907 1103 918 q 1094 868 1111 886 l 225 26 q 197 14 214 14 q 169 27 180 14 m 608 24 q 781 54 650 54 q 868 48 843 54 l 868 338 q 608 24 664 267 m 115 420 q 96 451 96 433 q 106 481 96 469 q 129 492 117 492 q 151 485 142 492 q 160 472 160 479 q 156 460 160 465 q 176 469 164 460 q 188 495 188 479 l 188 792 l 80 792 l 80 881 q 113 907 93 907 q 140 881 140 907 q 120 856 140 856 l 120 851 q 185 875 155 851 q 217 939 214 899 l 322 939 l 322 495 q 334 469 322 477 q 342 460 345 460 l 351 455 q 348 468 348 463 q 356 482 348 473 q 378 492 364 492 q 402 482 391 492 q 413 457 413 473 q 395 424 413 441 q 354 407 377 407 l 156 407 q 115 420 136 407 z "},"½":{"ha":1236,"x_min":80,"x_max":1201,"o":"m 115 420 q 96 451 96 433 q 106 481 96 469 q 129 492 117 492 q 151 485 142 492 q 160 472 160 479 q 156 460 160 465 q 176 469 164 460 q 188 495 188 479 l 188 792 l 80 792 l 80 881 q 113 907 93 907 q 140 881 140 907 q 120 856 140 856 l 120 851 q 185 875 155 851 q 217 939 214 899 l 322 939 l 322 495 q 334 469 322 477 q 342 460 345 460 l 351 455 q 348 471 351 463 q 356 482 348 473 q 378 492 364 492 q 402 482 391 492 q 413 455 413 473 q 394 423 413 437 q 354 407 377 407 l 156 407 q 115 420 136 407 m 169 27 q 171 83 142 56 l 1039 926 q 1070 938 1052 943 q 1095 925 1087 932 q 1105 907 1103 918 q 1094 868 1111 886 l 225 26 q 197 14 214 14 q 169 27 180 14 m 843 91 q 808 61 808 91 l 808 -67 q 815 -81 808 -75 q 830 -86 822 -86 l 1054 -86 q 1074 -76 1066 -86 q 1082 -57 1082 -65 q 1058 -60 1071 -67 q 1044 -40 1044 -53 q 1052 -19 1044 -27 q 1071 -11 1060 -11 l 1201 -11 l 1201 -75 q 1179 -121 1201 -101 q 1127 -140 1157 -140 l 754 -140 q 701 -121 725 -140 q 677 -78 677 -102 l 677 85 q 696 128 677 110 q 744 144 717 144 l 1034 144 q 1058 152 1049 144 q 1068 176 1068 161 l 1068 314 q 1061 327 1068 321 q 1041 334 1054 334 l 837 334 q 817 327 825 334 q 808 314 808 321 q 808 299 800 294 q 823 302 814 302 q 837 293 832 302 q 841 279 841 284 q 831 269 840 275 q 811 263 822 263 l 677 263 l 677 338 q 697 373 677 358 q 744 388 717 388 l 1133 388 q 1181 373 1162 388 q 1201 338 1201 358 l 1201 140 q 1183 105 1201 120 q 1138 91 1165 91 l 843 91 z "},"¾":{"ha":1236,"x_min":75,"x_max":1197,"o":"m 169 27 q 171 83 142 56 l 1039 926 q 1070 938 1052 943 q 1095 925 1087 932 q 1105 907 1103 918 q 1094 868 1111 886 l 225 26 q 197 14 214 14 q 169 27 180 14 m 118 615 q 99 600 118 600 q 104 591 99 595 q 113 586 109 586 l 375 586 q 394 592 386 586 q 401 608 401 599 l 401 741 q 391 768 401 757 q 369 779 382 779 l 260 779 q 249 774 254 776 q 255 766 255 773 q 235 742 255 742 q 216 771 216 742 l 216 835 q 222 856 216 848 q 236 865 228 865 q 250 859 244 865 q 255 844 255 852 q 249 832 255 835 q 260 829 254 829 l 369 829 q 401 856 401 829 l 401 945 q 394 959 401 951 q 375 967 386 967 l 113 967 q 104 962 109 967 q 99 953 99 956 q 110 949 102 953 q 118 939 118 945 q 94 921 118 921 q 81 928 86 921 q 75 945 75 936 l 75 1015 l 465 1015 q 519 997 495 1015 q 543 948 543 979 l 543 845 q 533 821 543 835 q 514 803 524 806 q 531 789 519 801 q 543 761 543 777 l 543 603 q 519 556 543 573 q 466 538 495 538 l 75 538 l 75 608 q 81 626 75 618 q 96 634 86 634 q 112 627 105 634 q 118 615 118 621 m 1070 -85 q 1098 -120 1098 -85 q 1083 -146 1098 -136 q 1047 -156 1068 -156 l 947 -156 q 892 -136 915 -156 q 870 -81 870 -115 l 870 -10 q 803 -5 848 -5 q 610 -62 682 -5 l 514 32 q 631 239 549 155 q 821 385 733 345 q 915 471 908 425 l 1011 471 l 1011 37 q 1086 21 1042 21 q 1141 28 1130 21 q 1151 40 1151 35 l 1151 48 l 1146 56 q 1140 49 1145 56 q 1128 43 1135 43 q 1109 52 1121 43 q 1097 77 1097 61 q 1110 104 1097 93 q 1142 117 1121 117 q 1181 101 1164 117 q 1197 61 1197 85 l 1197 -30 q 1112 -53 1177 -53 q 1011 -40 1047 -53 l 1011 -96 q 1023 -108 1011 -105 q 1042 -112 1036 -110 q 1042 -105 1042 -110 q 1050 -93 1042 -101 q 1070 -85 1057 -85 m 608 24 q 781 54 650 54 q 868 48 843 54 l 868 338 q 608 24 664 267 z "},"×":{"ha":830,"x_min":150,"x_max":680,"o":"m 239 663 l 415 461 l 591 663 l 680 592 l 482 378 l 680 168 l 587 94 l 415 294 l 239 94 l 150 168 l 348 378 l 150 592 l 239 663 z "},"÷":{"ha":896,"x_min":70,"x_max":824,"o":"m 70 382 l 824 382 l 824 271 l 70 271 l 70 382 m 556 113 q 527 131 527 113 q 516 123 520 131 q 511 104 511 115 l 511 51 q 517 32 511 40 q 527 22 520 22 q 556 43 527 43 q 572 24 572 43 q 536 -10 572 -10 l 345 -10 q 319 -2 329 -10 q 310 17 310 5 q 318 36 310 29 q 332 43 326 43 q 354 22 354 43 q 367 32 361 22 q 374 51 374 40 l 374 104 q 367 123 374 115 q 354 131 361 131 q 348 118 354 123 q 335 113 342 113 q 310 138 310 113 q 345 163 310 163 l 536 163 q 572 138 572 163 q 556 113 572 113 m 556 624 q 530 642 530 624 q 517 634 524 642 q 511 615 511 626 l 511 562 q 517 543 511 551 q 530 533 524 533 q 556 554 530 554 q 572 535 572 554 q 540 501 572 501 l 345 501 q 322 508 332 501 q 313 528 313 516 q 319 547 313 540 q 335 554 326 554 q 358 533 358 554 q 367 543 364 533 q 374 562 374 551 l 374 615 q 369 634 374 626 q 358 642 364 642 q 351 629 358 634 q 335 624 345 624 q 313 649 313 624 q 345 674 313 674 l 540 674 q 572 649 572 674 q 556 624 572 624 z "},"ॐ":{"ha":996,"x_min":48,"x_max":932,"o":"m 517 923 l 576 862 l 517 805 l 458 867 l 517 923 m 345 806 l 372 825 q 503 754 428 754 q 631 825 578 754 l 709 761 q 551 678 632 678 q 345 806 428 678 m 656 503 q 690 428 690 485 l 690 321 q 758 209 690 209 q 852 263 814 209 q 891 397 891 316 q 856 527 891 477 q 766 576 821 576 q 656 503 691 576 m 777 658 q 932 405 932 658 q 884 203 932 278 q 754 128 837 128 q 672 164 696 128 q 648 286 648 200 l 648 330 q 603 415 648 415 q 508 375 567 415 q 586 183 586 268 q 536 49 586 97 q 401 2 485 2 q 164 125 265 2 q 48 428 64 247 l 78 437 q 186 177 104 278 q 374 77 268 77 q 469 118 429 77 q 509 219 509 160 q 421 417 509 327 q 314 326 377 354 l 276 420 q 413 554 413 460 q 327 627 413 627 q 196 591 265 627 l 158 683 q 283 710 212 710 q 405 659 354 710 q 455 524 455 607 q 439 457 455 489 l 460 437 q 611 514 540 514 q 632 512 618 514 q 777 658 659 658 z "},"॑":{"ha":0,"x_min":-342,"x_max":-267,"o":"m -305 1020 m -267 1210 l -342 1210 l -342 1758 l -267 1758 l -267 1210 z "},"॒":{"ha":0,"x_min":-843,"x_max":-77,"o":"m -468 225 m -468 -113 m -77 -538 l -843 -538 l -843 -473 l -77 -473 l -77 -538 z "},"।":{"ha":316,"x_min":0,"x_max":263,"o":"m 220 632 q 206 603 206 632 l 206 53 q 220 24 206 24 q 244 45 220 45 q 257 38 251 45 q 263 18 263 30 q 253 -1 263 6 q 228 -8 243 -8 l 35 -8 q 10 -1 21 -8 q 0 18 0 6 q 8 38 0 30 q 26 45 16 45 q 46 24 46 45 q 56 34 53 24 q 62 53 62 42 l 62 603 q 56 624 62 615 q 46 632 53 632 q 40 619 46 624 q 27 613 34 613 q 0 639 0 613 q 10 658 0 650 q 35 666 21 666 l 228 666 q 253 658 243 666 q 263 639 263 650 q 257 620 263 627 q 244 613 251 613 q 220 632 220 613 z "},"॥":{"ha":650,"x_min":0,"x_max":597,"o":"m 554 24 q 580 45 554 45 q 591 38 586 45 q 597 18 597 30 q 587 -1 597 6 q 564 -8 578 -8 l 370 -8 q 345 -1 356 -8 q 334 18 334 6 q 343 37 334 30 q 360 45 351 45 q 374 38 369 45 q 380 24 380 34 q 390 34 386 24 q 396 53 396 42 l 396 603 q 390 624 396 615 q 380 632 386 632 q 374 619 380 624 q 360 613 369 613 q 342 620 351 613 q 334 639 334 627 q 345 658 334 650 q 370 666 356 666 l 564 666 q 587 658 578 666 q 597 639 597 650 q 580 613 597 613 q 554 632 554 613 q 536 603 536 632 l 536 53 q 554 24 536 24 m 220 632 q 203 603 203 632 l 203 53 q 220 24 203 24 q 244 45 220 45 q 257 38 251 45 q 263 18 263 30 q 253 -1 263 6 q 228 -8 243 -8 l 35 -8 q 10 -1 21 -8 q 0 18 0 6 q 8 38 0 30 q 26 45 16 45 q 46 24 46 45 q 56 34 53 24 q 62 53 62 42 l 62 603 q 56 624 62 615 q 46 632 53 632 q 40 619 46 624 q 27 613 34 613 q 0 639 0 613 q 10 658 0 650 q 35 666 21 666 l 228 666 q 253 658 243 666 q 263 639 263 650 q 257 620 263 627 q 244 613 251 613 q 220 632 220 613 z "},"ఁ":{"ha":402,"x_min":0,"x_max":350,"o":"m 314 508 q 270 532 314 532 l 193 532 q 158 522 172 532 q 144 498 144 512 l 144 115 q 155 75 144 91 q 182 62 168 62 l 260 62 q 305 86 299 62 q 293 92 299 86 q 287 107 287 97 q 295 125 287 117 q 316 133 303 133 q 339 121 329 133 q 350 94 350 110 l 350 -8 l 104 -8 q 30 21 62 -8 q 0 94 0 53 l 0 514 q 30 578 0 549 q 104 602 62 602 l 350 602 l 350 498 q 339 473 350 485 q 316 461 329 461 q 295 467 303 461 q 287 481 287 473 q 314 508 287 508 z "},"ం":{"ha":755,"x_min":0,"x_max":702,"o":"m 541 75 q 559 115 559 91 l 559 471 q 541 514 559 496 q 498 532 524 532 l 209 532 q 162 509 180 532 q 144 453 144 487 l 144 115 q 162 77 144 91 q 209 62 180 62 l 498 62 q 541 75 524 62 m 123 -8 q 35 27 72 -8 q 0 115 0 64 l 0 514 q 24 578 0 549 q 86 602 51 602 l 594 602 q 670 573 639 602 q 702 498 702 541 l 702 115 q 669 27 702 64 q 584 -8 632 -8 l 123 -8 z "},"ః":{"ha":420,"x_min":0,"x_max":367,"o":"m 209 62 q 234 74 223 62 q 244 105 244 86 l 244 147 q 233 172 244 161 q 209 185 223 185 l 156 185 q 134 172 142 185 q 123 147 123 161 l 123 105 q 133 74 123 86 q 156 62 142 62 l 209 62 m 19 11 q 0 62 0 34 l 0 185 q 21 234 0 212 q 70 255 42 255 l 297 255 q 346 234 326 255 q 367 185 367 212 l 367 62 q 348 11 367 34 q 297 -8 326 -8 l 70 -8 q 19 11 42 -8 m 209 410 q 234 423 223 410 q 244 453 244 436 l 244 498 q 234 522 244 512 q 209 532 223 532 l 156 532 q 134 522 142 532 q 123 498 123 512 l 123 453 q 134 423 123 436 q 156 410 142 410 l 209 410 m 19 361 q 0 410 0 382 l 0 532 q 19 583 0 562 q 70 602 42 602 l 297 602 q 348 583 326 602 q 367 532 367 562 l 367 410 q 348 361 367 382 q 297 340 326 340 l 70 340 q 19 361 42 340 z "},"అ":{"ha":878,"x_min":0,"x_max":825,"o":"m 182 394 q 186 397 182 394 q 200 401 190 401 q 209 384 209 401 q 200 367 209 367 q 219 379 211 367 q 227 410 227 391 l 227 498 q 215 522 227 512 q 185 532 203 532 q 156 522 168 532 q 144 498 144 512 l 144 105 q 158 74 144 86 q 193 62 172 62 l 619 62 q 664 75 647 62 q 682 115 682 91 l 682 481 q 666 519 682 503 q 629 532 650 532 q 595 517 608 532 q 581 481 581 503 l 581 305 q 599 270 581 284 q 647 255 618 255 l 647 185 l 260 185 q 238 177 246 185 q 227 164 227 172 q 239 160 233 164 q 244 147 244 155 q 227 133 244 133 q 209 147 209 133 l 209 257 l 490 257 q 452 279 466 265 q 437 305 437 292 l 437 514 q 461 578 437 549 q 524 602 489 602 l 717 602 q 793 578 760 602 q 825 514 825 549 l 825 94 q 793 21 825 53 q 717 -8 760 -8 l 123 -8 q 35 21 72 -8 q 0 94 0 53 l 0 498 q 24 573 0 541 q 86 602 51 602 l 279 602 q 329 582 308 602 q 350 532 350 562 l 350 375 q 323 326 350 348 q 260 305 297 305 l 174 305 l 174 375 q 182 394 174 386 z "},"ఆ":{"ha":878,"x_min":0,"x_max":825,"o":"m 581 367 q 597 336 581 350 q 634 322 613 322 q 668 336 655 322 q 682 367 682 350 l 682 498 q 666 522 682 512 q 629 532 650 532 q 595 522 608 532 q 581 498 581 512 l 581 367 m 825 367 q 750 270 825 316 q 805 239 784 259 q 825 203 825 220 l 825 94 q 797 21 825 53 q 725 -8 766 -8 l 123 -8 q 35 21 72 -8 q 0 94 0 53 l 0 498 q 24 573 0 541 q 86 602 51 602 l 279 602 q 329 582 308 602 q 350 532 350 562 l 350 375 q 323 326 350 348 q 260 305 297 305 l 174 305 l 174 375 q 182 394 174 386 q 200 401 190 401 q 209 384 209 401 q 200 367 209 367 q 219 379 211 367 q 227 410 227 391 l 227 498 q 215 522 227 512 q 185 532 203 532 q 156 522 168 532 q 144 498 144 512 l 144 105 q 158 74 144 86 q 193 62 172 62 l 647 62 q 671 77 661 62 q 682 115 682 91 l 682 227 q 594 185 631 185 l 260 185 q 243 177 249 185 q 235 164 235 172 q 252 156 252 164 q 235 140 252 140 q 209 164 209 140 l 209 257 l 549 257 q 584 270 568 257 l 506 297 q 456 322 474 305 q 437 358 437 340 l 437 514 q 461 578 437 549 q 524 602 489 602 l 717 602 q 793 578 760 602 q 825 514 825 549 l 825 367 z "},"ఇ":{"ha":755,"x_min":0,"x_max":702,"o":"m 330 203 q 318 239 330 223 q 287 255 305 255 l 182 255 q 156 243 168 255 q 144 217 144 231 l 144 94 q 152 72 144 81 q 174 62 161 62 l 330 62 l 330 203 m 156 410 q 174 437 156 437 q 187 431 180 437 q 193 412 193 421 q 179 397 193 402 q 147 391 164 391 l 0 391 l 0 532 q 24 583 0 562 q 86 602 51 602 l 263 602 q 318 583 295 602 q 350 532 345 564 q 379 583 354 564 q 437 602 404 602 l 594 602 q 670 578 639 602 q 702 514 702 549 l 702 80 q 677 16 702 45 q 611 -8 650 -8 l 474 -8 l 474 -42 q 485 -67 474 -57 q 508 -77 495 -77 l 559 -77 q 561 -61 556 -69 q 575 -53 567 -53 q 594 -70 594 -53 l 594 -148 l 409 -148 q 354 -130 378 -148 q 330 -88 330 -112 l 330 -8 l 86 -8 q 24 11 51 -8 q 0 62 0 34 l 0 255 q 26 305 0 284 q 86 326 51 326 l 385 326 q 434 303 415 326 q 453 255 453 284 l 453 62 l 508 62 q 544 75 528 62 q 559 115 559 91 l 559 481 q 546 519 559 503 q 514 532 532 532 l 461 532 q 434 522 445 532 q 423 498 423 512 l 423 445 q 437 420 423 431 q 444 433 437 426 q 461 437 452 437 q 471 423 471 437 q 461 400 471 409 q 437 391 452 391 l 252 391 q 235 397 243 391 q 227 410 227 402 q 244 437 227 437 q 257 431 251 437 q 263 410 263 421 q 276 426 270 418 q 279 445 279 436 l 279 490 q 267 520 279 508 q 235 532 252 532 l 193 532 q 144 508 144 532 l 144 445 q 156 410 144 418 z "},"ఈ":{"ha":1331,"x_min":0,"x_max":1279,"o":"m 682 471 q 664 514 682 496 q 619 532 647 532 l 314 532 q 281 512 295 532 q 267 461 267 492 l 267 431 l 682 431 l 682 471 m 627 62 q 666 82 650 62 q 682 133 682 102 l 682 358 l 267 358 l 267 115 q 281 75 267 91 q 314 62 295 62 l 627 62 m 1279 461 q 1223 401 1279 433 q 1263 375 1248 396 q 1279 332 1279 356 l 1279 94 q 1264 21 1279 53 q 1188 -8 1231 -8 l 1014 -8 q 939 20 969 -8 q 908 86 908 48 l 908 235 q 928 286 908 265 q 979 305 950 305 l 1065 305 q 1090 295 1078 305 q 1102 272 1102 284 q 1096 252 1102 260 q 1082 244 1090 244 q 1065 270 1065 244 q 1052 235 1052 270 l 1052 94 q 1058 72 1052 81 q 1073 62 1065 62 l 1125 62 q 1145 72 1137 62 q 1153 94 1153 81 l 1153 305 q 1138 345 1153 327 q 1102 358 1122 358 l 825 358 l 825 105 q 800 22 825 57 q 734 -8 771 -8 l 227 -8 q 152 22 182 -8 q 123 94 123 53 l 123 358 l 70 358 q 38 350 53 358 q 24 332 24 343 q 38 326 32 332 q 45 314 45 321 q 38 303 45 308 q 24 297 32 297 q 0 322 0 297 l 0 431 l 123 431 l 123 498 q 164 576 123 552 q 136 592 147 580 q 123 619 123 603 l 123 655 q 94 690 123 683 q 130 707 105 707 q 188 694 155 707 q 232 682 220 682 q 257 695 244 682 q 280 709 270 709 q 299 696 291 709 q 305 667 305 682 q 279 637 305 637 q 267 647 267 637 q 275 615 267 627 q 297 602 284 602 l 383 602 q 407 613 398 602 q 420 637 420 621 l 420 776 q 524 805 452 805 q 602 787 549 805 q 674 769 655 769 q 708 768 694 769 q 725 768 722 766 q 717 788 717 779 q 726 806 717 797 q 752 813 736 813 q 782 801 768 813 q 795 763 795 787 q 772 718 795 739 q 717 698 749 698 l 619 707 q 586 699 600 707 q 564 682 572 694 l 564 602 l 717 602 q 793 573 760 602 q 825 498 825 541 l 825 431 l 1102 431 q 1125 437 1116 431 q 1135 453 1135 444 l 1135 498 q 1124 516 1135 509 q 1102 524 1116 524 l 995 508 q 942 530 963 508 q 916 576 916 551 q 931 616 916 602 q 964 631 948 631 q 987 618 980 631 q 995 598 995 608 q 987 576 995 587 q 1024 568 999 568 q 1100 585 1049 568 q 1185 602 1151 602 q 1250 584 1218 602 q 1279 541 1279 567 l 1279 461 z "},"ఉ":{"ha":878,"x_min":0,"x_max":825,"o":"m 453 35 q 383 -8 434 -8 l 227 -8 q 152 22 182 -8 q 123 94 123 53 l 123 358 l 70 358 q 38 350 53 358 q 24 332 24 343 q 38 326 32 332 q 45 314 45 321 q 38 303 45 308 q 24 297 32 297 q 0 322 0 297 l 0 431 l 123 431 l 123 514 q 155 578 123 549 q 235 602 190 602 l 444 602 q 383 637 402 637 l 383 725 q 367 752 383 747 q 366 744 367 749 q 346 742 362 742 q 330 752 330 742 q 342 769 330 761 q 367 776 353 776 l 532 776 q 576 758 576 776 q 572 749 576 752 q 559 742 567 742 q 546 749 551 742 q 541 758 541 752 q 527 725 527 755 l 527 637 q 461 602 503 637 l 717 602 q 793 573 760 602 q 825 498 825 541 l 821 445 l 655 445 q 631 453 642 445 q 619 469 619 460 q 635 490 619 490 q 655 461 655 490 q 674 470 666 461 q 682 493 682 479 q 666 520 682 508 q 627 532 650 532 l 321 532 q 283 519 299 532 q 267 481 267 503 l 267 431 l 437 431 l 437 322 q 436 306 441 314 q 420 297 431 297 q 401 318 401 297 q 420 340 401 340 q 383 358 412 358 l 267 358 l 267 105 q 278 73 267 86 q 305 62 291 62 l 350 62 q 374 74 364 62 q 383 105 383 86 l 383 140 q 378 164 383 155 q 367 174 374 174 q 362 161 367 168 q 350 156 356 156 q 330 174 330 156 q 338 195 330 187 q 358 203 348 203 l 549 203 q 568 195 560 203 q 576 174 576 187 q 559 156 576 156 q 541 174 541 156 q 527 147 527 174 l 527 94 q 536 72 527 81 q 559 62 546 62 l 619 62 q 651 75 639 62 q 664 115 664 91 l 664 279 q 654 310 664 297 q 627 322 643 322 l 611 322 q 559 305 559 322 l 559 270 q 565 283 559 278 q 576 287 568 287 q 602 263 602 287 q 591 243 602 251 q 564 235 581 235 q 536 246 548 235 q 524 270 524 257 l 524 396 l 734 396 q 785 372 765 396 q 808 314 808 350 l 808 94 q 775 22 808 53 q 698 -8 742 -8 l 514 -8 q 453 35 469 -8 z "},"ఊ":{"ha":1303,"x_min":0,"x_max":1250,"o":"m 602 300 q 565 270 602 270 q 536 281 548 270 q 524 305 524 292 l 524 358 l 267 358 l 267 94 q 275 72 267 81 q 297 62 284 62 l 350 62 q 374 74 364 62 q 383 105 383 86 l 383 140 q 378 164 383 155 q 367 174 374 174 q 362 161 367 168 q 350 156 356 156 q 330 174 330 156 q 338 195 330 187 q 358 203 348 203 l 549 203 q 568 195 560 203 q 576 174 576 187 q 559 156 576 156 q 541 174 541 156 q 527 147 527 174 l 527 94 q 536 72 527 81 q 559 62 546 62 l 619 62 q 651 75 639 62 q 664 115 664 91 l 664 314 q 654 346 664 334 q 627 358 643 358 l 611 358 q 559 340 559 358 l 559 305 q 565 332 559 319 q 577 343 568 343 q 595 330 586 343 q 602 300 602 314 m 514 742 q 490 759 490 742 q 524 776 490 776 l 688 776 q 734 758 734 776 q 729 747 734 752 q 715 742 723 742 q 702 749 707 742 q 698 758 698 752 q 685 725 685 755 l 685 637 q 619 602 669 637 l 717 602 q 793 573 760 602 q 825 498 825 541 l 821 445 l 655 445 q 631 453 642 445 q 619 469 619 460 q 635 490 619 490 q 655 461 655 490 q 674 470 666 461 q 682 493 682 479 q 666 520 682 508 q 627 532 650 532 l 321 532 q 283 519 299 532 q 267 481 267 503 l 267 431 l 1054 431 q 1092 439 1074 431 q 1106 461 1106 450 l 1106 498 q 1096 522 1106 512 q 1071 532 1086 532 q 1027 523 1057 532 q 971 514 998 514 q 916 533 945 514 q 889 578 889 557 q 931 619 889 619 q 950 603 950 619 q 942 584 950 587 l 975 586 q 1040 595 996 586 q 1106 603 1084 603 l 1194 602 q 1233 590 1216 602 q 1250 560 1250 578 l 1250 461 q 1232 434 1250 449 q 1194 410 1218 420 q 1232 372 1218 401 q 1250 305 1250 345 l 1250 115 q 1229 27 1250 64 q 1141 -8 1194 -8 l 993 -8 q 912 22 947 -8 q 880 105 880 57 l 880 217 q 904 280 880 255 q 966 305 929 305 l 1036 305 q 1061 298 1050 305 q 1071 279 1071 291 q 1054 263 1071 263 q 1036 270 1036 263 q 1023 235 1023 265 l 1023 94 q 1040 72 1023 81 q 1078 62 1057 62 q 1112 77 1100 62 q 1124 115 1124 91 l 1124 305 q 1110 345 1124 327 q 1071 358 1094 358 l 776 358 q 808 314 808 335 l 808 94 q 775 22 808 53 q 698 -8 742 -8 l 514 -8 q 453 35 469 -8 q 383 -8 434 -8 l 227 -8 q 152 22 182 -8 q 123 94 123 53 l 123 358 l 70 358 q 38 350 53 358 q 24 332 24 343 q 38 326 32 332 q 45 314 45 321 q 38 303 45 308 q 24 297 32 297 q 0 322 0 297 l 0 431 l 123 431 l 123 514 q 155 578 123 549 q 235 602 190 602 l 321 602 q 260 637 279 637 l 260 725 q 244 758 260 754 q 235 742 244 742 q 217 747 225 742 q 209 759 209 752 q 220 771 209 766 q 244 776 230 776 l 409 776 q 453 758 453 776 q 449 749 453 752 q 437 742 444 742 q 425 747 431 742 q 420 758 420 752 q 404 725 404 755 l 404 637 q 340 602 386 637 l 602 602 q 541 637 560 637 l 541 725 q 524 758 541 754 q 514 742 524 742 z "},"ఋ":{"ha":1446,"x_min":0,"x_max":1394,"o":"m 825 481 q 798 461 825 461 q 774 473 785 461 q 765 498 765 485 l 765 602 l 940 602 q 1017 578 983 602 q 1049 514 1049 549 l 1049 129 q 1060 133 1052 133 q 1076 127 1068 133 q 1084 112 1084 121 q 1078 94 1084 102 q 1066 86 1073 86 q 1110 62 1073 62 l 1207 62 q 1239 75 1224 62 q 1250 115 1250 91 l 1250 498 q 1234 522 1250 512 q 1197 532 1218 532 q 1145 508 1145 532 q 1172 481 1172 508 q 1164 467 1172 473 q 1143 461 1156 461 q 1120 473 1130 461 q 1110 498 1110 485 l 1110 602 l 1284 602 q 1362 578 1330 602 q 1394 514 1394 549 l 1394 94 q 1362 21 1394 53 q 1284 -8 1330 -8 l 1089 -8 q 1023 34 1041 -8 q 940 -8 988 -8 l 730 -8 q 678 30 699 -6 q 611 -8 653 -8 l 420 -8 q 350 45 372 -8 q 279 -8 327 -8 l 104 -8 q 30 16 62 -8 q 0 80 0 45 l 0 305 q 24 356 0 335 q 86 375 51 375 l 174 375 q 212 390 196 375 q 227 428 227 407 l 227 498 q 215 522 227 512 q 185 532 203 532 q 156 522 168 532 q 144 498 144 512 l 144 453 q 150 465 144 460 q 164 471 156 471 q 182 445 182 471 q 172 433 182 439 q 147 428 161 428 l 0 428 l 0 532 q 24 583 0 562 q 86 602 51 602 l 263 602 q 324 582 299 602 q 350 532 350 562 l 350 391 q 319 332 350 356 q 252 305 294 305 l 182 305 q 155 292 168 305 q 144 255 144 276 l 144 94 q 152 72 144 81 q 174 62 161 62 l 244 62 q 269 72 259 62 q 279 94 279 81 l 279 147 q 263 174 279 174 q 252 164 263 164 q 235 179 235 164 q 243 195 235 187 q 263 203 251 203 l 437 203 q 461 179 461 203 q 453 164 461 164 q 437 174 437 164 q 423 147 423 174 l 423 105 q 434 74 423 86 q 461 62 445 62 l 514 62 q 546 75 532 62 q 559 115 559 91 l 559 498 q 546 522 559 512 q 514 532 532 532 l 490 532 q 453 508 453 532 q 479 481 479 508 q 471 467 479 473 q 451 461 463 461 q 429 470 439 461 q 420 490 420 479 l 420 602 l 619 602 q 680 578 655 602 q 702 514 702 549 l 702 128 q 707 129 706 129 q 716 133 709 133 q 731 127 723 133 q 739 115 739 121 q 722 86 739 86 q 765 62 728 62 l 860 62 q 892 75 880 62 q 905 115 905 91 l 905 498 q 891 522 905 512 q 852 532 875 532 q 801 508 801 532 q 825 481 825 508 z "},"ఌ":{"ha":1078,"x_min":0,"x_max":1025,"o":"m 314 602 q 385 549 362 602 q 416 588 396 575 q 455 602 436 602 l 629 602 q 706 576 674 602 q 738 514 738 549 l 738 287 q 711 239 738 260 q 648 217 685 217 l 578 217 q 540 204 556 217 q 525 164 525 188 l 525 -67 q 537 -89 525 -78 q 568 -99 549 -99 l 838 -99 q 868 -92 856 -99 q 881 -75 881 -85 l 881 581 q 856 564 881 564 q 838 589 838 564 q 848 601 838 595 q 875 607 859 607 l 1025 607 l 1025 -101 q 999 -150 1025 -129 q 934 -171 972 -171 l 490 -171 q 428 -152 453 -171 q 402 -101 402 -129 l 402 209 q 423 264 402 241 q 473 287 444 287 l 559 287 q 583 302 575 287 q 594 340 594 318 l 594 498 q 583 522 594 512 q 559 532 575 532 l 490 532 q 467 522 476 532 q 458 498 458 512 l 458 445 q 471 420 458 420 q 485 428 471 428 q 498 420 498 428 q 492 399 498 409 q 471 391 481 391 l 297 391 q 273 409 273 391 q 281 428 273 428 q 297 420 297 428 q 314 445 314 420 l 314 490 q 303 520 314 508 q 273 532 291 532 l 182 532 q 155 519 168 532 q 144 481 144 503 l 144 410 q 152 379 144 391 q 174 367 161 367 q 193 385 174 385 q 206 380 200 385 q 211 367 211 374 q 182 340 211 340 l 0 340 l 0 490 q 30 572 0 536 q 104 602 62 602 l 314 602 z "},"ఎ":{"ha":755,"x_min":0,"x_max":702,"o":"m 144 94 q 156 72 144 81 q 185 62 168 62 q 215 72 203 62 q 227 94 227 81 l 227 255 q 215 278 227 268 q 185 287 203 287 q 156 278 168 287 q 144 255 144 268 l 144 94 m 350 45 q 281 -8 327 -8 l 88 -8 q 24 11 53 -8 q 0 62 0 34 l 0 270 q 24 334 0 305 q 88 358 53 358 l 281 358 q 345 334 318 358 q 370 270 370 305 l 370 123 q 374 128 372 123 q 375 133 374 133 q 394 127 386 133 q 402 114 402 121 q 397 101 402 107 q 385 94 391 94 q 396 72 386 81 q 420 62 405 62 l 516 62 q 546 75 533 62 q 559 115 559 91 l 559 549 q 549 587 559 573 q 525 602 540 602 l 490 602 q 471 584 482 602 q 490 568 490 584 q 481 557 490 562 q 464 549 474 549 q 445 557 453 549 q 437 576 437 565 l 437 672 l 611 672 q 677 648 650 672 q 702 584 702 619 l 702 86 q 677 19 702 48 q 611 -8 650 -8 l 428 -8 q 350 45 380 -8 z "},"ఏ":{"ha":755,"x_min":0,"x_max":702,"o":"m 211 532 q 227 514 227 532 q 222 504 227 508 q 211 498 217 498 l 53 498 l 53 707 q 193 776 112 776 l 305 776 q 350 769 319 776 q 393 761 380 761 l 385 776 q 402 795 385 795 q 420 768 420 795 l 420 698 q 385 690 405 690 q 324 703 364 690 q 264 717 284 717 q 228 709 244 717 q 196 690 211 704 l 196 549 q 203 514 196 527 q 211 532 203 532 m 144 94 q 156 72 144 81 q 185 62 168 62 q 215 72 203 62 q 227 94 227 81 l 227 255 q 215 278 227 268 q 185 287 203 287 q 156 278 168 287 q 144 255 144 268 l 144 94 m 350 45 q 281 -8 327 -8 l 88 -8 q 24 11 53 -8 q 0 62 0 34 l 0 270 q 24 334 0 305 q 88 358 53 358 l 281 358 q 345 334 318 358 q 370 270 370 305 l 370 123 q 374 128 372 123 q 375 133 374 133 q 394 127 386 133 q 402 114 402 121 q 397 101 402 107 q 385 94 391 94 q 396 72 386 81 q 420 62 405 62 l 516 62 q 546 75 533 62 q 559 115 559 91 l 559 549 q 549 587 559 573 q 525 602 540 602 l 490 602 q 471 584 482 602 q 490 568 490 584 q 481 557 490 562 q 464 549 474 549 q 445 557 453 549 q 437 576 437 565 l 437 672 l 611 672 q 677 648 650 672 q 702 584 702 619 l 702 86 q 677 19 702 48 q 611 -8 650 -8 l 428 -8 q 350 45 380 -8 z "},"ఐ":{"ha":755,"x_min":0,"x_max":702,"o":"m 260 174 q 243 156 260 156 q 227 177 227 156 q 233 195 227 187 q 252 203 243 203 l 444 203 q 463 195 455 203 q 471 177 471 187 q 454 156 471 156 q 437 174 437 156 q 428 164 433 174 q 423 140 423 155 l 423 105 q 432 74 423 86 q 453 62 441 62 l 514 62 q 546 73 532 62 q 559 105 559 86 l 559 490 q 548 520 559 508 q 524 532 538 532 l 461 532 q 434 522 445 532 q 423 498 423 512 l 423 445 q 437 420 423 431 q 444 433 437 426 q 461 437 452 437 q 471 423 471 437 q 461 400 471 409 q 437 391 452 391 l 252 391 q 235 397 243 391 q 227 410 227 402 q 243 437 227 437 q 260 410 260 437 q 279 445 279 426 l 279 490 q 267 520 279 508 q 235 532 252 532 l 193 532 q 144 508 144 532 l 144 445 q 156 410 144 418 q 174 437 156 437 q 187 431 180 437 q 193 412 193 421 q 179 397 193 402 q 147 391 164 391 l 0 391 l 0 532 q 24 583 0 562 q 86 602 51 602 l 260 602 q 319 583 294 602 q 350 532 345 564 q 379 583 354 564 q 437 602 404 602 l 594 602 q 670 578 639 602 q 702 514 702 549 l 702 94 q 666 21 702 53 q 576 -8 627 -8 l 420 -8 q 350 35 366 -8 q 287 -8 330 -8 l 104 -8 q 30 21 62 -8 q 0 94 0 53 l 0 279 q 19 335 0 311 q 70 358 42 358 l 279 358 l 279 263 q 268 238 279 247 q 244 227 259 227 q 220 235 230 227 q 209 252 209 243 q 227 270 209 270 q 244 263 244 270 q 238 294 244 281 q 217 305 228 305 l 174 305 q 152 291 161 305 q 144 255 144 276 l 144 115 q 155 75 144 91 q 182 62 168 62 l 244 62 q 269 72 259 62 q 279 94 279 81 l 279 147 q 260 174 279 174 z "},"ఒ":{"ha":790,"x_min":0,"x_max":738,"o":"m 437 203 q 461 179 461 203 q 453 164 461 164 q 437 174 437 164 q 423 147 423 174 l 423 105 q 434 74 423 86 q 461 62 445 62 l 549 62 q 581 75 568 62 q 594 115 594 91 l 594 185 q 583 214 594 203 q 559 227 575 227 q 554 214 559 220 q 541 209 548 209 q 524 227 524 209 q 532 247 524 238 q 549 255 540 255 l 738 255 l 738 105 q 706 25 738 57 q 629 -8 674 -8 l 420 -8 q 350 45 372 -8 q 279 -8 327 -8 l 104 -8 q 30 16 62 -8 q 0 80 0 45 l 0 305 q 24 356 0 335 q 86 375 51 375 l 174 375 q 212 390 196 375 q 227 428 227 407 l 227 498 q 215 522 227 512 q 185 532 203 532 q 144 508 144 532 l 144 453 q 150 465 144 460 q 164 471 156 471 q 182 445 182 471 q 172 433 182 439 q 147 428 161 428 l 0 428 l 0 532 q 24 583 0 562 q 86 602 51 602 l 263 602 q 324 582 299 602 q 350 532 350 562 l 350 385 q 329 329 350 353 q 279 305 308 305 l 193 305 q 158 292 172 305 q 144 255 144 276 l 144 94 q 152 72 144 81 q 174 62 161 62 l 244 62 q 269 72 259 62 q 279 94 279 81 l 279 147 q 263 174 279 174 q 252 164 263 164 q 235 179 235 164 q 243 195 235 187 q 263 203 251 203 l 437 203 z "},"ఓ":{"ha":790,"x_min":0,"x_max":738,"o":"m 314 768 q 294 742 314 742 q 278 750 286 742 q 270 768 270 757 q 267 752 267 768 l 267 647 q 193 611 214 647 q 123 647 169 647 l 123 734 q 118 754 123 744 q 104 760 110 760 q 98 748 104 754 q 86 742 93 742 q 75 750 80 742 q 70 766 70 757 q 94 787 70 787 l 287 787 q 314 768 314 787 m 437 203 q 461 179 461 203 q 453 164 461 164 q 437 174 437 164 q 423 147 423 174 l 423 105 q 434 74 423 86 q 461 62 445 62 l 549 62 q 581 75 568 62 q 594 115 594 91 l 594 185 q 583 214 594 203 q 559 227 575 227 q 554 214 559 220 q 541 209 548 209 q 524 227 524 209 q 532 247 524 238 q 549 255 540 255 l 738 255 l 738 105 q 706 25 738 57 q 629 -8 674 -8 l 420 -8 q 350 45 372 -8 q 279 -8 327 -8 l 104 -8 q 30 16 62 -8 q 0 80 0 45 l 0 305 q 24 356 0 335 q 86 375 51 375 l 174 375 q 212 390 196 375 q 227 428 227 407 l 227 498 q 215 522 227 512 q 185 532 203 532 q 156 522 168 532 q 144 498 144 512 l 144 453 q 150 465 144 460 q 164 471 156 471 q 182 445 182 471 q 172 433 182 439 q 147 428 161 428 l 0 428 l 0 532 q 24 583 0 562 q 86 602 51 602 l 263 602 q 324 582 299 602 q 350 532 350 562 l 350 385 q 326 330 350 353 q 270 305 302 305 l 193 305 q 158 292 172 305 q 144 255 144 276 l 144 94 q 152 72 144 81 q 174 62 161 62 l 244 62 q 269 72 259 62 q 279 94 279 81 l 279 147 q 263 174 279 174 q 252 164 263 164 q 235 179 235 164 q 243 195 235 187 q 263 203 251 203 l 437 203 z "},"ఔ":{"ha":860,"x_min":0,"x_max":808,"o":"m 437 203 q 461 179 461 203 q 453 164 461 164 q 437 174 437 164 q 423 147 423 174 l 423 105 q 434 74 423 86 q 461 62 445 62 l 549 62 q 581 75 568 62 q 594 115 594 91 l 594 193 q 583 216 594 208 q 559 227 575 227 q 554 214 559 220 q 541 209 548 209 q 524 227 524 209 q 532 247 524 238 q 549 255 540 255 l 738 255 l 738 105 q 706 25 738 57 q 629 -8 674 -8 l 420 -8 q 350 45 372 -8 q 279 -8 327 -8 l 104 -8 q 30 16 62 -8 q 0 80 0 45 l 0 305 q 24 356 0 335 q 86 375 51 375 l 174 375 q 212 390 196 375 q 227 428 227 407 l 227 498 q 215 522 227 512 q 185 532 203 532 q 156 522 168 532 q 144 498 144 512 l 144 453 q 150 465 144 460 q 164 471 156 471 q 182 445 182 471 q 172 433 182 439 q 147 428 161 428 l 0 428 l 0 532 q 24 583 0 562 q 86 602 51 602 l 156 602 q 193 611 177 602 q 209 637 209 621 l 209 672 q 202 697 209 686 q 182 707 195 707 l 133 707 q 104 690 104 707 q 123 672 123 690 q 94 647 123 647 q 77 656 85 647 q 70 682 70 667 l 70 779 l 698 779 q 775 753 742 779 q 808 690 808 726 l 808 410 q 774 337 808 367 q 698 305 742 305 l 524 305 q 450 337 479 305 q 420 410 420 367 l 420 532 q 439 583 420 562 q 490 602 460 602 l 576 602 q 601 592 591 602 q 611 562 611 583 q 594 541 611 541 q 576 568 576 541 q 564 541 564 568 l 564 420 q 578 388 564 401 q 612 375 592 375 q 650 388 632 375 q 664 420 664 401 l 664 655 q 648 692 664 677 q 611 707 632 707 l 353 707 l 353 655 q 305 602 353 619 q 340 583 327 595 q 353 560 353 573 l 350 391 q 319 332 350 356 q 252 305 294 305 l 193 305 q 158 292 172 305 q 144 255 144 276 l 144 94 q 152 72 144 81 q 174 62 161 62 l 244 62 q 269 72 259 62 q 279 94 279 81 l 279 147 q 263 174 279 174 q 252 164 263 164 q 235 179 235 164 q 243 195 235 187 q 263 203 251 203 l 437 203 z "},"క":{"ha":787,"x_min":0,"x_max":734,"o":"m 498 471 q 524 498 498 498 q 543 489 536 498 q 541 471 549 479 q 554 479 548 471 q 559 500 559 489 q 546 522 559 512 q 514 532 532 532 l 209 532 q 162 517 180 532 q 144 481 144 503 l 144 410 q 158 374 144 388 q 193 361 172 361 l 611 361 q 676 334 650 361 q 702 270 702 308 l 702 94 q 674 21 702 53 q 602 -8 645 -8 l 104 -8 q 30 21 62 -8 q 0 94 0 53 l 0 203 l 174 203 q 194 195 185 203 q 203 175 203 187 q 194 155 203 163 q 176 147 185 147 q 162 152 168 147 q 156 163 156 158 q 160 169 156 168 q 164 174 163 171 q 150 166 156 174 q 144 147 144 158 l 144 105 q 160 73 144 86 q 203 62 177 62 l 514 62 q 546 75 532 62 q 559 115 559 91 l 559 235 q 544 275 559 259 q 508 287 528 287 l 86 287 q 27 303 53 283 q 0 358 0 322 l 0 532 q 20 580 0 562 q 64 600 40 597 q 62 619 62 611 l 62 655 q 34 690 62 683 q 69 707 45 707 q 125 694 93 707 q 170 682 158 682 q 196 695 182 682 q 217 709 209 709 q 235 673 235 709 q 217 637 235 637 q 206 647 206 637 q 215 615 206 627 q 235 602 223 602 l 321 602 q 346 611 335 602 q 358 637 358 621 l 358 776 q 461 805 390 805 q 541 787 490 805 q 611 769 592 769 q 646 768 631 769 q 664 768 661 766 q 655 789 655 782 q 664 805 655 797 q 690 813 674 813 q 722 801 706 813 q 734 763 734 787 q 710 718 734 739 q 655 698 686 698 l 557 707 q 525 699 540 707 q 503 682 509 694 l 503 602 l 594 602 q 670 582 639 602 q 702 532 702 562 l 698 445 l 541 445 q 511 453 524 445 q 498 471 498 460 z "},"ఖ":{"ha":897,"x_min":0,"x_max":845,"o":"m 367 -43 q 437 0 412 -43 q 468 -34 449 -19 q 511 -43 489 -43 l 511 -113 q 525 -131 511 -131 q 531 -119 525 -125 q 543 -113 536 -113 q 554 -121 549 -113 q 559 -140 559 -129 q 525 -164 559 -164 l 343 -164 q 314 -140 314 -164 q 343 -113 314 -113 q 351 -131 351 -113 q 367 -105 367 -131 l 367 -43 m 281 62 q 305 74 295 62 q 314 105 314 86 l 314 251 q 305 277 314 267 q 281 287 295 287 l 182 287 q 155 278 168 287 q 144 251 144 267 l 144 94 q 156 72 144 81 q 182 62 168 62 l 281 62 m 631 498 q 610 471 631 471 q 591 484 599 471 q 580 508 580 493 l 580 602 l 754 602 q 819 578 792 602 q 845 514 845 549 l 845 115 q 813 27 845 64 q 736 -8 779 -8 l 543 -8 q 437 45 468 -8 q 375 -8 407 -8 l 104 -8 q 30 16 62 -8 q 0 80 0 45 l 0 287 q 26 339 0 318 q 86 361 51 361 l 263 361 q 314 340 291 361 l 314 481 q 303 517 314 503 q 273 532 291 532 l 211 532 q 190 522 198 532 q 179 498 179 512 l 179 461 q 192 474 185 471 q 203 481 196 481 q 215 472 209 481 q 220 453 220 463 q 212 435 220 442 q 193 428 204 428 l 35 428 l 35 532 q 61 582 35 562 q 123 602 86 602 l 385 602 q 437 582 417 602 q 458 532 458 562 l 458 147 q 484 87 458 112 q 543 62 509 62 l 631 62 q 682 86 661 62 q 701 147 701 112 l 701 481 q 690 517 701 503 q 663 532 680 532 q 613 508 613 532 q 631 498 631 508 z "},"గ":{"ha":800,"x_min":0,"x_max":747,"o":"m 174 45 q 196 64 174 64 q 217 32 217 64 q 200 3 217 16 q 156 -8 180 -8 l 94 -8 q 29 16 56 -8 q 0 80 0 45 l 0 514 q 32 578 0 549 q 75 599 53 592 q 73 619 73 610 l 73 655 q 48 690 73 682 q 80 707 54 707 q 138 694 105 707 q 187 682 171 682 l 230 690 q 247 663 247 690 q 230 637 247 637 q 212 647 212 637 q 223 615 212 627 q 247 602 233 602 l 334 602 q 360 611 350 602 q 370 637 370 621 l 370 776 q 474 805 402 805 q 553 781 503 805 q 627 758 603 758 q 677 768 651 758 q 667 787 667 777 q 677 805 667 797 q 703 813 686 813 q 734 801 720 813 q 747 763 747 787 q 723 718 747 739 q 667 698 699 698 l 572 707 q 532 699 548 707 q 509 682 516 694 l 509 602 l 611 602 q 677 578 650 602 q 702 514 702 549 l 702 115 q 677 27 702 64 q 611 -8 650 -8 l 524 -8 q 485 5 503 -8 q 471 45 471 21 q 498 70 471 70 q 514 45 514 70 q 546 57 532 45 q 559 94 559 73 l 559 461 q 536 512 559 492 q 479 532 512 532 l 217 532 q 164 512 187 532 q 144 461 144 492 l 144 80 q 152 55 144 65 q 174 45 161 45 z "},"ఘ":{"ha":1125,"x_min":0,"x_max":1073,"o":"m 297 -43 q 367 0 342 -43 q 398 -34 378 -19 q 441 -43 418 -43 l 441 -113 q 455 -131 441 -131 q 471 -113 455 -113 q 484 -121 477 -113 q 490 -140 490 -129 q 477 -158 490 -152 q 455 -164 469 -164 l 273 -164 q 244 -140 244 -164 q 273 -113 244 -113 q 281 -131 281 -113 q 297 -105 297 -131 l 297 -43 m 825 508 q 849 481 849 508 q 825 461 849 461 q 801 473 811 461 q 790 498 790 485 l 790 602 l 964 602 q 1041 578 1007 602 q 1073 514 1073 549 l 1073 94 q 1041 21 1073 53 q 964 -8 1007 -8 l 694 -8 q 669 13 672 -3 q 611 -8 645 -8 l 437 -8 q 367 45 383 -8 q 297 -8 348 -8 l 88 -8 q 24 11 53 -8 q 0 62 0 34 l 0 270 q 24 334 0 305 q 88 358 53 358 l 281 358 q 345 334 318 358 q 370 270 370 305 l 370 123 q 374 128 372 123 q 375 133 374 133 q 394 127 386 133 q 402 114 402 121 q 397 101 402 107 q 385 94 391 94 q 396 72 386 81 q 420 62 405 62 l 516 62 q 546 75 533 62 q 559 115 559 91 l 559 481 q 549 517 559 503 q 525 532 540 532 l 471 532 q 461 525 469 532 q 455 514 458 519 q 471 498 471 514 q 463 487 471 492 q 446 481 457 481 q 426 489 436 481 q 420 508 420 496 l 420 602 l 611 602 q 677 578 650 602 q 702 514 702 549 l 702 133 q 722 127 714 133 q 730 115 730 121 q 709 86 730 86 q 754 62 723 62 l 888 62 q 917 77 905 62 q 929 115 929 91 l 929 498 q 915 522 929 512 q 877 532 899 532 q 841 525 856 532 q 825 508 825 519 m 490 768 q 479 788 479 779 q 491 805 479 797 q 518 813 503 813 q 546 801 533 813 q 559 761 559 787 q 536 715 559 736 q 479 690 512 690 l 385 707 q 353 704 367 707 q 332 690 340 698 l 332 602 q 313 551 332 575 q 263 532 292 532 l 0 532 l 0 637 q 10 662 0 651 q 41 672 19 672 q 62 655 62 672 q 57 638 62 645 q 45 631 51 631 q 64 610 51 616 q 88 602 73 602 l 164 602 q 185 610 176 602 q 193 631 193 618 l 193 776 q 271 795 223 795 q 375 777 318 795 q 449 758 433 758 q 476 761 466 758 l 490 768 m 144 94 q 156 72 144 81 q 185 62 168 62 q 215 72 203 62 q 227 94 227 81 l 227 255 q 215 278 227 268 q 185 287 203 287 q 156 278 168 287 q 144 255 144 268 l 144 94 z "},"ఙ":{"ha":790,"x_min":0,"x_max":738,"o":"m 437 203 q 461 179 461 203 q 453 164 461 164 q 437 174 437 164 q 423 147 423 174 l 423 105 q 434 74 423 86 q 461 62 445 62 l 549 62 q 581 75 568 62 q 594 115 594 91 l 594 185 q 583 214 594 203 q 559 227 575 227 q 554 214 559 220 q 541 209 548 209 q 524 227 524 209 q 532 247 524 238 q 549 255 540 255 l 738 255 l 738 105 q 706 25 738 57 q 629 -8 674 -8 l 420 -8 q 350 45 372 -8 q 279 -8 327 -8 l 104 -8 q 30 16 62 -8 q 0 80 0 45 l 0 305 q 24 356 0 335 q 86 375 51 375 l 174 375 q 212 390 196 375 q 227 428 227 407 l 227 498 q 215 522 227 512 q 185 532 203 532 q 156 522 168 532 q 144 498 144 512 l 144 453 q 150 465 144 460 q 164 471 156 471 q 182 445 182 471 q 172 433 182 439 q 147 428 161 428 l 0 428 l 0 532 q 24 583 0 562 q 86 602 51 602 l 263 602 q 324 582 299 602 q 350 532 350 562 l 350 428 q 415 437 374 437 q 508 428 457 437 l 508 532 q 490 568 508 562 q 484 557 490 562 q 469 549 477 549 q 453 559 460 549 q 445 576 445 565 q 458 595 445 586 q 490 602 471 602 l 651 602 l 651 410 q 698 420 663 410 q 682 441 682 420 q 699 461 682 461 q 734 428 734 461 l 734 340 q 647 322 704 322 l 401 358 l 314 340 q 252 305 283 305 l 193 305 q 158 292 172 305 q 144 255 144 276 l 144 94 q 152 72 144 81 q 174 62 161 62 l 244 62 q 269 72 259 62 q 279 94 279 81 l 279 147 q 263 174 279 174 q 252 164 263 164 q 235 179 235 164 q 243 195 235 187 q 263 203 251 203 l 437 203 z "},"చ":{"ha":958,"x_min":0,"x_max":905,"o":"m 835 768 q 825 787 825 777 q 835 805 825 797 q 861 813 845 813 q 892 801 878 813 q 905 763 905 787 q 881 718 905 739 q 825 698 857 698 l 730 707 q 690 699 706 707 q 667 682 674 694 l 667 602 l 750 602 q 814 578 789 602 q 841 514 841 549 l 841 94 q 809 21 841 53 q 734 -8 777 -8 l 594 -8 q 490 45 512 -8 q 420 -8 463 -8 l 252 -8 q 172 21 206 -8 q 139 94 139 53 l 139 255 q 200 322 139 302 l 174 322 l 70 305 q 0 340 38 305 l 0 437 q 34 461 0 461 q 53 441 53 461 q 34 420 53 420 q 77 401 56 401 l 235 428 l 350 428 l 350 305 q 302 293 321 305 q 283 263 283 281 l 283 115 q 297 75 283 91 q 330 62 311 62 l 375 62 q 406 74 393 62 q 420 105 420 86 l 420 140 q 413 164 420 155 q 401 174 407 174 q 396 161 401 168 q 383 156 390 156 q 367 174 367 156 q 374 195 367 187 q 391 203 382 203 l 584 203 q 603 195 595 203 q 611 177 611 187 q 594 156 611 156 q 576 174 576 156 q 564 147 564 174 l 564 105 q 575 74 564 86 q 602 62 586 62 l 655 62 q 685 75 672 62 q 698 115 698 91 l 698 481 q 683 519 698 503 q 647 532 667 532 l 310 532 q 255 559 278 532 q 231 619 231 584 l 231 655 q 206 690 231 682 q 239 707 212 707 q 297 694 265 707 q 346 682 329 682 l 388 690 q 405 663 405 690 q 388 637 405 637 q 370 647 370 637 q 381 615 370 627 q 405 602 391 602 l 493 602 q 518 611 508 602 q 528 637 528 621 l 528 776 q 632 805 560 805 q 711 781 661 805 q 785 758 761 758 q 835 768 809 758 z "},"ఛ":{"ha":958,"x_min":0,"x_max":905,"o":"m 835 768 q 825 787 825 777 q 835 805 825 797 q 861 813 845 813 q 892 801 878 813 q 905 763 905 787 q 881 718 905 739 q 825 698 857 698 l 730 707 q 690 699 706 707 q 667 682 674 694 l 667 602 l 750 602 q 814 578 789 602 q 841 514 841 549 l 841 94 q 809 21 841 53 q 734 -8 777 -8 l 594 -8 q 490 45 512 -8 q 420 -8 463 -8 l 252 -8 q 172 21 206 -8 q 139 94 139 53 l 139 255 q 200 322 139 302 l 174 322 l 70 305 q 0 340 38 305 l 0 437 q 34 461 0 461 q 53 441 53 461 q 34 420 53 420 q 77 401 56 401 l 235 428 l 350 428 l 350 305 q 302 293 321 305 q 283 263 283 281 l 283 115 q 297 75 283 91 q 330 62 311 62 l 375 62 q 406 74 393 62 q 420 105 420 86 l 420 140 q 413 164 420 155 q 401 174 407 174 q 396 161 401 168 q 383 156 390 156 q 367 174 367 156 q 374 195 367 187 q 391 203 382 203 l 584 203 q 603 195 595 203 q 611 177 611 187 q 594 156 611 156 q 576 174 576 156 q 564 147 564 174 l 564 105 q 575 74 564 86 q 602 62 586 62 l 655 62 q 685 75 672 62 q 698 115 698 91 l 698 481 q 683 519 698 503 q 647 532 667 532 l 310 532 q 255 559 278 532 q 231 619 231 584 l 231 655 q 206 690 231 682 q 239 707 212 707 q 297 694 265 707 q 346 682 329 682 l 388 690 q 405 663 405 690 q 388 637 405 637 q 370 647 370 637 q 381 615 370 627 q 405 602 391 602 l 493 602 q 518 611 508 602 q 528 637 528 621 l 528 776 q 632 805 560 805 q 711 781 661 805 q 785 758 761 758 q 835 768 809 758 m 420 -43 q 490 0 461 -43 q 520 -34 501 -19 q 564 -43 540 -43 l 564 -113 q 576 -131 564 -131 q 581 -119 576 -125 q 593 -113 586 -113 q 606 -121 600 -113 q 611 -140 611 -129 q 601 -158 611 -152 q 576 -164 591 -164 l 391 -164 q 374 -158 382 -164 q 367 -140 367 -152 q 374 -121 367 -129 q 391 -113 382 -113 q 401 -131 401 -113 q 415 -125 407 -131 q 420 -105 420 -117 l 420 -43 z "},"జ":{"ha":790,"x_min":0,"x_max":738,"o":"m 437 203 q 461 179 461 203 q 453 164 461 164 q 437 174 437 164 q 423 147 423 174 l 423 105 q 434 74 423 86 q 461 62 445 62 l 549 62 q 581 74 568 62 q 594 105 594 86 l 594 203 q 584 220 594 212 q 559 227 575 227 q 554 214 559 220 q 541 209 548 209 q 524 227 524 209 q 532 247 524 238 q 549 255 540 255 l 738 255 l 738 105 q 706 25 738 57 q 629 -8 674 -8 l 420 -8 q 350 45 372 -8 q 279 -8 327 -8 l 104 -8 q 30 16 62 -8 q 0 80 0 45 l 0 305 q 24 356 0 335 q 86 375 51 375 l 174 375 q 212 390 196 375 q 227 428 227 407 l 227 498 q 215 522 227 512 q 185 532 203 532 q 156 522 168 532 q 144 498 144 512 l 144 453 q 150 465 144 460 q 164 471 156 471 q 182 445 182 471 q 172 433 182 439 q 147 428 161 428 l 0 428 l 0 532 q 24 583 0 562 q 86 602 51 602 l 263 602 q 324 582 299 602 q 350 532 350 562 l 350 461 q 369 439 350 450 q 420 431 390 431 l 541 431 q 580 444 564 431 q 594 481 594 458 l 594 532 q 589 559 594 546 q 576 568 583 568 q 572 556 576 562 q 559 549 567 549 q 541 576 541 549 q 551 595 541 586 q 576 602 560 602 l 738 602 l 738 437 q 718 382 738 405 q 672 358 699 358 l 401 358 q 350 391 367 358 q 319 332 350 356 q 252 305 294 305 l 193 305 q 158 292 172 305 q 144 255 144 276 l 144 94 q 152 72 144 81 q 174 62 161 62 l 244 62 q 269 72 259 62 q 279 94 279 81 l 279 147 q 263 174 279 174 q 252 164 263 164 q 235 179 235 164 q 243 195 235 187 q 263 203 251 203 l 437 203 z "},"ఝ":{"ha":1537,"x_min":0,"x_max":1485,"o":"m 273 664 q 247 637 273 637 q 235 647 235 637 q 246 615 235 627 q 273 602 257 602 l 358 602 q 382 611 372 602 q 393 637 393 621 l 393 776 q 498 805 425 805 q 576 784 525 805 q 651 758 627 758 q 699 768 674 758 q 690 789 690 782 q 699 805 690 797 q 726 813 709 813 q 757 801 742 813 q 769 763 769 787 q 746 718 769 739 q 690 698 723 698 l 594 707 q 532 682 548 707 l 532 602 l 594 602 q 670 573 639 602 q 702 498 702 541 l 702 140 l 706 140 q 725 115 725 140 q 702 97 725 97 q 714 71 699 80 q 750 62 730 62 l 918 62 q 958 81 942 62 q 971 133 971 102 l 971 498 q 918 532 971 532 q 882 525 897 532 q 867 508 867 519 q 892 481 892 508 q 884 468 892 473 q 865 461 878 461 q 841 473 852 461 q 830 498 830 485 l 830 602 l 1004 602 q 1082 578 1050 602 q 1116 514 1116 549 l 1116 133 q 1138 115 1138 123 q 1121 86 1138 86 q 1164 62 1127 62 l 1296 62 q 1339 115 1339 62 l 1339 498 q 1287 532 1339 532 q 1250 525 1266 532 q 1234 508 1234 519 q 1261 481 1261 508 q 1253 468 1261 473 q 1234 461 1247 461 q 1210 473 1221 461 q 1199 498 1199 485 l 1199 602 l 1373 602 q 1451 578 1419 602 q 1485 514 1485 549 l 1485 94 q 1452 22 1485 53 q 1373 -8 1419 -8 l 1122 -8 q 1078 22 1090 -6 q 1015 -8 1050 -8 l 733 -8 q 667 27 693 -8 q 584 -8 632 -8 l 123 -8 q 35 27 72 -8 q 0 115 0 64 l 0 498 q 24 573 0 541 q 86 602 51 602 l 99 602 q 97 619 97 611 l 97 655 q 70 690 97 683 q 103 707 77 707 q 162 694 129 707 q 211 682 195 682 l 252 690 q 267 683 260 690 q 273 664 273 674 m 209 532 q 162 509 180 532 q 144 453 144 487 l 144 115 q 162 77 144 91 q 209 62 180 62 l 498 62 q 541 75 524 62 q 559 115 559 91 l 559 471 q 541 514 559 496 q 498 532 524 532 l 209 532 m 1197 -140 q 1162 -164 1197 -164 l 979 -164 q 953 -140 953 -164 q 960 -121 953 -129 q 979 -113 967 -113 q 987 -131 987 -113 q 1006 -105 1006 -131 l 1006 -43 q 1076 0 1050 -43 q 1106 -34 1087 -19 q 1151 -43 1125 -43 l 1151 -113 q 1162 -131 1151 -131 q 1169 -120 1162 -125 q 1180 -113 1173 -113 q 1197 -140 1197 -113 z "},"ఞ":{"ha":1066,"x_min":0,"x_max":1014,"o":"m 330 203 q 318 239 330 223 q 287 255 305 255 l 182 255 q 156 243 168 255 q 144 217 144 231 l 144 94 q 152 72 144 81 q 174 62 161 62 l 330 62 l 330 203 m 961 358 q 987 385 961 385 q 1006 377 998 385 q 1014 358 1014 369 l 1014 263 q 926 244 982 244 l 752 270 l 702 263 l 702 80 q 677 16 702 45 q 611 -8 650 -8 l 474 -8 l 474 -42 q 485 -67 474 -57 q 508 -77 495 -77 l 559 -77 q 561 -61 556 -69 q 575 -53 567 -53 q 594 -70 594 -53 l 594 -148 l 409 -148 q 354 -130 378 -148 q 330 -88 330 -112 l 330 -8 l 86 -8 q 24 11 51 -8 q 0 62 0 34 l 0 255 q 26 305 0 284 q 86 326 51 326 l 385 326 q 434 303 415 326 q 453 255 453 284 l 453 62 l 508 62 q 544 75 528 62 q 559 115 559 91 l 559 481 q 546 519 559 503 q 514 532 532 532 l 461 532 q 434 522 445 532 q 423 498 423 512 l 423 445 q 437 420 423 431 q 444 433 437 426 q 461 437 452 437 q 471 423 471 437 q 461 400 471 409 q 437 391 452 391 l 252 391 q 235 397 243 391 q 227 410 227 402 q 244 437 227 437 q 257 431 251 437 q 263 410 263 421 q 276 426 270 418 q 279 445 279 436 l 279 490 q 267 520 279 508 q 235 532 252 532 l 193 532 q 144 508 144 532 l 144 445 q 156 410 144 418 q 174 437 156 437 q 187 431 180 437 q 193 412 193 421 q 179 397 193 402 q 147 391 164 391 l 0 391 l 0 532 q 24 583 0 562 q 86 602 51 602 l 263 602 q 318 583 295 602 q 350 532 345 564 q 379 583 354 564 q 437 602 404 602 l 594 602 q 670 578 639 602 q 702 514 702 549 l 702 350 q 785 358 730 358 l 785 602 l 961 602 q 980 595 971 602 q 987 576 987 586 q 969 560 987 560 q 943 584 943 560 q 929 560 929 581 l 929 332 q 979 340 943 332 q 966 346 971 340 q 961 358 961 351 z "},"ట":{"ha":843,"x_min":0,"x_max":790,"o":"m 314 768 q 294 742 314 742 q 278 750 286 742 q 270 768 270 757 q 267 752 267 768 l 267 647 q 193 611 214 647 q 123 647 169 647 l 123 734 q 118 754 123 744 q 104 760 110 760 q 98 748 104 754 q 86 742 93 742 q 75 750 80 742 q 70 766 70 757 q 94 787 70 787 l 287 787 q 314 768 314 787 m 279 164 q 260 179 260 164 q 271 195 260 187 q 297 203 283 203 l 479 203 q 498 196 492 203 q 506 184 506 192 q 501 170 506 176 q 490 164 496 164 q 471 185 471 164 q 462 173 466 185 q 458 147 458 161 l 458 115 q 472 77 458 91 q 506 62 485 62 l 594 62 q 631 75 615 62 q 647 115 647 91 l 647 490 q 633 520 647 508 q 602 532 619 532 l 567 532 q 532 508 549 532 q 549 489 549 508 q 532 471 549 471 q 512 479 522 471 q 506 498 506 489 l 506 602 l 698 602 q 763 576 736 602 q 790 514 790 549 l 790 94 q 758 22 790 53 q 682 -8 726 -8 l 453 -8 q 383 45 402 -8 q 314 -8 361 -8 l 123 -8 q 35 27 72 -8 q 0 115 0 64 l 0 498 q 30 573 0 541 q 104 602 62 602 l 260 602 q 323 582 297 602 q 350 532 350 562 l 350 391 q 329 330 350 356 q 279 305 308 305 l 174 305 l 174 391 l 182 399 q 200 401 190 401 q 209 393 209 401 q 200 375 209 385 q 219 380 211 375 q 227 391 227 385 l 227 498 q 212 522 227 512 q 179 532 196 532 q 152 522 161 532 q 144 498 144 512 l 144 115 q 158 75 144 91 q 193 62 172 62 l 279 62 q 304 77 294 62 q 314 115 314 91 l 314 147 q 309 173 314 161 q 297 185 303 185 q 291 170 297 176 q 279 164 286 164 z "},"ఠ":{"ha":822,"x_min":0,"x_max":769,"o":"m 209 532 q 162 509 180 532 q 144 453 144 487 l 144 115 q 162 77 144 91 q 209 62 180 62 l 498 62 q 541 75 524 62 q 559 115 559 91 l 559 471 q 541 514 559 496 q 498 532 524 532 l 209 532 m 273 664 q 247 637 273 637 q 235 647 235 637 q 246 615 235 627 q 273 602 257 602 l 358 602 q 382 611 372 602 q 393 637 393 621 l 393 776 q 498 805 425 805 q 576 784 525 805 q 651 758 627 758 q 699 768 674 758 q 690 789 690 782 q 699 805 690 797 q 726 813 709 813 q 757 801 742 813 q 769 763 769 787 q 746 718 769 739 q 690 698 723 698 l 594 707 q 532 682 548 707 l 532 602 l 594 602 q 670 573 639 602 q 702 498 702 541 l 702 115 q 669 27 702 64 q 584 -8 632 -8 l 123 -8 q 35 27 72 -8 q 0 115 0 64 l 0 498 q 24 573 0 541 q 86 602 51 602 l 99 602 q 97 619 97 611 l 97 655 q 70 690 97 683 q 103 707 77 707 q 162 694 129 707 q 211 682 195 682 l 252 690 q 267 683 260 690 q 273 664 273 674 m 437 322 q 433 305 433 322 l 433 217 l 287 217 l 287 287 q 270 314 287 314 q 252 297 270 297 q 241 303 246 297 q 235 322 235 313 q 260 340 235 340 l 453 340 q 479 322 479 340 q 461 297 479 297 q 437 322 437 297 z "},"డ":{"ha":809,"x_min":0,"x_max":757,"o":"m 259 664 q 236 637 259 637 q 223 647 223 637 q 234 615 223 627 q 259 602 244 602 l 346 602 q 370 613 361 602 q 382 637 382 621 l 382 776 q 485 805 413 805 q 564 784 512 805 q 639 758 615 758 q 686 768 663 758 q 678 788 678 779 q 688 806 678 797 q 714 813 698 813 q 744 801 731 813 q 757 763 757 787 q 734 718 757 739 q 678 698 709 698 l 581 707 q 543 699 559 707 q 520 682 527 694 l 520 602 l 611 602 q 677 578 650 602 q 702 514 702 549 l 698 445 l 524 445 q 506 453 512 445 q 498 469 498 460 q 515 490 498 490 q 532 461 532 490 q 551 473 543 461 q 559 499 559 485 q 543 522 559 512 q 506 532 527 532 l 200 532 q 160 514 176 532 q 144 471 144 496 l 144 105 q 155 73 144 86 q 182 62 168 62 l 244 62 q 269 74 259 62 q 279 105 279 86 l 279 140 q 274 164 279 155 q 260 174 268 174 q 243 156 260 156 q 227 177 227 156 q 233 195 227 187 q 252 203 243 203 l 444 203 q 463 195 455 203 q 471 177 471 187 q 454 156 471 156 q 437 174 437 156 q 423 147 423 174 l 423 94 q 432 72 423 81 q 453 62 441 62 l 514 62 q 546 75 532 62 q 559 115 559 91 l 559 279 q 548 310 559 297 q 524 322 538 322 l 506 322 q 453 305 453 322 l 453 270 q 471 287 453 287 q 498 263 498 287 q 461 235 498 235 q 432 246 444 235 q 420 270 420 257 l 420 396 l 627 396 q 681 373 659 396 q 702 314 702 350 l 702 94 q 670 21 702 53 q 594 -8 639 -8 l 409 -8 q 350 35 366 -8 q 279 -8 330 -8 l 123 -8 q 35 21 72 -8 q 0 94 0 53 l 0 508 q 24 575 0 546 q 86 602 51 602 q 85 619 85 611 l 85 655 q 57 690 85 683 q 93 707 69 707 q 149 694 118 707 q 198 682 180 682 l 241 690 q 253 682 247 690 q 259 664 259 674 z "},"ఢ":{"ha":809,"x_min":0,"x_max":757,"o":"m 259 664 q 236 637 259 637 q 223 647 223 637 q 234 615 223 627 q 259 602 244 602 l 346 602 q 370 613 361 602 q 382 637 382 621 l 382 776 q 485 805 413 805 q 564 784 512 805 q 639 758 615 758 q 686 768 663 758 q 678 788 678 779 q 688 806 678 797 q 714 813 698 813 q 744 801 731 813 q 757 763 757 787 q 734 718 757 739 q 678 698 709 698 l 581 707 q 543 699 559 707 q 520 682 527 694 l 520 602 l 611 602 q 677 578 650 602 q 702 514 702 549 l 698 445 l 524 445 q 506 453 512 445 q 498 469 498 460 q 515 490 498 490 q 532 461 532 490 q 551 473 543 461 q 559 499 559 485 q 543 522 559 512 q 506 532 527 532 l 200 532 q 160 514 176 532 q 144 471 144 496 l 144 105 q 155 73 144 86 q 182 62 168 62 l 244 62 q 269 74 259 62 q 279 105 279 86 l 279 140 q 274 164 279 155 q 260 174 268 174 q 243 156 260 156 q 227 177 227 156 q 233 195 227 187 q 252 203 243 203 l 444 203 q 463 195 455 203 q 471 177 471 187 q 454 156 471 156 q 437 174 437 156 q 423 147 423 174 l 423 94 q 432 72 423 81 q 453 62 441 62 l 514 62 q 546 75 532 62 q 559 115 559 91 l 559 279 q 548 310 559 297 q 524 322 538 322 l 506 322 q 453 305 453 322 l 453 270 q 471 287 453 287 q 498 263 498 287 q 461 235 498 235 q 432 246 444 235 q 420 270 420 257 l 420 396 l 627 396 q 681 373 659 396 q 702 314 702 350 l 702 94 q 670 21 702 53 q 594 -8 639 -8 l 409 -8 q 350 35 366 -8 q 279 -8 330 -8 l 123 -8 q 35 21 72 -8 q 0 94 0 53 l 0 508 q 24 575 0 546 q 86 602 51 602 q 85 619 85 611 l 85 655 q 57 690 85 683 q 93 707 69 707 q 149 694 118 707 q 198 682 180 682 l 241 690 q 253 682 247 690 q 259 664 259 674 m 279 -43 q 350 0 324 -43 q 380 -34 361 -19 q 423 -43 399 -43 l 423 -113 q 437 -131 423 -131 q 453 -113 437 -113 q 465 -121 460 -113 q 471 -140 471 -129 q 437 -164 471 -164 l 252 -164 q 227 -140 227 -164 q 233 -121 227 -129 q 251 -113 243 -113 q 260 -131 260 -113 q 279 -105 279 -131 l 279 -43 z "},"ణ":{"ha":824,"x_min":0,"x_max":771,"o":"m 252 133 q 279 94 279 133 l 279 -8 l 86 -8 q 24 16 51 -8 q 0 80 0 45 l 0 235 q 19 286 0 265 q 70 305 42 305 q 19 319 42 305 q 0 358 0 337 l 0 514 q 30 578 0 549 q 104 602 62 602 l 330 602 q 369 583 353 602 q 383 532 383 562 q 399 583 383 562 q 437 602 417 602 l 664 602 q 739 573 707 602 q 771 498 771 541 l 771 94 q 746 22 771 53 q 682 -8 720 -8 l 490 -8 q 414 22 445 -8 q 383 94 383 53 l 383 322 l 549 322 q 568 315 560 322 q 576 297 576 308 q 559 279 576 279 q 541 297 541 279 q 532 287 536 297 q 527 263 527 278 l 527 105 q 541 74 527 86 q 576 62 556 62 q 613 73 597 62 q 627 105 627 86 l 627 481 q 613 519 627 503 q 576 532 597 532 l 506 532 q 472 522 485 532 q 458 498 458 512 l 458 445 q 471 420 458 420 q 490 437 471 437 q 506 410 506 437 q 501 397 506 402 q 490 391 496 391 l 287 391 q 268 399 278 391 q 260 417 260 409 q 267 432 260 426 q 279 437 273 437 q 292 433 286 437 q 297 420 297 426 q 314 445 314 420 l 314 498 q 299 522 314 512 q 260 532 283 532 l 200 532 q 160 519 176 532 q 144 481 144 503 l 144 375 q 158 351 144 362 q 193 340 172 340 l 244 340 l 244 287 q 213 286 230 287 q 193 287 196 284 q 158 275 172 287 q 144 235 144 259 l 144 105 q 158 74 144 86 q 198 62 172 62 q 244 80 223 62 q 227 103 227 89 q 233 125 227 117 q 252 133 243 133 z "},"త":{"ha":803,"x_min":0,"x_max":750,"o":"m 209 508 q 233 481 233 508 q 209 461 233 461 q 184 473 195 461 q 174 498 174 485 l 174 602 l 287 602 q 251 683 251 632 q 294 768 251 734 q 391 805 334 805 q 471 784 420 805 q 545 758 522 758 q 594 768 568 758 q 584 789 584 782 q 594 805 584 797 q 619 813 603 813 q 651 801 635 813 q 664 763 664 787 q 642 718 664 739 q 584 698 616 698 l 489 707 q 436 687 457 707 q 415 644 415 667 q 426 602 415 621 l 607 602 q 672 578 647 602 q 699 514 699 549 l 699 420 q 736 388 723 410 q 750 340 750 367 l 750 94 q 723 21 750 53 q 656 -8 696 -8 l 120 -8 q 34 16 70 -8 q 0 80 0 45 l 0 322 q 29 398 0 367 q 101 428 59 428 l 252 428 q 313 409 287 428 q 335 358 335 386 l 335 209 q 314 154 335 176 q 260 133 292 133 l 168 133 l 168 209 q 185 235 168 235 q 198 225 196 235 q 195 203 203 212 q 213 212 206 203 q 220 235 220 222 l 220 322 q 208 348 220 338 q 179 358 195 358 q 153 348 163 358 q 144 322 144 338 l 144 115 q 153 75 144 91 q 176 62 163 62 l 556 62 q 592 75 578 62 q 607 115 607 91 l 607 322 q 595 348 607 338 q 565 358 583 358 q 520 322 520 358 l 520 227 q 531 209 520 216 q 556 203 541 203 q 546 217 546 212 q 565 235 546 235 q 581 209 581 235 l 581 133 l 490 133 q 429 152 455 133 q 404 203 404 172 l 404 350 q 429 405 404 382 q 490 428 455 428 l 556 428 l 556 481 q 541 519 556 503 q 508 532 527 532 l 262 532 q 209 508 209 532 z "},"థ":{"ha":819,"x_min":0,"x_max":766,"o":"m 249 690 q 268 663 268 690 q 244 637 268 637 q 231 647 231 637 q 242 615 231 627 q 268 602 252 602 l 354 602 q 379 611 369 602 q 390 637 390 621 l 390 776 q 495 805 421 805 q 573 784 522 805 q 647 758 624 758 q 696 768 670 758 q 686 787 686 777 q 696 805 686 797 q 722 813 706 813 q 754 801 739 813 q 766 763 766 787 q 743 718 766 739 q 686 698 720 698 l 591 707 q 528 682 544 707 l 528 602 l 619 602 q 680 575 655 602 q 702 508 702 546 l 702 105 q 670 22 702 57 q 594 -8 639 -8 l 409 -8 q 350 45 366 -8 q 279 -8 330 -8 l 104 -8 q 30 21 62 -8 q 0 94 0 53 l 0 508 q 29 572 0 546 q 94 602 57 599 q 93 619 93 611 l 93 655 q 67 690 93 683 q 100 707 73 707 q 159 694 126 707 q 208 682 192 682 l 249 690 m 437 185 q 423 147 423 179 l 423 105 q 432 74 423 86 q 453 62 441 62 l 524 62 q 548 80 538 62 q 559 123 559 97 l 559 471 q 540 514 559 496 q 490 532 519 532 l 209 532 q 162 514 180 532 q 144 471 144 496 l 144 115 q 158 75 144 91 q 193 62 172 62 l 244 62 q 269 74 259 62 q 279 105 279 86 l 279 147 q 260 185 279 176 q 244 164 260 164 q 232 170 238 164 q 227 184 227 176 q 235 197 227 192 q 252 203 243 203 l 453 203 q 465 197 460 203 q 471 184 471 192 q 465 170 471 176 q 453 164 460 164 q 437 185 437 164 m 279 -43 q 350 0 324 -43 q 380 -34 361 -19 q 423 -43 399 -43 l 423 -113 q 437 -131 423 -131 q 453 -113 437 -113 q 465 -121 460 -113 q 471 -140 471 -129 q 437 -164 471 -164 l 252 -164 q 227 -140 227 -164 q 233 -121 227 -129 q 251 -113 243 -113 q 260 -131 260 -113 q 279 -105 279 -131 l 279 -43 m 471 390 q 450 367 471 367 q 435 374 442 367 q 428 391 428 382 q 423 375 423 391 l 423 287 l 279 287 l 279 358 q 260 385 279 385 q 244 367 260 367 q 231 374 238 367 q 227 391 227 382 q 252 410 227 410 l 444 410 q 463 405 455 410 q 471 390 471 399 z "},"ద":{"ha":819,"x_min":0,"x_max":766,"o":"m 437 185 q 423 147 423 179 l 423 105 q 432 74 423 86 q 453 62 441 62 l 524 62 q 548 80 538 62 q 559 123 559 97 l 559 471 q 540 514 559 496 q 490 532 519 532 l 209 532 q 162 514 180 532 q 144 471 144 496 l 144 115 q 158 75 144 91 q 193 62 172 62 l 244 62 q 269 74 259 62 q 279 105 279 86 l 279 147 q 260 185 279 176 q 244 164 260 164 q 232 170 238 164 q 227 184 227 176 q 235 197 227 192 q 252 203 243 203 l 453 203 q 465 197 460 203 q 471 184 471 192 q 465 170 471 176 q 453 164 460 164 q 437 185 437 164 m 249 690 q 268 663 268 690 q 244 637 268 637 q 231 647 231 637 q 242 615 231 627 q 268 602 252 602 l 354 602 q 379 611 369 602 q 390 637 390 621 l 390 776 q 495 805 421 805 q 573 784 522 805 q 647 758 624 758 q 696 768 670 758 q 686 787 686 777 q 696 805 686 797 q 722 813 706 813 q 754 801 739 813 q 766 763 766 787 q 743 718 766 739 q 686 698 720 698 l 591 707 q 528 682 544 707 l 528 602 l 619 602 q 680 575 655 602 q 702 508 702 546 l 702 105 q 670 22 702 57 q 594 -8 639 -8 l 409 -8 q 350 45 366 -8 q 279 -8 330 -8 l 104 -8 q 30 21 62 -8 q 0 94 0 53 l 0 508 q 24 575 0 546 q 86 602 51 602 l 94 602 q 93 619 93 611 l 93 655 q 67 690 93 683 q 100 707 73 707 q 159 694 126 707 q 208 682 192 682 l 249 690 z "},"ధ":{"ha":819,"x_min":0,"x_max":766,"o":"m 249 690 q 268 663 268 690 q 244 637 268 637 q 231 647 231 637 q 242 615 231 627 q 268 602 252 602 l 354 602 q 379 611 369 602 q 390 637 390 621 l 390 776 q 495 805 421 805 q 573 784 522 805 q 647 758 624 758 q 696 768 670 758 q 686 787 686 777 q 696 805 686 797 q 722 813 706 813 q 754 801 739 813 q 766 763 766 787 q 743 718 766 739 q 686 698 720 698 l 591 707 q 528 682 544 707 l 528 602 l 619 602 q 680 575 655 602 q 702 508 702 546 l 702 105 q 670 22 702 57 q 594 -8 639 -8 l 409 -8 q 350 45 366 -8 q 279 -8 330 -8 l 104 -8 q 30 21 62 -8 q 0 94 0 53 l 0 508 q 24 575 0 546 q 86 602 51 602 l 94 602 q 93 619 93 611 l 93 655 q 67 690 93 683 q 100 707 73 707 q 159 694 126 707 q 208 682 192 682 l 249 690 m 437 185 q 423 147 423 179 l 423 105 q 432 74 423 86 q 453 62 441 62 l 524 62 q 548 80 538 62 q 559 123 559 97 l 559 471 q 540 514 559 496 q 490 532 519 532 l 209 532 q 162 514 180 532 q 144 471 144 496 l 144 115 q 158 75 144 91 q 193 62 172 62 l 244 62 q 269 74 259 62 q 279 105 279 86 l 279 147 q 260 185 279 176 q 244 164 260 164 q 232 170 238 164 q 227 184 227 176 q 235 197 227 192 q 252 203 243 203 l 453 203 q 465 197 460 203 q 471 184 471 192 q 465 170 471 176 q 453 164 460 164 q 437 185 437 164 m 279 -43 q 350 0 324 -43 q 380 -34 361 -19 q 423 -43 399 -43 l 423 -113 q 437 -131 423 -131 q 453 -113 437 -113 q 465 -121 460 -113 q 471 -140 471 -129 q 437 -164 471 -164 l 252 -164 q 227 -140 227 -164 q 233 -121 227 -129 q 251 -113 243 -113 q 260 -131 260 -113 q 279 -105 279 -131 l 279 -43 z "},"న":{"ha":755,"x_min":0,"x_max":702,"o":"m 105 508 q 129 481 129 508 q 105 461 129 461 q 81 473 91 461 q 70 498 70 485 l 70 602 l 150 602 q 115 682 115 631 q 156 769 115 734 q 252 805 196 805 q 332 784 281 805 q 407 758 383 758 q 455 768 431 758 q 445 789 445 782 q 456 805 445 797 q 482 813 466 813 q 512 801 498 813 q 525 763 525 787 q 503 718 525 739 q 445 698 477 698 l 350 707 q 297 687 318 707 q 276 644 276 667 q 287 602 276 621 l 611 602 q 677 578 650 602 q 702 514 702 549 l 702 94 q 670 21 702 53 q 594 -8 639 -8 l 385 -8 q 311 21 343 -8 q 281 94 281 53 l 281 217 q 268 257 281 239 q 235 270 252 270 l 182 270 q 155 257 168 270 q 144 217 144 239 l 144 45 q 150 26 144 34 q 164 18 156 18 l 158 35 q 163 42 158 38 q 174 45 168 45 q 187 39 180 45 q 193 22 193 34 q 180 2 193 11 q 158 -8 172 -8 l 0 -8 l 0 255 q 24 316 0 291 q 88 343 53 343 l 332 343 q 398 317 370 343 q 425 255 425 291 l 425 105 q 436 73 425 86 q 463 62 449 62 l 516 62 q 546 74 533 62 q 559 105 559 86 l 559 481 q 544 519 559 503 q 508 532 528 532 l 158 532 q 105 508 105 532 z "},"ప":{"ha":755,"x_min":0,"x_max":702,"o":"m 144 94 q 156 72 144 81 q 185 62 168 62 q 215 72 203 62 q 227 94 227 81 l 227 255 q 215 278 227 268 q 185 287 203 287 q 156 278 168 287 q 144 255 144 268 l 144 94 m 367 45 q 297 -8 348 -8 l 88 -8 q 24 11 53 -8 q 0 62 0 34 l 0 270 q 24 334 0 305 q 88 358 53 358 l 281 358 q 345 334 318 358 q 370 270 370 305 l 370 123 q 374 128 372 123 q 375 133 374 133 q 394 127 386 133 q 402 114 402 121 q 397 101 402 107 q 385 94 391 94 q 396 72 386 81 q 420 62 405 62 l 516 62 q 546 75 533 62 q 559 115 559 91 l 559 481 q 549 517 559 503 q 525 532 540 532 l 471 532 q 461 525 469 532 q 455 514 458 519 q 471 498 471 514 q 463 487 471 492 q 446 481 457 481 q 426 489 436 481 q 420 508 420 496 l 420 602 l 611 602 q 677 578 650 602 q 702 514 702 549 l 702 86 q 677 19 702 48 q 611 -8 650 -8 l 437 -8 q 367 45 383 -8 m 490 768 q 479 788 479 779 q 491 805 479 797 q 518 813 503 813 q 546 801 533 813 q 559 761 559 787 q 536 715 559 736 q 479 690 512 690 l 385 707 q 353 704 367 707 q 332 690 340 698 l 332 602 q 313 551 332 575 q 263 532 292 532 l 0 532 l 0 637 q 10 662 0 651 q 41 672 19 672 q 62 655 62 672 q 57 638 62 645 q 45 631 51 631 q 64 610 51 616 q 88 602 73 602 l 164 602 q 185 610 176 602 q 193 631 193 618 l 193 776 q 271 795 223 795 q 375 777 318 795 q 449 758 433 758 q 476 761 466 758 l 490 768 z "},"ఫ":{"ha":755,"x_min":0,"x_max":702,"o":"m 297 -43 q 367 0 342 -43 q 398 -34 378 -19 q 441 -43 418 -43 l 441 -113 q 455 -131 441 -131 q 471 -113 455 -113 q 484 -121 477 -113 q 490 -140 490 -129 q 477 -158 490 -152 q 455 -164 469 -164 l 273 -164 q 244 -140 244 -164 q 273 -113 244 -113 q 281 -131 281 -113 q 297 -105 297 -131 l 297 -43 m 144 94 q 156 72 144 81 q 185 62 168 62 q 215 72 203 62 q 227 94 227 81 l 227 255 q 215 278 227 268 q 185 287 203 287 q 156 278 168 287 q 144 255 144 268 l 144 94 m 367 45 q 297 -8 348 -8 l 88 -8 q 24 11 53 -8 q 0 62 0 34 l 0 270 q 24 334 0 305 q 88 358 53 358 l 281 358 q 345 334 318 358 q 370 270 370 305 l 370 123 q 374 128 372 123 q 375 133 374 133 q 394 127 386 133 q 402 114 402 121 q 397 101 402 107 q 385 94 391 94 q 396 72 386 81 q 420 62 405 62 l 516 62 q 546 75 533 62 q 559 115 559 91 l 559 481 q 549 517 559 503 q 525 532 540 532 l 471 532 q 461 525 469 532 q 455 514 458 519 q 471 498 471 514 q 463 487 471 492 q 446 481 457 481 q 426 489 436 481 q 420 508 420 496 l 420 602 l 611 602 q 677 578 650 602 q 702 514 702 549 l 702 86 q 677 19 702 48 q 611 -8 650 -8 l 437 -8 q 367 45 383 -8 m 490 768 q 479 788 479 779 q 491 805 479 797 q 518 813 503 813 q 546 801 533 813 q 559 761 559 787 q 536 715 559 736 q 479 690 512 690 l 385 707 q 353 704 367 707 q 332 690 340 698 l 332 602 q 313 551 332 575 q 263 532 292 532 l 0 532 l 0 637 q 10 662 0 651 q 41 672 19 672 q 62 655 62 672 q 57 638 62 645 q 45 631 51 631 q 64 610 51 616 q 88 602 73 602 l 164 602 q 185 610 176 602 q 193 631 193 618 l 193 776 q 271 795 223 795 q 375 777 318 795 q 449 758 433 758 q 476 761 466 758 l 490 768 z "},"బ":{"ha":755,"x_min":0,"x_max":702,"o":"m 437 203 q 461 179 461 203 q 453 164 461 164 q 437 174 437 164 q 423 147 423 174 l 423 105 q 434 74 423 86 q 461 62 445 62 l 514 62 q 546 75 532 62 q 559 115 559 91 l 559 498 q 546 522 559 512 q 514 532 532 532 l 490 532 q 453 508 453 532 q 479 481 479 508 q 471 467 479 473 q 451 461 463 461 q 429 470 439 461 q 420 490 420 479 l 420 602 l 619 602 q 680 578 655 602 q 702 514 702 549 l 702 94 q 677 21 702 53 q 611 -8 650 -8 l 420 -8 q 350 45 372 -8 q 279 -8 327 -8 l 104 -8 q 30 16 62 -8 q 0 80 0 45 l 0 305 q 24 356 0 335 q 86 375 51 375 l 174 375 q 212 390 196 375 q 227 428 227 407 l 227 498 q 215 522 227 512 q 185 532 203 532 q 156 522 168 532 q 144 498 144 512 l 144 453 q 150 465 144 460 q 164 471 156 471 q 182 445 182 471 q 172 433 182 439 q 147 428 161 428 l 0 428 l 0 532 q 24 583 0 562 q 86 602 51 602 l 263 602 q 324 582 299 602 q 350 532 350 562 l 350 391 q 319 332 350 356 q 252 305 294 305 l 182 305 q 155 292 168 305 q 144 255 144 276 l 144 94 q 152 72 144 81 q 174 62 161 62 l 244 62 q 269 72 259 62 q 279 94 279 81 l 279 147 q 263 174 279 174 q 252 164 263 164 q 235 179 235 164 q 243 195 235 187 q 263 203 251 203 l 437 203 z "},"భ":{"ha":845,"x_min":0,"x_max":792,"o":"m 437 203 q 461 179 461 203 q 453 164 461 164 q 437 174 437 164 q 423 147 423 174 l 423 105 q 434 74 423 86 q 461 62 445 62 l 514 62 q 546 75 532 62 q 559 115 559 91 l 559 498 q 546 522 559 512 q 514 532 532 532 l 471 532 q 418 508 418 532 q 442 481 442 508 q 435 467 442 473 q 416 461 428 461 q 393 473 404 461 q 383 498 383 485 l 383 602 l 417 602 q 380 682 380 629 q 421 768 380 734 q 520 805 461 805 q 598 787 546 805 q 669 769 650 769 q 703 768 688 769 q 722 768 718 766 q 714 788 714 779 q 723 806 714 797 q 749 813 733 813 q 778 800 765 813 q 792 763 792 787 q 768 718 792 739 q 714 698 744 698 l 615 707 q 551 687 578 707 q 524 642 524 667 q 535 623 524 635 q 554 602 546 611 l 611 602 q 677 575 650 602 q 702 508 702 546 l 702 105 q 677 22 702 57 q 611 -8 650 -8 l 420 -8 q 350 45 372 -8 q 279 -8 327 -8 l 104 -8 q 30 16 62 -8 q 0 80 0 45 l 0 305 q 24 356 0 335 q 86 375 51 375 l 174 375 q 212 390 196 375 q 227 428 227 407 l 227 498 q 215 522 227 512 q 185 532 203 532 q 156 522 168 532 q 144 498 144 512 l 144 453 q 150 465 144 460 q 164 471 156 471 q 182 445 182 471 q 172 433 182 439 q 147 428 161 428 l 0 428 l 0 532 q 24 583 0 562 q 86 602 51 602 l 263 602 q 324 582 299 602 q 350 532 350 562 l 350 391 q 319 332 350 356 q 252 305 294 305 l 182 305 q 155 292 168 305 q 144 255 144 276 l 144 94 q 152 72 144 81 q 174 62 161 62 l 244 62 q 269 72 259 62 q 279 94 279 81 l 279 147 q 263 174 279 174 q 252 164 263 164 q 235 179 235 164 q 243 195 235 187 q 263 203 251 203 l 437 203 m 279 -43 q 350 0 324 -43 q 380 -34 361 -19 q 423 -43 399 -43 l 423 -113 q 437 -131 423 -131 q 453 -113 437 -113 q 465 -121 460 -113 q 471 -140 471 -129 q 437 -164 471 -164 l 252 -164 q 227 -140 227 -164 q 233 -121 227 -129 q 249 -113 243 -113 q 263 -131 263 -113 q 279 -105 279 -131 l 279 -43 z "},"మ":{"ha":1125,"x_min":0,"x_max":1073,"o":"m 107 508 q 133 481 133 508 q 125 468 133 473 q 105 461 118 461 q 82 473 93 461 q 72 498 72 485 l 72 602 l 152 602 q 117 682 117 631 q 157 769 117 734 q 255 805 198 805 q 334 784 283 805 q 409 758 385 758 q 457 768 433 758 q 449 788 449 779 q 458 806 449 797 q 485 813 468 813 q 514 801 501 813 q 527 763 527 787 q 504 718 527 739 q 449 698 479 698 l 351 707 q 299 687 319 707 q 278 643 278 667 q 291 602 278 618 l 611 602 q 677 578 650 602 q 702 514 702 549 l 702 133 q 722 127 714 133 q 730 115 730 121 q 709 86 730 86 q 754 62 723 62 l 888 62 q 917 77 905 62 q 929 115 929 91 l 929 498 q 915 522 929 512 q 877 532 899 532 q 841 525 856 532 q 825 508 825 519 q 849 481 849 508 q 825 461 849 461 q 801 473 811 461 q 790 498 790 485 l 790 602 l 964 602 q 1041 578 1007 602 q 1073 514 1073 549 l 1073 94 q 1041 21 1073 53 q 964 -8 1007 -8 l 694 -8 q 669 13 672 -3 q 611 -8 645 -8 l 437 -8 q 367 45 383 -8 q 297 -8 348 -8 l 88 -8 q 24 11 53 -8 q 0 62 0 34 l 0 270 q 24 334 0 305 q 88 358 53 358 l 281 358 q 345 334 318 358 q 370 270 370 305 l 370 123 q 374 128 372 123 q 375 133 374 133 q 394 127 386 133 q 402 114 402 121 q 397 101 402 107 q 385 94 391 94 q 396 72 386 81 q 420 62 405 62 l 516 62 q 546 75 533 62 q 559 115 559 91 l 559 481 q 544 519 559 503 q 508 532 528 532 l 160 532 q 107 508 107 532 m 144 94 q 156 72 144 81 q 185 62 168 62 q 215 72 203 62 q 227 94 227 81 l 227 255 q 215 278 227 268 q 185 287 203 287 q 156 278 168 287 q 144 255 144 268 l 144 94 z "},"య":{"ha":1427,"x_min":0,"x_max":1375,"o":"m 677 508 q 701 481 701 508 q 694 467 701 473 q 674 461 686 461 q 651 473 663 461 q 642 498 642 485 l 642 602 l 672 602 q 647 639 655 616 q 635 683 635 661 q 678 768 635 734 q 776 805 720 805 q 856 787 805 805 q 927 769 907 769 q 961 768 947 769 q 979 768 975 766 q 969 789 969 782 q 979 805 969 797 q 1005 813 988 813 q 1036 801 1022 813 q 1049 763 1049 787 q 1025 718 1049 739 q 969 698 1001 698 l 873 707 q 807 687 835 707 q 779 642 779 667 q 792 623 779 635 q 811 602 805 611 l 897 602 q 975 578 943 602 q 1006 514 1006 549 l 1006 133 q 1031 115 1031 125 q 1026 94 1031 102 q 1014 86 1020 86 q 1055 62 1020 62 l 1189 62 q 1219 77 1207 62 q 1231 115 1231 91 l 1231 498 q 1216 522 1231 512 q 1179 532 1201 532 q 1142 525 1157 532 q 1127 508 1127 519 q 1153 481 1153 508 q 1145 468 1153 473 q 1125 461 1138 461 q 1102 473 1113 461 q 1092 498 1092 485 l 1092 602 l 1266 602 q 1344 578 1311 602 q 1375 514 1375 549 l 1375 94 q 1344 21 1375 53 q 1266 -8 1311 -8 l 996 -8 q 969 14 975 -3 q 907 -8 943 -8 l 664 -8 q 584 35 600 -8 q 514 -8 572 -8 l 123 -8 q 35 21 72 -8 q 0 94 0 53 l 0 498 q 24 573 0 541 q 86 602 51 602 l 506 602 q 583 573 549 602 q 615 498 615 541 l 615 123 q 627 136 621 133 q 635 140 632 140 q 655 115 655 140 q 627 94 655 94 q 644 72 627 81 q 682 62 661 62 l 811 62 q 848 82 832 62 q 864 133 864 102 l 864 490 q 848 520 864 508 q 811 532 832 532 l 730 532 q 677 508 677 532 m 409 62 q 453 75 436 62 q 471 115 471 91 l 471 471 q 453 514 471 496 q 409 532 436 532 l 209 532 q 162 509 180 532 q 144 453 144 487 l 144 115 q 162 77 144 91 q 209 62 180 62 l 409 62 z "},"ర":{"ha":822,"x_min":0,"x_max":769,"o":"m 209 532 q 162 509 180 532 q 144 453 144 487 l 144 115 q 162 77 144 91 q 209 62 180 62 l 498 62 q 541 75 524 62 q 559 115 559 91 l 559 471 q 541 514 559 496 q 498 532 524 532 l 209 532 m 273 664 q 247 637 273 637 q 235 647 235 637 q 246 615 235 627 q 273 602 257 602 l 358 602 q 382 611 372 602 q 393 637 393 621 l 393 776 q 498 805 425 805 q 576 784 525 805 q 651 758 627 758 q 699 768 674 758 q 690 789 690 782 q 699 805 690 797 q 726 813 709 813 q 757 801 742 813 q 769 763 769 787 q 746 718 769 739 q 690 698 723 698 l 594 707 q 532 682 548 707 l 532 602 l 594 602 q 670 573 639 602 q 702 498 702 541 l 702 115 q 669 27 702 64 q 584 -8 632 -8 l 123 -8 q 35 27 72 -8 q 0 115 0 64 l 0 498 q 24 573 0 541 q 86 602 51 602 l 99 602 q 97 619 97 611 l 97 655 q 70 690 97 683 q 103 707 77 707 q 162 694 129 707 q 211 682 195 682 l 252 690 q 267 683 260 690 q 273 664 273 674 z "},"ఱ":{"ha":878,"x_min":0,"x_max":825,"o":"m 666 75 q 682 115 682 91 l 682 508 q 671 537 682 525 q 647 549 661 549 l 619 549 q 592 537 603 549 q 581 508 581 525 l 581 305 q 595 271 581 284 q 627 257 608 257 l 647 257 l 647 185 l 474 185 l 474 115 q 485 75 474 91 q 514 62 498 62 l 627 62 q 666 75 650 62 m 490 257 q 437 305 437 286 l 437 514 q 461 578 437 549 q 524 602 489 602 l 725 602 q 797 573 766 602 q 825 498 825 541 l 825 115 q 797 27 825 64 q 725 -8 766 -8 l 471 -8 q 401 35 417 -8 q 350 -8 382 -8 l 123 -8 q 35 21 72 -8 q 0 94 0 53 l 0 498 q 24 573 0 541 q 86 602 51 602 l 279 602 q 329 582 308 602 q 350 532 350 562 l 350 375 q 323 326 350 348 q 260 305 297 305 l 174 305 l 174 375 q 182 394 174 386 q 200 401 190 401 q 209 384 209 401 q 200 367 209 367 q 219 379 211 367 q 227 410 227 391 l 227 498 q 215 522 227 512 q 185 532 203 532 q 156 522 168 532 q 144 498 144 512 l 144 105 q 158 74 144 86 q 193 62 172 62 l 297 62 q 321 74 311 62 q 330 105 330 86 l 330 185 l 260 185 q 243 177 251 185 q 227 164 233 174 q 244 146 244 160 q 227 133 244 133 q 209 147 209 133 l 209 257 l 490 257 z "},"ల":{"ha":755,"x_min":0,"x_max":702,"o":"m 182 394 q 186 397 182 394 q 200 401 190 401 q 209 384 209 401 q 200 367 209 367 q 219 379 211 367 q 227 410 227 391 l 227 498 q 215 522 227 512 q 185 532 203 532 q 156 522 168 532 q 144 498 144 512 l 144 105 q 158 74 144 86 q 193 62 172 62 l 514 62 q 546 75 532 62 q 559 115 559 91 l 559 498 q 548 522 559 512 q 524 532 538 532 l 490 532 q 471 514 471 532 q 490 498 490 514 q 484 486 490 492 q 467 481 477 481 q 449 493 457 481 q 437 524 437 506 l 437 602 l 611 602 q 677 578 650 602 q 702 514 702 549 l 702 115 q 677 27 702 64 q 611 -8 650 -8 l 123 -8 q 35 21 72 -8 q 0 94 0 53 l 0 498 q 24 573 0 541 q 86 602 51 602 l 279 602 q 329 582 308 602 q 350 532 350 562 l 350 375 q 323 326 350 348 q 260 305 297 305 l 174 305 l 174 375 q 182 394 174 386 z "},"ళ":{"ha":894,"x_min":0,"x_max":841,"o":"m 493 484 q 466 463 493 463 q 444 474 455 463 q 434 501 434 487 l 434 602 l 466 602 q 431 682 431 631 q 472 769 431 734 q 572 805 512 805 q 648 787 597 805 q 719 769 699 769 q 754 768 739 769 q 771 768 768 766 q 761 789 761 782 q 772 805 761 797 q 798 813 782 813 q 829 801 814 813 q 841 763 841 787 q 818 718 841 739 q 761 698 795 698 l 666 707 q 601 687 627 707 q 575 642 575 667 q 586 621 575 635 q 603 602 597 611 l 672 602 q 744 578 715 602 q 773 514 773 549 l 773 391 q 741 332 773 356 q 666 305 709 305 l 595 305 q 634 286 618 302 q 651 255 651 273 l 651 123 q 596 30 651 69 q 463 -8 541 -8 l 361 -8 q 217 30 278 -8 q 158 123 158 69 l 158 255 q 172 287 158 273 q 211 305 187 302 l 140 305 q 42 332 83 305 q 0 391 0 356 l 0 498 q 24 573 0 541 q 88 602 53 602 l 299 602 q 362 578 335 602 q 388 514 388 549 l 388 428 l 228 428 q 204 435 214 428 q 193 453 193 442 q 198 473 193 463 q 211 481 204 481 q 223 475 217 481 q 228 461 228 469 q 239 467 235 461 q 244 481 244 473 l 244 508 q 211 532 244 532 l 176 532 q 153 522 163 532 q 144 498 144 512 l 144 428 q 163 391 144 407 q 211 378 182 378 l 578 378 q 615 391 599 378 q 629 428 629 407 l 629 498 q 615 522 629 512 q 578 532 599 532 l 503 532 q 469 509 469 527 q 493 484 493 509 m 476 75 q 508 115 508 91 l 508 255 q 476 292 508 276 q 404 305 445 305 q 330 292 362 305 q 302 255 302 276 l 302 115 q 330 75 302 91 q 404 62 362 62 q 476 75 445 62 z "},"ఴ":{"ha":939,"x_min":0,"x_max":800,"o":"m 450 -8 q 399 34 421 -8 q 350 -8 380 -8 l 123 -8 q 35 21 72 -8 q 0 94 0 53 l 0 498 q 24 573 0 541 q 86 602 51 602 l 279 602 q 329 582 308 602 q 350 532 350 562 l 350 375 q 323 326 350 348 q 260 305 297 305 l 174 305 l 174 375 q 182 394 174 386 q 200 401 190 401 q 209 388 209 401 q 201 361 209 375 q 227 410 227 375 l 227 498 q 182 532 227 532 q 156 523 168 532 q 144 498 144 514 l 144 105 q 158 74 144 86 q 193 62 172 62 l 297 62 q 321 74 311 62 q 330 105 330 86 l 330 185 l 260 185 q 243 177 251 185 q 227 166 233 174 q 244 147 244 156 q 227 133 244 133 q 209 147 209 133 l 209 257 l 591 257 l 591 147 q 573 133 591 133 q 556 147 556 133 q 573 166 556 156 q 557 177 567 174 q 540 185 549 185 l 469 185 l 469 105 q 479 74 469 86 q 503 62 489 62 l 607 62 q 642 74 627 62 q 656 105 656 86 l 656 498 q 644 523 656 514 q 615 532 632 532 q 585 523 597 532 q 573 498 573 514 l 573 410 q 580 380 573 391 l 589 367 q 592 372 600 358 q 591 390 591 378 q 600 401 591 401 q 618 394 610 401 q 626 375 626 386 l 626 305 l 540 305 q 477 326 503 305 q 450 375 450 348 l 450 532 q 471 582 450 562 q 520 602 492 602 l 714 602 q 776 573 749 602 q 800 498 800 541 l 800 94 q 765 21 800 53 q 677 -8 728 -8 l 450 -8 z "},"వ":{"ha":755,"x_min":0,"x_max":702,"o":"m 105 508 q 129 481 129 508 q 105 461 129 461 q 81 473 91 461 q 70 498 70 485 l 70 602 l 152 602 q 117 682 117 631 q 157 769 117 734 q 255 805 198 805 q 334 784 283 805 q 409 758 385 758 q 457 768 433 758 q 449 788 449 779 q 458 806 449 797 q 485 813 468 813 q 514 801 501 813 q 527 763 527 787 q 504 718 527 739 q 449 698 479 698 l 351 707 q 299 687 319 707 q 278 643 278 667 q 291 602 278 618 l 611 602 q 677 578 650 602 q 702 514 702 549 l 702 86 q 677 19 702 48 q 611 -8 650 -8 l 437 -8 q 367 45 383 -8 q 297 -8 348 -8 l 88 -8 q 24 11 53 -8 q 0 62 0 34 l 0 270 q 24 334 0 305 q 88 358 53 358 l 281 358 q 345 334 318 358 q 370 270 370 305 l 370 123 q 374 128 372 123 q 375 133 374 133 q 394 127 386 133 q 402 114 402 121 q 397 101 402 107 q 385 94 391 94 q 396 72 386 81 q 420 62 405 62 l 516 62 q 546 75 533 62 q 559 115 559 91 l 559 481 q 544 519 559 503 q 508 532 528 532 l 158 532 q 105 508 105 532 m 144 94 q 156 72 144 81 q 185 62 168 62 q 215 72 203 62 q 227 94 227 81 l 227 255 q 215 278 227 268 q 185 287 203 287 q 156 278 168 287 q 144 255 144 268 l 144 94 z "},"శ":{"ha":755,"x_min":0,"x_max":702,"o":"m 193 97 q 220 72 220 97 q 201 41 220 57 q 158 24 182 24 l 70 24 q 21 50 42 24 q 0 115 0 77 l 0 305 q 42 393 0 358 q 140 431 83 431 l 525 431 q 549 437 540 431 q 559 453 559 444 l 559 508 q 525 532 559 532 l 321 532 q 268 508 268 532 q 294 481 294 508 q 286 468 294 473 q 267 461 279 461 q 244 473 255 461 q 233 498 233 485 l 233 602 l 284 602 q 247 683 247 632 q 291 768 247 734 q 388 805 330 805 q 468 787 417 805 q 538 769 519 769 q 572 768 557 769 q 591 768 586 766 q 581 787 581 777 q 591 805 581 797 q 616 813 600 813 q 648 801 632 813 q 661 763 661 787 q 637 718 661 739 q 581 698 613 698 l 484 707 q 420 686 445 707 q 391 642 391 667 q 404 621 391 635 q 423 602 417 611 l 639 602 q 684 582 666 602 q 702 532 702 562 l 702 471 q 685 433 702 450 q 639 410 667 417 q 685 376 667 405 q 702 305 702 346 l 702 94 q 670 21 702 53 q 594 -8 639 -8 l 375 -8 q 308 13 335 -8 q 281 62 281 34 l 281 287 q 329 343 281 302 l 350 358 l 203 358 q 160 345 177 358 q 144 305 144 327 l 144 115 q 174 97 144 97 q 180 97 174 99 l 193 97 m 525 62 q 548 72 540 62 q 559 94 559 81 l 559 322 q 546 348 559 338 q 516 358 533 358 l 490 358 q 441 316 453 327 q 425 287 425 299 l 425 94 q 437 72 425 81 q 463 62 449 62 l 525 62 z "},"ష":{"ha":880,"x_min":0,"x_max":787,"o":"m 144 94 q 156 72 144 81 q 185 62 168 62 q 215 72 203 62 q 227 94 227 81 l 227 255 q 215 278 227 268 q 185 287 203 287 q 156 278 168 287 q 144 255 144 268 l 144 94 m 367 45 q 297 -8 348 -8 l 88 -8 q 24 11 53 -8 q 0 62 0 34 l 0 270 q 24 334 0 305 q 88 358 53 358 l 281 358 q 345 334 318 358 q 370 270 370 305 l 370 123 q 374 128 372 123 q 375 133 374 133 q 394 127 386 133 q 402 114 402 121 q 397 101 402 107 q 385 94 391 94 q 396 72 386 81 q 420 62 405 62 l 516 62 q 546 75 533 62 q 559 115 559 91 l 559 481 q 549 517 559 503 q 525 532 540 532 l 471 532 q 461 525 469 532 q 455 514 458 519 q 471 498 471 514 q 463 487 471 492 q 446 481 457 481 q 426 489 436 481 q 420 508 420 496 l 420 602 l 611 602 q 677 578 650 602 q 702 514 702 549 l 702 -61 q 712 -83 702 -73 q 734 -93 722 -93 l 760 -93 q 750 -82 750 -93 q 757 -67 750 -72 q 769 -61 761 -61 q 781 -69 776 -61 q 787 -88 787 -77 l 787 -164 l 611 -164 q 575 -145 591 -164 q 559 -96 559 -126 l 559 -8 l 437 -8 q 367 45 383 -8 m 490 768 q 479 788 479 779 q 491 805 479 797 q 518 813 503 813 q 546 801 533 813 q 559 761 559 787 q 536 715 559 736 q 479 690 512 690 l 385 707 q 353 704 367 707 q 332 690 340 698 l 332 602 q 313 551 332 575 q 263 532 292 532 l 0 532 l 0 637 q 10 662 0 651 q 41 672 19 672 q 62 655 62 672 q 57 638 62 645 q 45 631 51 631 q 64 610 51 616 q 88 602 73 602 l 164 602 q 185 610 176 602 q 193 631 193 618 l 193 776 q 271 795 223 795 q 375 777 318 795 q 449 758 433 758 q 476 761 466 758 l 490 768 z "},"స":{"ha":755,"x_min":0,"x_max":702,"o":"m 471 498 q 450 471 471 471 q 430 480 441 471 q 420 498 420 489 l 420 602 l 611 602 q 677 578 650 602 q 702 514 702 549 l 702 94 q 670 21 702 53 q 594 -8 639 -8 l 385 -8 q 311 21 343 -8 q 281 94 281 53 l 281 217 q 268 257 281 239 q 235 270 252 270 l 182 270 q 155 257 168 270 q 144 217 144 239 l 144 45 q 150 26 144 34 q 164 18 156 18 l 158 35 q 163 42 158 38 q 174 45 168 45 q 187 39 180 45 q 193 22 193 34 q 180 2 193 11 q 158 -8 172 -8 l 0 -8 l 0 255 q 24 316 0 291 q 88 343 53 343 l 332 343 q 398 317 370 343 q 425 255 425 291 l 425 105 q 436 73 425 86 q 463 62 449 62 l 516 62 q 546 74 533 62 q 559 105 559 86 l 559 498 q 544 522 559 512 q 507 532 528 532 q 470 525 485 532 q 455 508 455 519 q 471 498 471 508 m 490 768 q 479 788 479 779 q 491 805 479 797 q 518 813 503 813 q 546 801 533 813 q 559 761 559 787 q 536 715 559 736 q 479 690 512 690 l 385 707 q 353 704 367 707 q 332 690 340 698 l 332 602 q 313 551 332 575 q 263 532 292 532 l 0 532 l 0 637 q 10 662 0 651 q 41 672 19 672 q 62 655 62 672 q 57 638 62 645 q 45 631 51 631 q 64 610 51 616 q 88 602 73 602 l 164 602 q 185 610 176 602 q 193 631 193 618 l 193 776 q 271 795 223 795 q 375 777 318 795 q 449 758 433 758 q 476 761 466 758 l 490 768 z "},"హ":{"ha":1210,"x_min":0,"x_max":1157,"o":"m 144 94 q 156 72 144 81 q 185 62 168 62 q 215 72 203 62 q 227 94 227 81 l 227 255 q 215 278 227 268 q 185 287 203 287 q 156 278 168 287 q 144 255 144 268 l 144 94 m 350 45 q 281 -8 327 -8 l 88 -8 q 24 11 53 -8 q 0 62 0 34 l 0 270 q 24 334 0 305 q 88 358 53 358 l 281 358 q 345 334 318 358 q 370 270 370 305 l 370 123 q 374 128 372 123 q 375 133 374 133 q 394 127 386 133 q 402 114 402 121 q 397 101 402 107 q 385 94 391 94 q 396 72 386 81 q 420 62 405 62 l 516 62 q 546 75 533 62 q 559 115 559 91 l 559 481 q 549 517 559 503 q 525 532 540 532 l 471 532 q 461 525 469 532 q 455 514 458 519 q 471 498 471 514 q 463 487 471 492 q 446 481 457 481 q 426 489 436 481 q 420 508 420 496 l 420 602 l 1049 602 q 1125 573 1094 602 q 1157 498 1157 541 l 1157 94 q 1125 21 1157 53 q 1049 -8 1094 -8 l 875 -8 q 800 18 830 -8 q 769 80 769 45 l 769 255 q 795 303 769 283 q 856 322 821 322 l 934 322 q 954 315 947 322 q 961 297 961 308 q 955 278 961 286 q 944 270 951 270 q 932 275 937 270 q 926 287 926 281 q 913 255 913 278 l 913 94 q 922 72 913 81 q 945 62 931 62 l 979 62 q 1004 74 993 62 q 1015 105 1015 86 l 1015 471 q 995 514 1015 496 q 945 532 972 532 l 672 532 q 702 461 702 514 l 702 86 q 677 19 702 48 q 611 -8 650 -8 l 428 -8 q 350 45 380 -8 m 490 768 q 479 788 479 779 q 491 805 479 797 q 518 813 503 813 q 546 801 533 813 q 559 761 559 787 q 536 715 559 736 q 479 690 512 690 l 385 707 q 353 704 367 707 q 332 690 340 698 l 332 602 q 313 551 332 575 q 263 532 292 532 l 0 532 l 0 637 q 10 662 0 651 q 41 672 19 672 q 62 655 62 672 q 57 638 62 645 q 45 631 51 631 q 64 610 51 616 q 88 602 73 602 l 164 602 q 185 610 176 602 q 193 631 193 618 l 193 776 q 271 795 223 795 q 375 777 318 795 q 449 758 433 758 q 476 761 466 758 l 490 768 z "},"ఽ":{"ha":1017,"x_min":11,"x_max":923,"o":"m 252 493 q 275 556 275 519 q 251 618 275 592 q 196 643 227 643 q 147 618 166 643 q 120 556 120 592 q 144 493 120 519 q 199 468 171 468 q 252 493 227 468 m 70 51 q 12 174 13 102 q 67 296 11 246 q 206 346 123 346 q 346 378 289 346 q 409 465 409 418 q 378 543 409 512 q 345 576 367 557 q 305 452 350 493 q 189 402 260 402 q 70 442 118 402 q 27 539 27 481 q 80 647 27 597 q 239 698 139 698 q 421 627 338 698 q 492 461 492 560 q 410 330 492 385 q 201 270 326 276 q 136 246 163 270 q 105 176 109 222 q 145 123 105 142 q 227 101 174 104 l 859 101 q 906 82 889 101 q 923 46 923 64 q 908 14 923 29 q 867 -8 896 -2 l 217 -8 q 70 51 128 -8 z "},"ా":{"ha":854,"x_min":-314,"x_max":819,"o":"m -314 637 q -305 662 -314 651 q -274 672 -295 672 q -252 655 -252 672 q -258 638 -252 645 q -270 631 -263 631 q -258 610 -270 618 q -228 602 -246 602 l 714 602 q 789 578 755 602 q 819 514 819 549 l 819 94 q 789 21 819 53 q 714 -8 755 -8 l 528 -8 q 461 21 490 -8 q 434 94 434 53 l 434 255 q 458 303 434 283 q 520 322 485 322 l 591 322 q 615 315 603 322 q 627 297 627 308 q 619 278 627 286 q 607 270 615 270 q 595 275 600 270 q 591 287 591 281 q 575 255 575 287 l 575 105 q 627 62 575 62 q 664 73 648 62 q 678 105 678 86 l 678 481 q 664 519 678 503 q 627 532 648 532 l -314 532 l -314 637 z "},"ి":{"ha":0,"x_min":-200,"x_max":231,"o":"m 21 723 q 46 741 21 741 q 59 734 53 741 q 65 712 65 726 q 49 684 65 698 q 13 670 34 670 l -129 670 q -180 688 -158 670 q -200 733 -200 707 l -200 809 q -180 860 -200 838 q -129 880 -158 880 l 147 880 q 206 859 180 880 q 231 809 231 838 l 231 619 q 204 559 231 584 q 144 532 179 532 l -184 532 l -184 602 l 38 602 q 77 616 59 602 q 91 655 91 634 l 91 774 q 84 800 91 790 q 65 809 77 809 l -43 809 q -65 800 -57 809 q -77 774 -77 790 l -77 758 q -65 734 -77 744 q -43 723 -57 723 l 21 723 z "},"ీ":{"ha":0,"x_min":-209,"x_max":310,"o":"m 263 1012 q 254 1031 254 1027 q 260 1041 254 1036 q 276 1047 265 1047 q 299 1034 287 1047 q 310 1000 310 1020 q 289 964 310 980 q 248 950 267 950 q 212 953 230 950 q 185 959 195 959 q 152 950 176 959 l 152 880 q 200 859 179 880 q 222 809 222 838 l 222 619 q 195 559 222 584 q 134 532 169 532 l -193 532 l -193 602 l 29 602 q 67 616 49 602 q 81 655 81 634 l 81 774 q 74 800 81 790 q 56 809 67 809 l -53 809 q -75 800 -67 809 q -86 774 -86 790 l -86 758 q -75 734 -86 744 q -53 723 -67 723 l 11 723 q 37 741 11 741 q 49 734 43 741 q 56 712 56 726 q 40 684 56 698 q 3 670 24 670 l -139 670 q -190 688 -168 670 q -209 733 -209 707 l -209 809 q -190 860 -209 838 q -139 880 -168 880 l 11 880 l 11 993 q 107 1030 51 1030 q 174 1017 131 1030 q 228 1001 216 1001 q 249 1006 241 1001 l 263 1012 z "},"ు":{"ha":367,"x_min":-104,"x_max":302,"o":"m -70 133 q -42 112 -42 133 q -47 94 -42 102 q -59 86 -53 86 q -18 62 -53 62 l 117 62 q 147 77 134 62 q 160 115 160 91 l 160 498 q 144 522 160 512 q 107 532 128 532 q 54 508 54 532 q 78 481 78 508 q 54 461 78 461 q 30 473 40 461 q 19 498 19 485 l 19 602 l 193 602 q 270 578 239 602 q 302 514 302 549 l 302 94 q 271 22 302 53 q 193 -8 239 -8 l -77 -8 q -104 21 -104 -2 l -104 97 q -93 121 -104 115 q -70 133 -85 133 z "},"ూ":{"ha":822,"x_min":-104,"x_max":757,"o":"m -70 133 q -42 112 -42 133 q -47 94 -42 102 q -59 86 -53 86 q -18 62 -53 62 l 117 62 q 147 77 134 62 q 160 115 160 91 l 160 498 q 144 522 160 512 q 107 532 128 532 q 54 508 54 532 q 78 481 78 508 q 54 461 78 461 q 30 473 40 461 q 19 498 19 485 l 19 602 l 648 602 q 725 578 693 602 q 757 514 757 549 l 757 94 q 725 21 757 53 q 648 -8 693 -8 l 465 -8 q 397 22 425 -8 q 369 94 369 53 l 369 255 q 394 303 369 283 q 455 322 420 322 l 525 322 q 551 315 541 322 q 560 297 560 308 q 556 278 560 286 q 544 270 551 270 q 532 275 538 270 q 525 287 525 281 q 512 255 512 287 l 512 105 q 527 74 512 86 q 561 62 541 62 q 598 74 581 62 q 615 105 615 86 l 615 481 q 598 517 615 503 q 560 532 581 532 l 302 532 l 302 94 q 271 22 302 53 q 193 -8 239 -8 l -75 -8 q -104 21 -104 -2 l -104 94 q -93 121 -104 115 q -70 133 -85 133 z "},"ృ":{"ha":231,"x_min":-241,"x_max":145,"o":"m -125 -219 q -107 -233 -107 -219 q -113 -243 -107 -239 q -115 -248 -117 -247 q -104 -249 -113 -249 l -91 -249 q -77 -223 -77 -249 l -77 -193 q -91 -171 -77 -171 l -136 -171 q -151 -177 -144 -171 q -158 -193 -158 -184 l -158 -324 q -146 -353 -158 -340 q -117 -366 -134 -366 l 22 -366 q 50 -352 38 -366 q 62 -318 62 -338 l 62 89 q 56 107 62 101 q 42 117 51 117 l 27 117 q 34 102 34 107 q 28 92 34 97 q 16 86 22 86 q 0 104 0 86 l 0 168 l 105 168 q 133 153 123 168 q 145 120 145 139 l 145 -340 q 130 -394 145 -370 q 89 -417 115 -417 l -172 -417 q -222 -399 -201 -417 q -241 -354 -241 -382 l -241 -166 q -228 -134 -241 -147 q -201 -118 -217 -118 l -35 -118 q -6 -134 -18 -118 q 6 -166 6 -145 l 6 -239 q -5 -281 6 -263 q -35 -299 -16 -299 l -139 -299 l -139 -239 q -134 -227 -139 -231 q -125 -219 -131 -219 z "},"ౄ":{"ha":442,"x_min":-246,"x_max":420,"o":"m 284 -5 q 295 11 284 -2 l 275 14 q 259 5 265 14 q 251 -14 251 -2 l 251 -65 q 260 -77 251 -72 q 281 -83 268 -83 l 314 -83 q 330 -75 326 -83 q 337 -56 337 -69 l 337 85 q 329 109 337 99 q 308 118 319 118 l 147 118 l 147 -338 q 132 -393 147 -369 q 93 -417 117 -417 l -177 -417 q -227 -399 -206 -417 q -246 -353 -246 -380 l -246 -160 q -233 -126 -246 -140 q -204 -110 -222 -110 l -35 -110 q -7 -125 -19 -110 q 5 -160 5 -140 l 5 -233 q -6 -279 5 -260 q -35 -297 -19 -297 l -142 -297 l -142 -233 q -137 -222 -142 -227 q -128 -214 -134 -214 q -110 -227 -110 -214 q -116 -239 -110 -233 q -117 -245 -121 -244 q -107 -246 -113 -246 l -93 -246 q -83 -236 -86 -246 q -77 -217 -77 -230 l -77 -190 q -83 -172 -77 -179 q -93 -163 -86 -163 l -139 -163 q -156 -171 -148 -163 q -163 -190 -163 -179 l -163 -322 q -151 -353 -163 -340 q -121 -366 -139 -366 l 22 -366 q 53 -351 40 -366 q 65 -318 65 -337 l 65 91 q 57 110 65 102 q 42 118 53 118 l 29 118 q 32 104 32 109 q 27 94 32 99 q 16 89 22 89 q 5 94 10 89 q 0 105 0 99 l 0 169 l 380 169 q 408 155 396 169 q 420 121 420 140 l 420 -72 q 404 -117 420 -99 q 367 -136 388 -136 l 225 -136 q 185 -121 203 -136 q 169 -86 169 -107 l 169 -5 q 181 34 169 18 q 211 51 193 51 l 318 51 l 318 2 q 301 -16 318 -16 q 284 -5 284 -16 z "},"ె":{"ha":0,"x_min":-313,"x_max":343,"o":"m -133 619 q -105 602 -118 602 l 168 602 q 193 613 184 602 q 203 637 203 621 l 203 707 q 193 732 203 722 q 168 742 184 742 l -251 742 q -286 725 -286 742 q -274 720 -279 725 q -268 707 -268 715 q -275 696 -268 699 q -288 690 -279 690 q -305 694 -297 690 q -313 707 -313 699 l -313 813 l 273 813 q 322 793 302 813 q 343 742 343 771 l 343 602 q 326 551 343 575 q 283 532 307 532 l -158 532 l -158 637 q -152 656 -158 648 q -131 664 -142 664 q -113 656 -120 664 q -105 639 -105 648 q -113 626 -105 631 q -133 619 -120 619 z "},"ే":{"ha":0,"x_min":-313,"x_max":377,"o":"m 353 969 q 377 943 377 969 q 364 899 377 916 q 326 881 348 881 l 265 891 q 241 888 254 891 q 220 875 230 881 l 220 813 l 273 813 q 322 793 302 813 q 343 742 343 771 l 343 602 q 321 553 343 575 q 267 532 299 532 l -158 532 l -158 637 q -152 656 -158 648 q -131 664 -142 664 q -113 656 -120 664 q -105 639 -105 648 q -113 626 -105 631 q -133 619 -120 619 q -105 602 -118 602 l 168 602 q 193 613 184 602 q 203 637 203 621 l 203 707 q 193 732 203 722 q 168 742 184 742 l -251 742 q -286 725 -286 742 q -274 720 -279 725 q -268 707 -268 715 q -275 696 -268 699 q -288 690 -279 690 q -305 694 -297 690 q -313 707 -313 699 l -313 813 l 80 813 l 80 916 q 177 951 125 951 q 242 939 200 951 q 298 926 284 926 q 321 931 311 926 l 335 936 l 326 951 q 353 969 326 969 z "},"ై":{"ha":912,"x_min":70,"x_max":838,"o":"m 263 -393 q 287 -382 278 -393 q 297 -358 297 -372 l 297 -322 q 286 -299 297 -310 q 263 -287 278 -287 l 211 -287 q 187 -299 196 -287 q 174 -322 174 -310 l 174 -358 q 188 -382 174 -372 q 220 -393 203 -393 l 263 -393 m 805 -358 q 787 -336 787 -358 q 803 -314 787 -314 q 827 -327 819 -314 q 838 -358 838 -338 l 838 -445 l 140 -445 q 89 -426 112 -445 q 70 -375 70 -404 l 70 -287 q 85 -249 70 -265 q 123 -235 101 -235 l 334 -235 q 383 -249 362 -235 q 402 -287 402 -265 l 402 -350 q 392 -380 402 -367 q 367 -393 382 -393 l 769 -393 q 795 -382 785 -393 q 805 -358 805 -372 m 322 619 q 350 602 337 602 l 525 602 q 548 613 540 602 q 560 637 560 621 l 560 707 q 548 733 560 722 q 525 742 540 742 l 133 742 q 97 725 97 742 q 109 720 104 725 q 115 707 115 715 q 109 696 115 699 q 95 690 104 690 q 78 694 86 690 q 70 707 70 699 l 70 813 l 629 813 q 680 793 659 813 q 699 742 699 771 l 699 602 q 682 551 699 575 q 639 532 664 532 l 297 532 l 297 637 q 303 656 297 648 q 322 664 313 664 q 350 637 350 664 q 342 625 350 631 q 322 619 335 619 z "},"ొ":{"ha":852,"x_min":-316,"x_max":817,"o":"m 364 776 q 434 725 413 776 q 457 762 442 749 q 487 776 473 776 l 714 776 q 787 752 755 776 q 817 690 817 726 l 817 270 q 792 196 817 227 q 731 164 766 164 l 548 164 q 468 196 501 164 q 434 270 434 227 l 434 420 q 454 475 434 452 q 503 498 474 498 l 599 498 q 618 487 610 498 q 626 465 626 476 q 618 452 626 455 q 607 445 615 445 q 595 452 600 445 q 591 461 591 455 q 567 452 576 461 q 557 428 557 442 l 557 270 q 567 246 557 257 q 591 235 576 235 l 643 235 q 667 249 656 235 q 678 287 678 267 l 678 664 q 667 694 678 682 q 643 707 656 707 l 520 707 q 496 697 506 707 q 487 672 487 686 l 487 631 q 500 637 490 637 q 515 632 509 637 q 520 620 520 627 q 512 608 520 613 q 495 602 506 602 l 380 602 q 356 607 366 602 q 346 619 346 613 q 364 637 346 637 q 380 631 377 637 l 380 672 q 369 696 380 686 q 346 707 361 707 l -134 707 q -164 699 -152 707 q -176 682 -176 691 l -176 631 q -164 610 -176 618 q -134 602 -152 602 l 38 602 l 38 532 l -228 532 q -291 560 -265 540 q -316 602 -316 580 l -316 698 q -292 754 -316 731 q -228 776 -263 776 l 364 776 z "},"ో":{"ha":888,"x_min":-316,"x_max":854,"o":"m 809 899 l 801 908 q 811 929 801 918 q 831 936 821 936 q 848 924 841 936 q 854 896 854 913 q 833 862 854 878 q 793 846 811 846 q 757 849 774 846 q 730 857 739 857 q 694 846 720 857 l 694 776 l 714 776 q 787 752 755 776 q 817 690 817 726 l 817 270 q 792 196 817 227 q 731 164 766 164 l 548 164 q 468 196 501 164 q 434 270 434 227 l 434 420 q 455 475 434 452 q 504 498 476 498 l 599 498 q 619 487 610 498 q 627 465 627 476 q 621 452 627 455 q 607 445 615 445 q 595 452 600 445 q 591 461 591 455 q 567 452 576 461 q 557 428 557 442 l 557 270 q 567 246 557 257 q 591 235 576 235 l 643 235 q 667 249 656 235 q 678 287 678 267 l 678 664 q 667 694 678 682 q 643 707 656 707 l 520 707 q 496 697 506 707 q 487 672 487 686 l 487 631 q 501 637 490 637 q 520 619 520 637 q 512 608 520 613 q 495 602 506 602 l 382 602 q 357 607 367 602 q 346 619 346 613 q 362 637 346 637 q 382 631 378 637 l 382 672 q 370 696 382 686 q 346 707 361 707 l -134 707 q -164 699 -152 707 q -176 682 -176 691 l -176 631 q -164 610 -176 618 q -134 602 -152 602 l 24 602 l 24 532 l -228 532 q -290 556 -263 532 q -316 611 -316 580 l -316 698 q -292 754 -316 731 q -228 776 -263 776 l 364 776 q 434 725 413 776 q 457 762 442 749 q 487 776 473 776 l 557 776 l 557 891 q 651 926 599 926 l 809 899 z "},"ౌ":{"ha":852,"x_min":-286,"x_max":819,"o":"m -252 682 q -233 659 -233 682 q -255 637 -233 637 q -276 651 -267 637 q -286 682 -286 664 l -286 776 l 714 776 q 788 749 757 776 q 819 682 819 722 l 819 287 q 787 203 819 238 q 714 164 757 164 l 532 164 q 465 192 490 164 q 436 255 436 217 l 436 420 q 456 475 436 452 q 506 498 476 498 l 592 498 q 617 491 607 498 q 627 472 627 484 q 622 453 627 460 q 610 445 616 445 q 598 450 603 445 q 592 461 592 455 q 573 420 573 450 l 573 287 q 592 259 573 270 q 632 244 610 244 q 667 259 655 244 q 680 287 680 270 l 680 637 q 661 686 680 666 q 610 707 639 707 l 270 707 l 270 637 q 234 563 270 594 q 148 532 198 532 l -140 532 l -140 602 l 94 602 q 119 610 107 602 q 131 631 131 618 l 131 682 q 122 699 131 691 q 102 707 113 707 l -216 707 q -241 699 -230 707 q -252 682 -252 691 z "},"్":{"ha":0,"x_min":-259,"x_max":441,"o":"m -206 725 q -259 768 -259 742 l -259 846 q -239 884 -259 870 q -188 899 -217 899 l 370 899 q 396 907 386 899 q 405 926 405 915 q 388 932 394 926 q 380 944 380 936 q 390 961 380 953 q 413 969 401 969 q 433 957 425 969 q 441 926 441 945 l 441 829 l -85 829 q -109 821 -99 829 q -118 805 -118 814 l -118 768 q -107 750 -118 757 q -85 742 -99 742 l 179 742 l 179 672 q 173 648 179 659 q 161 637 168 637 q 134 645 134 637 q 139 659 134 653 q 150 664 144 664 q 139 683 150 674 q 109 690 126 690 l -94 690 q -117 683 -107 690 q -126 664 -126 674 l -126 631 q -117 610 -126 618 q -94 602 -107 602 l 113 602 l 113 532 l -196 532 q -241 551 -223 532 q -259 602 -259 575 l -259 672 q -244 705 -259 690 q -206 725 -230 720 z "},"ౕ":{"ha":295,"x_min":0,"x_max":297,"o":"m 273 951 q 297 925 297 951 q 282 881 297 899 q 244 864 267 864 l 182 873 q 160 870 172 873 q 140 857 150 864 l 140 795 l 0 795 l 0 899 q 94 934 42 934 q 161 920 120 934 q 219 908 204 908 q 252 916 233 908 q 244 934 244 932 q 273 951 244 951 z "},"ౖ":{"ha":0,"x_min":-702,"x_max":-24,"o":"m -509 -321 q -485 -311 -495 -321 q -476 -286 -476 -300 l -476 -251 q -487 -227 -476 -236 q -509 -216 -495 -216 l -562 -216 q -586 -227 -576 -216 q -599 -251 -599 -236 l -599 -286 q -584 -311 -599 -300 q -552 -321 -570 -321 l -509 -321 m -57 -286 q -77 -264 -77 -286 q -57 -243 -77 -243 q -34 -255 -43 -243 q -24 -286 -24 -267 l -24 -374 l -632 -374 q -683 -354 -661 -374 q -702 -303 -702 -332 l -702 -216 q -688 -177 -702 -193 q -650 -163 -672 -163 l -439 -163 q -390 -177 -410 -163 q -370 -216 -370 -193 l -370 -278 q -381 -308 -370 -295 q -405 -321 -391 -321 l -93 -321 q -70 -311 -78 -321 q -57 -286 -57 -300 z "},"ౘ":{"ha":953,"x_min":0,"x_max":905,"o":"m 835 768 q 825 787 825 777 q 835 805 825 797 q 861 813 845 813 q 892 801 878 813 q 905 763 905 787 q 881 718 905 739 q 825 698 857 698 l 730 707 q 690 699 706 707 q 667 682 674 694 l 667 602 l 750 602 q 814 578 789 602 q 841 514 841 549 l 841 94 q 809 21 841 53 q 734 -8 777 -8 l 594 -8 q 490 45 512 -8 q 420 -8 463 -8 l 252 -8 q 172 21 206 -8 q 139 94 139 53 l 139 255 q 200 322 139 302 l 174 322 l 70 305 q 0 340 38 305 l 0 437 q 34 461 0 461 q 53 441 53 461 q 34 420 53 420 q 77 401 56 401 l 235 428 l 350 428 l 350 305 q 302 293 321 305 q 283 263 283 281 l 283 115 q 297 75 283 91 q 330 62 311 62 l 375 62 q 406 74 393 62 q 420 105 420 86 l 420 140 q 413 164 420 155 q 401 174 407 174 q 396 161 401 168 q 383 156 390 156 q 367 174 367 156 q 374 195 367 187 q 391 203 382 203 l 584 203 q 603 195 595 203 q 611 177 611 187 q 594 156 611 156 q 576 174 576 156 q 564 147 564 174 l 564 105 q 575 74 564 86 q 602 62 586 62 l 655 62 q 685 75 672 62 q 698 115 698 91 l 698 481 q 683 519 698 503 q 647 532 667 532 l 310 532 q 255 559 278 532 q 231 619 231 584 l 231 655 q 206 690 231 682 q 239 707 212 707 q 297 694 265 707 q 346 682 329 682 l 388 690 q 405 663 405 690 q 388 637 405 637 q 370 647 370 637 q 381 615 370 627 q 405 602 391 602 l 493 602 q 518 611 508 602 q 528 637 528 621 l 528 776 q 632 805 560 805 q 711 781 661 805 q 785 758 761 758 q 835 768 809 758 m 701 936 q 714 964 714 948 l 714 1003 q 702 1031 714 1019 q 675 1042 690 1042 l 623 1042 q 595 1030 607 1042 q 584 1003 584 1019 l 584 964 q 595 936 584 948 q 623 924 607 924 l 666 924 q 701 936 685 924 m 49 864 l 49 964 q 59 999 49 985 q 81 1014 70 1014 q 97 1004 93 1014 q 105 984 105 996 q 97 969 105 972 q 86 964 93 964 q 96 936 86 948 q 121 924 107 924 l 511 924 q 485 939 496 924 q 474 972 474 953 l 474 1042 q 495 1087 474 1070 q 548 1103 517 1103 l 768 1103 q 808 1087 790 1103 q 822 1042 822 1070 l 822 943 q 801 884 822 912 q 749 864 781 864 l 49 864 z "},"ౙ":{"ha":822,"x_min":0,"x_max":774,"o":"m 437 203 q 461 179 461 203 q 453 164 461 164 q 437 174 437 164 q 423 147 423 174 l 423 105 q 434 74 423 86 q 461 62 445 62 l 549 62 q 581 74 568 62 q 594 105 594 86 l 594 203 q 584 220 594 212 q 559 227 575 227 q 554 214 559 220 q 541 209 548 209 q 524 227 524 209 q 532 247 524 238 q 549 255 540 255 l 738 255 l 738 105 q 706 25 738 57 q 629 -8 674 -8 l 420 -8 q 350 45 372 -8 q 279 -8 327 -8 l 104 -8 q 30 16 62 -8 q 0 80 0 45 l 0 305 q 24 356 0 335 q 86 375 51 375 l 174 375 q 212 390 196 375 q 227 428 227 407 l 227 498 q 215 522 227 512 q 185 532 203 532 q 156 522 168 532 q 144 498 144 512 l 144 453 q 150 465 144 460 q 164 471 156 471 q 182 445 182 471 q 172 433 182 439 q 147 428 161 428 l 0 428 l 0 532 q 24 583 0 562 q 86 602 51 602 l 263 602 q 324 582 299 602 q 350 532 350 562 l 350 461 q 369 439 350 450 q 420 431 390 431 l 541 431 q 580 444 564 431 q 594 481 594 458 l 594 532 q 589 559 594 546 q 576 568 583 568 q 572 556 576 562 q 559 549 567 549 q 541 576 541 549 q 551 595 541 586 q 576 602 560 602 l 738 602 l 738 437 q 718 382 738 405 q 672 358 699 358 l 401 358 q 350 391 367 358 q 319 332 350 356 q 252 305 294 305 l 193 305 q 158 292 172 305 q 144 255 144 276 l 144 94 q 152 72 144 81 q 174 62 161 62 l 244 62 q 269 72 259 62 q 279 94 279 81 l 279 147 q 263 174 279 174 q 252 164 263 164 q 235 179 235 164 q 243 195 235 187 q 263 203 251 203 l 437 203 m 653 808 q 666 837 666 821 l 666 875 q 655 904 666 891 q 627 915 642 915 l 575 915 q 548 903 559 915 q 536 875 536 891 l 536 837 q 548 809 536 821 q 575 797 559 797 l 618 797 q 653 808 637 797 m 2 736 l 2 837 q 11 872 2 857 q 34 886 22 886 q 49 876 45 886 q 57 856 57 868 q 49 841 57 845 q 38 837 45 837 q 48 808 38 821 q 73 797 59 797 l 463 797 q 437 811 449 797 q 426 845 426 825 l 426 915 q 447 959 426 942 q 500 975 469 975 l 720 975 q 760 959 742 975 q 774 915 774 942 l 774 816 q 754 757 774 784 q 701 736 733 736 l 2 736 z "},"ౠ":{"ha":1901,"x_min":0,"x_max":1849,"o":"m 825 481 q 798 461 825 461 q 774 473 785 461 q 765 498 765 485 l 765 602 l 940 602 q 1017 578 983 602 q 1049 514 1049 549 l 1049 129 q 1060 133 1052 133 q 1076 127 1068 133 q 1084 112 1084 121 q 1078 94 1084 102 q 1066 86 1073 86 q 1110 62 1073 62 l 1207 62 q 1239 75 1224 62 q 1250 115 1250 91 l 1250 498 q 1234 522 1250 512 q 1197 532 1218 532 q 1145 508 1145 532 q 1172 481 1172 508 q 1164 467 1172 473 q 1143 461 1156 461 q 1120 473 1130 461 q 1110 498 1110 485 l 1110 602 l 1739 602 q 1817 576 1785 602 q 1849 514 1849 549 l 1849 94 q 1817 22 1849 53 q 1739 -8 1785 -8 l 1557 -8 q 1487 22 1515 -8 q 1459 94 1459 53 l 1459 255 q 1485 303 1459 283 q 1547 322 1510 322 l 1617 322 q 1641 315 1632 322 q 1651 289 1651 308 q 1635 270 1651 270 q 1623 275 1628 270 q 1617 287 1617 281 q 1608 278 1612 287 q 1603 255 1603 268 l 1603 105 q 1617 74 1603 86 q 1652 62 1632 62 q 1689 73 1671 62 q 1705 105 1705 86 l 1705 481 q 1689 519 1705 503 q 1651 532 1671 532 l 1394 532 l 1394 94 q 1362 21 1394 53 q 1284 -8 1330 -8 l 1023 -8 l 1023 34 q 940 -8 988 -8 l 678 -8 l 678 30 q 611 -8 653 -8 l 420 -8 q 350 45 372 -8 q 279 -8 327 -8 l 104 -8 q 30 16 62 -8 q 0 80 0 45 l 0 305 q 24 356 0 335 q 86 375 51 375 l 174 375 q 212 390 196 375 q 227 428 227 407 l 227 498 q 215 522 227 512 q 185 532 203 532 q 156 522 168 532 q 144 498 144 512 l 144 453 q 150 465 144 460 q 164 471 156 471 q 182 445 182 471 q 172 433 182 439 q 147 428 161 428 l 0 428 l 0 532 q 24 583 0 562 q 86 602 51 602 l 263 602 q 324 582 299 602 q 350 532 350 562 l 350 391 q 319 332 350 356 q 252 305 294 305 l 182 305 q 155 292 168 305 q 144 255 144 276 l 144 94 q 152 72 144 81 q 174 62 161 62 l 244 62 q 269 72 259 62 q 279 94 279 81 l 279 147 q 263 174 279 174 q 252 164 263 164 q 235 179 235 164 q 243 195 235 187 q 263 203 251 203 l 437 203 q 461 179 461 203 q 453 164 461 164 q 437 174 437 164 q 423 147 423 174 l 423 105 q 434 74 423 86 q 461 62 445 62 l 514 62 q 546 75 532 62 q 559 115 559 91 l 559 498 q 546 522 559 512 q 514 532 532 532 l 490 532 q 453 508 453 532 q 479 481 479 508 q 471 467 479 473 q 451 461 463 461 q 429 470 439 461 q 420 490 420 479 l 420 602 l 619 602 q 680 578 655 602 q 702 514 702 549 l 702 128 q 707 129 706 129 q 716 133 709 133 q 731 127 723 133 q 739 115 739 121 q 722 86 739 86 q 765 62 728 62 l 860 62 q 892 75 880 62 q 905 115 905 91 l 905 498 q 891 522 905 512 q 852 532 875 532 q 801 508 801 532 q 825 481 825 508 z "},"ౡ":{"ha":1557,"x_min":0,"x_max":1504,"o":"m 856 564 q 838 591 838 564 q 875 603 838 603 l 1394 603 q 1472 578 1438 603 q 1504 514 1504 551 l 1504 94 q 1472 21 1504 53 q 1394 -8 1438 -8 l 1210 -8 q 1143 21 1172 -8 q 1116 94 1116 53 l 1116 255 q 1140 303 1116 283 q 1201 322 1165 322 l 1271 322 q 1306 296 1306 322 q 1288 270 1306 270 q 1277 276 1282 270 q 1271 287 1271 281 q 1260 255 1260 287 l 1260 105 q 1273 74 1260 86 q 1306 62 1287 62 q 1359 105 1359 62 l 1359 481 q 1306 532 1359 532 l 1025 532 l 1025 -101 q 999 -150 1025 -129 q 934 -171 972 -171 l 490 -171 q 428 -152 453 -171 q 402 -101 402 -129 l 402 209 q 423 264 402 241 q 473 287 444 287 l 559 287 q 583 302 575 287 q 594 340 594 318 l 594 498 q 583 522 594 512 q 559 532 575 532 l 490 532 q 467 522 476 532 q 458 498 458 512 l 458 445 q 471 420 458 420 q 485 428 471 428 q 498 420 498 428 q 492 399 498 409 q 471 391 481 391 l 297 391 q 273 409 273 391 q 281 428 273 428 q 297 420 297 428 q 314 445 314 420 l 314 490 q 303 520 314 508 q 273 532 291 532 l 182 532 q 155 519 168 532 q 144 481 144 503 l 144 410 q 152 379 144 391 q 174 367 161 367 q 193 385 174 385 q 206 380 200 385 q 211 367 211 374 q 182 340 211 340 l 0 340 l 0 490 q 30 572 0 536 q 104 602 62 602 l 314 602 q 385 549 362 602 q 416 588 396 575 q 455 602 436 602 l 629 602 q 706 576 674 602 q 738 514 738 549 l 738 287 q 711 239 738 260 q 648 217 685 217 l 578 217 q 540 204 556 217 q 525 164 525 188 l 525 -67 q 537 -89 525 -78 q 568 -99 549 -99 l 838 -99 q 868 -92 856 -99 q 881 -75 881 -85 l 881 581 q 856 564 881 564 z "},"ౢ":{"ha":14,"x_min":-738,"x_max":-225,"o":"m -487 -354 q -615 -251 -535 -251 q -679 -275 -653 -251 q -706 -334 -706 -299 q -698 -364 -706 -345 q -680 -402 -680 -391 q -690 -407 -680 -407 q -704 -399 -699 -404 q -738 -318 -738 -370 q -715 -231 -738 -265 q -616 -182 -682 -182 q -524 -216 -551 -182 q -487 -279 -498 -260 q -433 -206 -460 -230 q -347 -182 -407 -182 q -256 -220 -287 -182 q -225 -322 -225 -259 q -300 -429 -225 -386 q -442 -498 -370 -465 q -517 -603 -517 -541 q -496 -652 -517 -631 q -442 -674 -476 -674 q -374 -620 -391 -674 q -332 -567 -356 -567 q -307 -580 -316 -567 q -299 -610 -299 -592 q -333 -681 -299 -651 q -425 -710 -367 -710 q -549 -599 -549 -710 q -477 -481 -549 -530 q -342 -409 -412 -445 q -271 -334 -271 -372 q -299 -273 -271 -295 q -371 -251 -327 -251 q -442 -283 -415 -251 q -487 -354 -455 -295 z "},"ౣ":{"ha":10,"x_min":-792,"x_max":-126,"o":"m -172 -565 q -204 -552 -184 -552 q -239 -566 -225 -552 q -252 -603 -252 -580 q -223 -642 -252 -626 q -200 -647 -216 -647 q -170 -635 -185 -647 q -155 -602 -155 -623 q -172 -565 -155 -581 m -487 -678 q -418 -603 -418 -678 q -428 -549 -418 -572 l -428 -538 q -419 -523 -428 -530 q -402 -516 -410 -516 l -208 -516 q -151 -540 -176 -516 q -126 -601 -126 -564 q -149 -664 -126 -639 q -204 -690 -172 -690 q -259 -665 -235 -690 q -283 -611 -283 -640 q -265 -560 -283 -581 l -385 -560 q -375 -619 -375 -584 q -402 -682 -375 -653 q -486 -714 -429 -714 q -573 -682 -543 -714 q -603 -600 -603 -651 q -532 -482 -603 -532 q -394 -409 -465 -447 q -324 -334 -324 -372 q -351 -274 -324 -295 q -424 -252 -378 -252 q -496 -283 -469 -252 q -540 -354 -508 -295 q -593 -279 -564 -307 q -665 -252 -623 -252 q -734 -275 -707 -252 q -760 -334 -760 -299 q -752 -364 -760 -345 q -738 -388 -741 -382 q -734 -398 -736 -394 q -733 -405 -733 -401 q -744 -409 -733 -409 q -792 -305 -792 -385 q -769 -231 -792 -265 q -669 -182 -734 -182 q -576 -216 -603 -182 q -540 -279 -552 -260 q -493 -212 -512 -230 q -401 -182 -461 -182 q -309 -220 -340 -182 q -278 -323 -278 -259 q -353 -433 -278 -388 q -495 -498 -425 -465 q -570 -605 -570 -541 q -544 -655 -570 -632 q -487 -678 -519 -678 z "},"౦":{"ha":750,"x_min":0,"x_max":698,"o":"m 498 54 q 541 68 524 54 q 559 101 559 81 l 559 578 q 541 615 559 599 q 498 632 524 632 l 209 632 q 159 612 179 632 q 139 564 139 592 l 139 101 q 159 68 139 81 q 209 54 179 54 l 498 54 m 123 -8 q 35 22 72 -8 q 0 101 0 56 l 0 616 q 26 672 0 650 q 86 694 51 694 l 594 694 q 667 668 635 694 q 698 600 698 642 l 698 101 q 666 22 698 56 q 584 -8 631 -8 l 123 -8 z "},"౧":{"ha":750,"x_min":0,"x_max":698,"o":"m 698 101 q 673 24 698 56 q 611 -8 648 -8 l 524 -8 q 485 5 503 -8 q 471 33 471 18 q 477 54 471 48 q 497 62 489 62 q 509 54 506 62 q 514 38 514 48 q 545 52 532 38 q 559 85 559 65 l 559 584 q 536 631 559 610 q 479 648 512 648 l 217 648 q 161 631 185 648 q 139 584 139 610 l 139 70 q 149 48 139 57 q 174 38 160 38 q 180 55 174 48 q 195 62 185 62 q 211 52 204 62 q 217 27 217 42 q 200 2 217 13 q 156 -8 180 -8 l 94 -8 q 28 15 56 -8 q 0 70 0 38 l 0 616 q 26 672 0 650 q 86 694 51 694 l 594 694 q 667 668 635 694 q 698 600 698 642 l 698 101 z "},"౨":{"ha":750,"x_min":0,"x_max":698,"o":"m 350 546 q 375 522 375 546 q 358 490 375 503 q 314 474 340 474 l 244 474 q 195 491 216 474 q 174 530 174 508 l 174 632 q 195 677 174 656 q 244 694 216 694 l 627 694 q 678 677 656 694 q 698 632 698 656 l 698 85 q 667 18 698 46 q 594 -8 635 -8 l 0 -8 l 0 91 q 24 125 0 125 q 53 101 53 125 q 24 85 53 85 q 33 63 24 72 q 53 54 42 54 l 514 54 q 546 70 532 54 q 559 109 559 86 l 559 600 q 551 623 559 613 q 532 632 543 632 l 321 632 q 304 623 311 632 q 297 600 297 613 l 297 546 q 307 529 297 536 q 330 522 316 522 q 335 540 330 532 q 350 546 343 546 z "},"౩":{"ha":750,"x_min":0,"x_max":698,"o":"m 24 600 q 53 584 53 600 q 44 570 53 576 q 25 564 35 564 q 7 572 14 564 q 0 594 0 581 l 0 694 l 584 694 q 664 668 631 694 q 698 600 698 642 l 698 413 q 647 351 698 377 q 683 326 669 343 q 698 291 698 310 l 698 85 q 667 18 698 46 q 594 -8 635 -8 l 0 -8 l 0 91 q 24 125 0 125 q 53 101 53 125 q 24 85 53 85 q 33 63 24 72 q 53 54 42 54 l 514 54 q 545 65 532 54 q 559 91 559 75 l 559 259 q 543 301 559 283 q 506 319 527 319 l 270 319 q 244 303 244 319 q 260 295 260 303 q 252 275 260 283 q 235 265 246 265 q 216 276 225 265 q 209 303 209 287 l 209 398 q 216 426 209 415 q 235 437 225 437 q 253 430 246 437 q 260 413 260 423 q 244 398 260 398 q 270 382 244 382 l 506 382 q 543 395 527 382 q 559 428 559 409 l 559 594 q 545 621 559 610 q 514 632 532 632 l 53 632 q 33 623 42 632 q 24 600 24 613 z "},"౪":{"ha":750,"x_min":0,"x_max":698,"o":"m 139 125 q 174 139 145 139 q 187 133 180 139 q 193 117 193 126 q 179 99 193 107 q 147 91 164 91 q 164 65 147 75 q 209 54 182 54 l 514 54 q 545 65 532 54 q 559 91 559 75 l 559 295 q 545 323 559 311 q 514 335 532 335 l 182 335 q 152 323 164 335 q 139 295 139 311 l 139 125 m 139 468 q 174 485 147 485 q 187 477 180 485 q 193 460 193 469 q 179 444 193 450 q 147 437 164 437 q 164 409 147 421 q 209 398 182 398 l 506 398 q 543 409 527 398 q 559 437 559 421 l 559 600 q 546 634 559 619 q 514 648 532 648 l 461 648 q 444 624 461 624 q 427 631 434 624 q 420 653 420 639 q 435 681 420 667 q 471 694 450 694 l 611 694 q 673 663 648 694 q 698 584 698 631 l 698 444 q 678 388 698 413 q 627 366 656 366 q 678 338 656 366 q 698 275 698 311 l 698 70 q 673 15 698 38 q 611 -8 648 -8 l 86 -8 q 24 14 51 -8 q 0 70 0 38 l 0 291 q 19 345 0 319 q 70 366 42 366 q 19 388 42 366 q 0 444 0 413 l 0 616 q 29 670 0 650 q 94 694 56 694 l 227 694 q 257 683 244 694 q 270 658 270 672 q 244 624 270 624 q 232 631 238 624 q 227 648 227 639 l 174 648 q 150 639 160 648 q 139 616 139 631 l 139 468 z "},"౫":{"ha":761,"x_min":0,"x_max":709,"o":"m 567 398 q 589 407 580 398 q 597 428 597 417 l 597 600 q 588 623 597 613 q 567 632 580 632 l 540 632 q 520 623 528 632 q 512 600 512 613 l 512 398 l 567 398 m 120 69 q 139 54 128 54 l 171 54 q 188 68 180 54 q 196 101 196 81 l 196 335 l 147 335 q 122 326 134 335 q 110 303 110 316 l 110 101 q 120 69 110 81 m 709 428 q 669 374 709 385 q 698 353 686 370 q 709 311 709 335 l 709 70 q 689 15 709 38 q 639 -8 669 -8 l 453 -8 q 402 15 423 -8 q 382 70 382 38 l 382 139 q 369 163 382 163 q 354 147 369 147 q 340 155 346 147 q 332 171 332 161 q 341 188 332 180 q 362 195 350 195 l 496 195 l 496 85 q 509 63 496 72 q 540 54 522 54 l 567 54 q 588 63 580 54 q 597 85 597 72 l 597 303 q 589 326 597 316 q 567 335 580 335 l 311 335 l 311 70 q 292 14 311 38 q 241 -8 270 -8 l 70 -8 q 19 14 42 -8 q 0 70 0 38 l 0 319 q 21 375 0 353 q 70 398 42 398 l 196 398 l 196 600 q 188 623 196 613 q 171 632 180 632 l 147 632 q 123 621 134 632 q 110 600 110 613 l 110 546 q 117 528 110 536 q 123 522 120 522 q 130 533 123 528 q 146 538 137 538 q 158 530 155 538 q 163 515 163 524 q 153 499 163 506 q 129 492 144 492 l 0 492 l 0 632 q 14 677 0 656 q 53 694 30 694 l 255 694 q 295 677 279 694 q 311 632 311 656 l 311 398 l 396 398 l 396 616 q 418 670 396 650 q 468 694 437 694 l 639 694 q 688 670 669 694 q 709 616 709 650 l 709 428 z "},"౬":{"ha":805,"x_min":0,"x_max":752,"o":"m 699 101 q 726 125 699 125 q 752 91 752 125 l 752 -8 l 104 -8 q 30 18 62 -8 q 0 85 0 46 l 0 291 q 14 326 0 310 q 53 351 29 343 q 0 413 0 375 l 0 600 q 34 668 0 642 q 115 694 67 694 l 437 694 l 437 594 q 429 572 437 581 q 410 564 421 564 q 392 570 399 564 q 385 584 385 576 q 409 600 385 600 q 402 623 409 613 q 385 632 396 632 l 182 632 q 153 619 164 632 q 140 594 140 610 l 140 428 q 156 395 140 409 q 193 382 171 382 l 375 382 q 402 398 402 382 q 385 413 385 398 q 391 431 385 423 q 409 437 399 437 q 437 398 437 437 l 437 303 q 431 276 437 287 q 410 265 421 265 q 392 274 399 265 q 385 295 385 283 q 402 303 385 303 q 375 319 402 319 l 193 319 q 155 302 171 319 q 140 259 140 283 l 140 91 q 153 65 140 75 q 182 54 164 54 l 699 54 q 717 63 709 54 q 725 85 725 72 q 699 101 699 85 z "},"౭":{"ha":750,"x_min":0,"x_max":698,"o":"m 182 556 q 147 538 182 538 l 0 538 l 0 632 q 24 677 0 656 q 86 694 51 694 l 611 694 q 673 675 648 694 q 698 632 698 656 l 698 413 q 675 369 698 386 q 619 351 653 351 l 193 351 q 155 337 171 351 q 139 303 139 322 l 139 85 q 150 64 139 72 q 174 54 160 54 l 514 54 q 545 65 532 54 q 559 90 559 75 q 548 115 559 105 q 524 125 538 125 q 518 113 524 118 q 505 109 512 109 q 495 115 498 109 q 490 126 490 118 q 496 140 490 134 q 514 147 504 147 l 698 147 l 698 91 q 667 19 698 51 q 594 -8 635 -8 l 104 -8 q 30 14 62 -8 q 0 70 0 38 l 0 335 q 26 390 0 367 q 86 413 51 413 l 506 413 q 543 426 527 413 q 559 458 559 439 l 559 600 q 545 623 559 613 q 514 632 532 632 l 182 632 q 152 621 164 632 q 139 600 139 613 l 139 564 q 164 578 139 578 q 182 556 182 578 z "},"౮":{"ha":824,"x_min":0,"x_max":771,"o":"m 592 586 q 608 543 608 562 l 608 77 q 578 16 608 42 q 504 -8 546 -8 l 86 -8 q 24 13 51 -8 q 0 65 0 35 l 0 575 q 29 624 0 603 q 94 647 56 647 l 156 647 q 199 635 180 647 q 217 610 217 624 q 193 580 217 580 q 179 586 185 580 q 174 600 174 592 q 150 592 160 600 q 140 575 140 584 l 140 93 q 163 52 140 69 q 217 35 185 35 l 390 35 q 446 52 423 35 q 469 93 469 69 l 469 559 q 457 589 469 576 q 425 600 442 600 q 407 580 425 580 q 388 586 398 580 q 382 605 382 592 q 396 634 382 618 q 434 647 410 647 l 685 647 q 730 667 718 647 q 715 672 722 667 q 709 683 709 677 q 718 696 709 690 q 739 704 726 704 q 760 694 752 704 q 771 674 771 686 l 771 586 l 592 586 z "},"౯":{"ha":784,"x_min":0,"x_max":731,"o":"m 409 125 q 437 91 437 125 l 437 -8 l 104 -8 q 30 18 62 -8 q 0 85 0 46 l 0 291 q 14 326 0 310 q 53 351 29 343 q 0 413 0 375 l 0 600 q 34 668 0 642 q 115 694 67 694 l 731 694 l 731 594 q 723 572 731 581 q 703 564 715 564 q 685 572 691 564 q 678 584 678 576 q 702 600 678 600 q 695 623 702 613 q 678 632 688 632 l 182 632 q 153 619 164 632 q 140 594 140 610 l 140 428 q 156 395 140 409 q 193 382 171 382 l 375 382 q 402 398 402 382 q 385 413 385 398 q 391 431 385 423 q 409 437 399 437 q 437 398 437 437 l 437 303 q 431 276 437 287 q 410 265 421 265 q 392 274 399 265 q 385 295 385 283 q 402 303 385 303 q 375 319 402 319 l 193 319 q 155 302 171 319 q 140 259 140 283 l 140 91 q 153 65 140 75 q 182 54 164 54 l 385 54 q 409 85 409 54 q 385 101 385 85 q 391 118 385 110 q 409 125 399 125 z "},"౸":{"ha":512,"x_min":22,"x_max":477,"o":"m 153 -37 q 337 75 330 67 q 354 128 354 94 l 354 216 q 281 252 354 252 l 59 252 q 22 295 29 252 l 22 667 q 78 720 38 720 l 417 720 q 477 656 477 720 l 477 322 q 441 255 477 255 l 441 252 q 466 219 466 238 l 466 128 q 367 46 466 96 q 163 -72 185 -69 q 126 -54 140 -75 q 133 -33 123 -38 q 153 -37 144 -27 m 164 661 l 164 329 q 192 289 164 289 l 311 289 q 342 305 334 289 l 342 651 q 292 685 342 675 l 193 685 q 164 661 164 685 z "},"౹":{"ha":235,"x_min":-29,"x_max":230,"o":"m -29 18 q -13 34 -29 34 q -3 29 -8 34 q 2 18 2 24 q 24 26 16 18 q 34 40 32 34 l 34 664 q 24 678 32 670 q 2 686 16 686 q -3 674 2 678 q -13 670 -8 670 q -29 686 -29 670 q -6 707 -29 707 l 208 707 q 230 686 230 707 q 216 670 230 670 q 204 677 209 670 q 200 686 200 678 q 176 677 185 686 q 166 655 166 667 l 166 49 q 176 26 166 35 q 200 18 185 18 q 204 27 200 24 q 216 34 209 34 q 230 18 230 34 q 208 -3 230 -3 l -6 -3 q -29 18 -29 -3 z "},"౺":{"ha":484,"x_min":22,"x_max":501,"o":"m 241 18 q 257 34 241 34 q 267 29 262 34 q 271 18 271 24 q 295 26 286 18 q 305 49 305 35 l 305 299 l 56 299 q 22 348 22 299 l 22 690 q 42 707 22 707 l 196 707 q 219 686 219 707 q 203 670 219 670 q 193 674 198 670 q 188 686 188 678 q 164 677 174 686 q 155 655 155 667 l 155 361 q 182 335 160 335 l 276 335 q 305 358 305 335 l 305 690 q 324 707 305 707 l 417 707 q 437 688 437 707 l 437 49 q 447 26 437 35 q 471 18 457 18 q 476 27 471 24 q 487 34 481 34 q 501 18 501 34 q 479 -3 501 -3 l 263 -3 q 247 2 254 -3 q 241 18 241 10 z "},"౻":{"ha":757,"x_min":22,"x_max":722,"o":"m 527 18 q 543 34 527 34 q 552 29 548 34 q 557 18 557 24 q 587 37 583 18 l 587 299 l 338 299 q 313 318 313 307 l 311 318 q 273 299 311 307 l 56 299 q 22 348 22 299 l 22 690 q 42 707 22 707 l 196 707 q 219 686 219 707 q 203 670 219 670 q 193 674 198 670 q 188 686 188 678 q 164 677 174 686 q 155 655 155 667 l 155 361 q 182 335 160 335 l 276 335 q 305 358 305 335 l 305 690 q 324 707 305 707 l 479 707 q 501 686 501 707 q 487 670 501 670 q 476 677 481 670 q 471 686 471 678 q 447 677 457 686 q 437 655 437 667 l 437 361 q 466 335 444 335 l 559 335 q 587 358 587 335 l 587 690 q 608 707 587 707 l 702 707 q 722 690 722 707 l 722 19 q 704 -3 722 5 l 549 -3 q 527 18 527 -3 z "},"౼":{"ha":632,"x_min":22,"x_max":597,"o":"m 22 275 q 42 287 27 287 l 578 287 q 597 275 592 287 l 597 268 q 578 249 597 249 l 42 249 q 22 268 22 249 l 22 275 z "},"౽":{"ha":777,"x_min":22,"x_max":742,"o":"m 43 455 q 22 477 22 455 l 22 522 q 35 538 24 532 l 426 538 q 484 489 484 525 l 484 382 q 441 318 484 337 l 239 265 q 201 222 201 241 l 201 75 q 236 42 201 42 l 720 42 q 722 51 722 46 q 707 66 707 51 q 722 81 707 81 q 742 59 742 81 l 742 14 q 718 -3 742 -3 l 104 -3 q 29 38 49 -3 l 29 193 q 173 299 37 268 q 324 340 310 330 q 334 370 334 358 l 334 457 q 286 493 334 493 l 43 493 l 43 485 q 54 481 49 485 q 59 471 59 476 q 43 455 59 455 z "},"౾":{"ha":870,"x_min":22,"x_max":835,"o":"m 43 538 q 22 560 22 538 l 22 603 q 46 626 27 626 l 356 626 q 420 581 410 626 l 420 473 q 348 425 420 425 q 196 420 337 425 q 182 396 184 420 l 182 358 q 223 338 182 338 l 374 338 q 417 279 417 338 l 417 209 q 356 174 417 174 l 209 174 q 190 147 190 174 l 190 65 q 211 46 190 46 l 776 46 q 811 43 798 46 q 814 56 814 49 q 805 61 806 56 q 798 72 798 67 q 814 88 798 88 q 829 81 822 88 q 835 65 835 75 l 835 3 q 811 -5 835 -2 l 78 -5 q 37 29 37 2 l 37 177 q 102 222 37 212 l 243 222 q 279 268 279 222 q 255 292 276 292 l 93 292 q 37 326 37 292 l 37 420 q 101 463 48 463 l 265 463 q 291 496 287 463 l 291 559 q 247 572 291 572 l 43 572 l 43 568 q 53 564 49 568 q 59 552 59 559 q 43 538 59 538 z "},"౿":{"ha":803,"x_min":22,"x_max":768,"o":"m 559 233 q 581 255 559 255 l 739 255 q 768 235 768 255 l 768 93 q 714 8 768 30 q 674 2 691 2 l 126 2 q 22 69 22 2 l 22 452 q 94 511 34 511 l 447 511 q 503 468 503 511 l 503 348 q 457 271 503 271 l 273 271 q 206 318 206 271 l 206 463 q 196 479 206 474 l 180 479 q 155 463 155 479 l 155 93 q 187 42 155 56 l 559 42 q 621 78 621 42 q 624 93 624 78 l 624 201 l 623 201 q 613 224 623 216 q 589 233 603 233 q 584 223 589 227 q 575 219 580 219 q 559 233 559 219 m 322 458 l 322 327 q 348 308 322 308 l 383 308 q 394 340 394 311 l 394 452 q 370 482 394 482 q 322 458 322 482 z "},"‌":{"ha":0,"x_min":0,"x_max":88,"o":"m 0 -540 l 0 1194 l 88 1194 l 88 -540 l 0 -540 z "},"‍":{"ha":0,"x_min":0,"x_max":334,"o":"m 0 -540 l 0 1194 l 334 1194 l 334 1119 l 88 1119 l 88 -540 l 0 -540 z "},"–":{"ha":848,"x_min":27,"x_max":782,"o":"m 27 346 l 782 346 l 782 254 l 27 254 l 27 346 z "},"—":{"ha":1847,"x_min":5,"x_max":1739,"o":"m 5 346 l 1739 346 l 1739 254 l 5 254 l 5 346 z "},"‘":{"ha":404,"x_min":70,"x_max":330,"o":"m 70 453 q 89 481 70 481 q 105 474 97 481 q 115 461 115 469 q 127 470 121 461 q 133 490 133 479 l 133 682 q 145 725 133 707 q 185 742 161 742 l 287 742 q 318 731 305 742 q 330 700 330 717 q 323 674 330 683 q 306 664 316 664 q 286 670 295 664 q 279 690 279 680 l 227 690 q 208 679 216 690 q 200 655 200 669 l 200 602 l 297 602 q 321 594 311 602 q 330 576 330 586 q 322 559 330 565 q 307 549 316 549 q 294 557 299 549 q 287 568 287 562 q 276 562 281 568 q 270 541 270 551 l 270 490 q 275 470 270 479 q 287 461 281 461 q 294 474 287 469 q 307 481 299 481 q 323 472 316 481 q 330 453 330 463 q 319 436 330 442 q 297 428 311 428 l 104 428 q 81 436 89 428 q 70 453 70 442 z "},"’":{"ha":404,"x_min":70,"x_max":330,"o":"m 330 750 q 313 725 330 725 q 295 730 303 725 q 287 742 287 736 q 275 734 281 742 q 270 717 270 726 l 270 524 q 249 480 270 498 q 200 461 228 461 l 115 461 q 82 476 94 461 q 70 506 70 490 q 77 532 70 522 q 94 541 85 541 q 123 514 123 541 l 174 514 q 193 525 187 514 q 200 549 200 536 l 200 602 l 104 602 q 80 610 89 602 q 70 630 70 618 q 77 648 70 642 q 93 655 85 655 q 115 637 115 655 q 127 645 121 637 q 133 664 133 653 l 133 717 q 126 736 133 726 q 115 742 121 742 q 109 730 115 736 q 93 725 102 725 q 77 733 85 725 q 70 751 70 741 q 80 769 70 761 q 104 776 89 776 l 297 776 q 321 769 311 776 q 330 750 330 761 z "},"“":{"ha":765,"x_min":70,"x_max":690,"o":"m 468 824 q 431 926 431 867 q 495 1085 431 1011 q 664 1196 559 1159 l 690 1133 q 581 1071 621 1113 q 538 980 538 1030 q 591 988 559 988 q 653 960 624 988 q 682 888 682 932 q 645 814 682 845 q 556 784 608 784 q 468 824 504 784 m 321 888 q 321 866 321 888 q 284 814 321 845 q 196 784 247 784 q 107 825 144 784 q 70 926 70 867 q 136 1084 70 1011 q 303 1196 198 1159 l 330 1133 q 222 1071 263 1113 q 177 980 177 1030 q 231 988 198 988 q 294 961 265 988 q 321 888 321 932 z "},"”":{"ha":755,"x_min":70,"x_max":682,"o":"m 449 801 q 554 896 519 840 q 583 998 592 950 q 528 988 564 988 q 462 1023 493 988 q 431 1106 431 1057 q 468 1189 431 1156 q 556 1223 504 1223 q 645 1181 608 1223 q 682 1081 682 1138 q 627 872 682 963 q 485 747 575 779 l 449 801 m 88 801 q 195 895 158 840 q 223 998 231 950 q 168 988 203 988 q 102 1023 134 988 q 70 1106 70 1057 q 109 1189 70 1156 q 196 1223 144 1223 q 284 1181 247 1223 q 321 1081 321 1138 q 267 871 321 963 q 125 747 214 779 l 88 801 z "},"•":{"ha":741,"x_min":32,"x_max":578,"o":"m 338 351 l 394 413 l 421 449 q 453 487 442 476 q 504 504 476 504 q 572 476 533 504 q 578 441 578 453 q 570 413 578 429 q 546 381 562 396 q 477 362 530 366 q 386 345 417 351 q 321 318 356 338 q 434 281 374 291 l 490 275 q 552 247 527 270 q 576 197 576 223 q 572 156 576 171 q 509 129 541 129 q 458 144 477 129 q 421 187 439 158 q 364 256 385 233 q 314 299 343 279 l 314 284 q 343 177 314 247 l 364 136 q 369 115 369 123 q 377 75 377 101 q 358 28 377 49 q 307 -2 338 6 q 255 28 275 6 q 236 77 236 49 q 251 139 236 104 l 263 174 q 292 289 292 249 l 292 299 q 242 255 265 281 q 184 182 219 228 q 107 129 152 129 q 69 136 83 129 q 35 156 56 144 q 32 195 32 182 q 58 251 32 233 q 126 275 85 268 l 176 281 q 284 318 244 292 q 163 358 233 348 q 70 378 93 367 q 34 444 34 398 l 35 477 q 105 506 77 506 q 200 434 150 506 q 245 374 223 399 q 292 338 267 348 l 292 356 q 269 449 292 393 q 239 522 246 506 q 233 561 233 538 q 253 605 233 584 q 307 635 273 626 q 354 606 334 626 q 375 561 375 586 q 358 493 375 536 q 316 338 316 401 q 338 351 329 342 z "},"…":{"ha":1331,"x_min":27,"x_max":1268,"o":"m 1027 32 l 1268 32 l 1268 -46 l 1027 -46 l 1027 32 m 536 32 l 779 32 l 779 -46 l 536 -46 l 536 32 m 27 32 l 268 32 l 268 -46 l 27 -46 l 27 32 z "},"₹":{"ha":715,"x_min":27,"x_max":655,"o":"m 655 926 l 599 827 l 447 827 q 473 778 466 803 q 490 725 481 754 l 655 725 l 599 627 l 495 627 q 457 517 479 554 q 345 415 418 455 q 203 375 271 375 l 501 -49 l 358 -49 l 59 361 l 59 449 l 129 445 q 258 469 209 445 q 328 520 307 492 q 358 583 350 548 q 372 627 367 618 l 27 627 l 86 725 l 353 725 q 335 762 345 750 q 310 792 326 774 q 200 827 276 827 l 27 827 l 86 926 l 655 926 z "},"℃":{"ha":798,"x_min":53,"x_max":742,"o":"m 525 89 q 589 134 589 89 l 589 209 l 742 209 l 742 120 q 687 32 742 64 q 556 0 632 0 l 449 0 q 276 69 326 0 q 260 120 260 91 l 260 549 q 315 636 260 603 q 449 669 370 669 l 556 669 q 687 637 632 669 q 742 549 742 605 l 742 460 l 589 460 l 589 535 q 525 580 589 580 l 479 580 q 413 535 413 580 l 413 134 q 479 89 413 89 l 525 89 m 166 675 q 192 693 192 675 l 192 849 q 166 867 192 867 l 139 867 q 113 849 113 867 l 113 693 q 139 675 113 675 l 166 675 m 53 856 q 74 889 53 876 q 126 902 96 902 l 179 902 q 246 876 227 902 q 252 856 252 867 l 252 686 q 231 653 252 666 q 179 640 209 640 l 126 640 q 59 667 78 640 q 53 686 53 675 l 53 856 z "},"℉":{"ha":575,"x_min":51,"x_max":509,"o":"m 51 0 l 51 669 l 509 669 l 509 580 l 204 580 l 204 401 l 444 401 l 444 311 l 204 311 l 204 0 l 51 0 z "},"⅓":{"ha":1236,"x_min":80,"x_max":1175,"o":"m 169 27 q 171 83 142 56 l 1039 926 q 1070 938 1052 943 q 1095 925 1087 932 q 1105 907 1103 918 q 1094 868 1111 886 l 225 26 q 197 14 214 14 q 169 27 180 14 m 115 420 q 96 451 96 433 q 106 481 96 469 q 129 492 117 492 q 151 485 142 492 q 160 472 160 479 q 156 460 160 465 q 176 469 164 460 q 188 495 188 479 l 188 792 l 80 792 l 80 881 q 113 907 93 907 q 140 881 140 907 q 120 856 140 856 l 120 851 q 185 875 155 851 q 217 939 214 899 l 322 939 l 322 495 q 334 469 322 477 q 342 460 345 460 l 351 455 q 348 468 348 463 q 356 482 348 473 q 378 492 364 492 q 402 482 391 492 q 413 457 413 473 q 395 424 413 441 q 354 407 377 407 l 156 407 q 115 420 136 407 m 750 -10 q 731 -24 750 -24 q 736 -34 731 -29 q 746 -38 741 -38 l 1007 -38 q 1026 -32 1019 -38 q 1033 -16 1033 -26 l 1033 117 q 1023 144 1033 133 q 1001 155 1014 155 l 892 155 q 881 150 886 152 q 888 142 888 148 q 868 118 888 118 q 848 147 848 118 l 848 211 q 854 232 848 223 q 868 241 860 241 q 882 235 876 241 q 888 220 888 228 q 881 208 888 211 q 892 204 886 204 l 1001 204 q 1033 231 1033 204 l 1033 321 q 1026 335 1033 327 q 1007 343 1019 343 l 746 343 q 736 338 741 343 q 731 329 731 332 q 742 325 734 329 q 750 314 750 321 q 726 297 750 297 q 713 304 718 297 q 707 321 707 311 l 707 391 l 1097 391 q 1151 373 1127 391 q 1175 324 1175 354 l 1175 220 q 1165 196 1175 211 q 1146 179 1156 182 q 1163 165 1151 177 q 1175 137 1175 153 l 1175 -21 q 1151 -69 1175 -51 q 1098 -86 1127 -86 l 707 -86 l 707 -16 q 713 2 707 -6 q 728 10 718 10 q 744 3 738 10 q 750 -10 750 -3 z "},"←":{"ha":1042,"x_min":38,"x_max":991,"o":"m 279 401 q 332 316 313 356 q 358 188 358 255 q 38 434 233 362 q 358 677 230 501 q 332 549 358 615 q 283 468 310 498 l 991 468 l 991 401 l 279 401 z "},"↑":{"ha":578,"x_min":42,"x_max":525,"o":"m 249 669 q 156 615 206 639 q 42 592 105 592 q 283 913 211 715 q 525 592 356 714 q 405 616 461 592 q 318 667 348 640 l 318 -43 l 249 -43 l 249 669 z "},"→":{"ha":1044,"x_min":42,"x_max":995,"o":"m 675 188 q 750 401 675 302 l 42 401 l 42 468 l 754 468 q 675 677 675 573 q 995 434 806 501 q 675 188 803 362 z "},"↓":{"ha":580,"x_min":46,"x_max":530,"o":"m 254 908 l 322 908 l 322 201 q 404 247 353 227 q 530 276 466 276 q 287 -48 361 152 q 46 276 216 150 q 161 252 112 276 q 254 198 211 228 l 254 908 z "},"−":{"ha":848,"x_min":27,"x_max":782,"o":"m 27 346 l 782 346 l 782 254 l 27 254 l 27 346 z "},"◌":{"ha":1124,"x_min":88,"x_max":1027,"o":"m 762 -81 q 750 -81 762 -81 q 721 -64 738 -81 q 704 -23 704 -46 q 721 17 704 0 q 762 34 738 34 q 804 17 787 34 q 821 -23 821 0 q 804 -64 821 -46 q 762 -81 787 -81 m 352 632 q 340 632 352 632 q 311 649 327 632 q 294 689 294 666 q 311 729 294 712 q 352 746 327 746 q 394 729 377 746 q 410 689 410 712 q 394 649 410 666 q 352 632 377 632 m 914 70 q 902 70 914 70 q 872 87 889 70 q 856 127 856 104 q 872 167 856 150 q 914 184 889 184 q 955 167 939 184 q 972 127 972 150 q 955 87 972 104 q 914 70 939 70 m 202 481 q 190 481 202 481 q 160 497 177 481 q 144 537 144 514 q 160 577 144 560 q 202 594 177 594 q 243 577 227 594 q 260 537 260 560 q 243 497 260 514 q 202 481 227 481 m 352 -81 q 340 -81 352 -81 q 311 -64 327 -81 q 294 -23 294 -46 q 311 17 294 0 q 352 34 327 34 q 394 17 377 34 q 410 -23 410 0 q 394 -64 410 -46 q 352 -81 377 -81 m 762 632 q 750 632 762 632 q 721 649 738 632 q 704 689 704 666 q 721 729 704 712 q 762 746 738 746 q 804 729 787 746 q 821 689 821 712 q 804 649 821 666 q 762 632 787 632 m 914 481 q 902 481 914 481 q 872 497 889 481 q 856 537 856 514 q 872 577 856 560 q 914 594 889 594 q 955 577 939 594 q 972 537 972 560 q 955 497 972 514 q 914 481 939 481 m 202 70 q 190 70 202 70 q 160 87 177 70 q 144 127 144 104 q 160 167 144 150 q 202 184 177 184 q 243 167 227 184 q 260 127 260 150 q 243 87 260 104 q 202 70 227 70 m 968 275 q 956 275 968 275 q 927 291 943 275 q 910 331 910 308 q 927 371 910 354 q 968 388 943 388 q 1010 371 993 388 q 1027 331 1027 354 q 1010 291 1027 308 q 968 275 993 275 m 146 275 q 134 275 146 275 q 105 291 121 275 q 88 331 88 308 q 105 371 88 354 q 146 388 121 388 q 188 371 171 388 q 204 331 204 354 q 188 291 204 308 q 146 275 171 275 m 558 -136 q 546 -136 558 -136 q 516 -119 533 -136 q 498 -79 498 -102 q 516 -39 498 -56 q 558 -22 533 -22 q 599 -39 583 -22 q 616 -79 616 -56 q 599 -119 616 -102 q 558 -136 583 -136 m 558 686 q 546 686 558 686 q 516 703 533 686 q 498 743 498 720 q 516 783 498 766 q 558 800 533 800 q 599 783 583 800 q 616 743 616 766 q 599 703 616 720 q 558 686 583 686 z "}}}
